<svg width="32" height="32" viewBox="0 0 32 32" fill="none" xmlns="http://www.w3.org/2000/svg">
<g clip-path="url(#clip0_1351_178)">
<path d="M16 32C24.8366 32 32 24.8366 32 16C32 7.16344 24.8366 0 16 0C7.16344 0 0 7.16344 0 16C0 24.8366 7.16344 32 16 32Z" fill="url(#paint0_linear_1351_178)"/>
<path fill-rule="evenodd" clip-rule="evenodd" d="M24.6648 10.3409C24.5095 10.1923 17.6041 6.172 16.8067 5.7666C16.4554 5.58417 15.8067 5.53687 15.4352 5.66525C15.0027 5.80714 7.69192 10.0706 7.39463 10.3477C7.24598 10.4895 7.06355 10.726 6.98923 10.8747C6.86085 11.1382 6.8541 11.3206 6.83382 16.1923L6.82031 21.2327L7.75274 21.78C8.26624 22.0773 8.72571 22.3273 8.75949 22.3408C8.83381 22.3612 15.4689 11.7936 15.4689 11.6517C15.4689 11.5503 13.9689 11.5707 13.4352 11.6788C12.8811 11.8004 12.3946 12.0436 12.1176 12.3409C12.0027 12.4625 11.077 13.8544 10.0635 15.4355C9.05003 17.0166 8.19868 18.3341 8.1649 18.3679C8.13111 18.4085 8.10408 16.9422 8.10408 14.9355V11.4355L8.29327 11.2666C8.61759 10.9693 15.8 6.85444 15.9892 6.85444C16.1716 6.85444 16.273 6.90848 17.9352 7.86794C18.496 8.19226 19.996 9.05712 21.2797 9.78685C22.5635 10.5233 23.6784 11.199 23.7661 11.2868L23.9148 11.4558V18.7256L20.349 13.2505C20.1866 12.9855 20.0171 12.7225 19.9257 12.6005L19.9128 12.5807L19.9113 12.5816C19.8856 12.5487 19.8679 12.5301 19.8608 12.5301C19.8338 12.5368 19.6513 12.8341 18.8338 14.2125C18.7324 14.3814 18.5837 14.6382 18.5095 14.78L18.3675 15.0368L18.3688 15.039L18.3651 15.0413L18.4676 15.2101L18.5432 15.3408C18.5672 15.382 18.592 15.4204 18.6162 15.4547L18.8528 15.8438C18.8819 15.9079 18.9223 15.9804 18.9689 16.0503C19.077 16.2125 19.2189 16.4422 19.2865 16.5638C19.3035 16.5945 19.3219 16.6223 19.3404 16.6462L22.2631 21.4558L21.9148 21.6584C21.7167 21.7707 21.6219 21.8207 21.5619 21.8236L17.9063 16.1404L17.8135 15.9895L17.4824 16.5301L17.4575 16.5715L16.03 18.8918L16.0261 18.8947L18.8815 23.3831C18.5185 23.6677 16.106 25.3222 15.95 25.3222C15.7744 25.3222 12.6176 23.1517 12.6581 23.0773C12.6725 23.0485 13.6463 21.3965 14.8289 19.3902L14.8307 19.3871C15.8669 17.6291 17.0632 15.5996 17.9148 14.1517C18.9283 12.4355 19.3473 11.672 19.2797 11.6517C19.2324 11.6315 18.5568 11.6247 17.7865 11.6382L16.3811 11.6584L13.1378 17.003C11.9437 18.9751 10.8647 20.7534 10.2575 21.7541L10.2561 21.7565C9.9571 22.2492 9.77272 22.5531 9.74597 22.5976L9.59732 22.8408L12.1108 24.2868C13.496 25.084 14.8136 25.8341 15.05 25.9624C15.5433 26.226 16.1108 26.3139 16.5095 26.1787C16.773 26.0976 24.1986 21.8206 24.5703 21.5436C24.6851 21.4557 24.881 21.1923 24.9959 20.9557L25.1986 20.5368L25.1851 15.8408L25.1648 11.1449L25.0026 10.8274C24.9148 10.6517 24.7594 10.4287 24.6648 10.3409ZM23.909 18.8188L23.9148 18.8273V18.815L23.909 18.8188Z" fill="white"/>
<path d="M24.0516 18.918L19.8649 12.4966L18.2969 15.0132L22.3452 21.6942L24.1198 20.841L24.0516 18.918Z" fill="#24A2EE"/>
<path d="M22.0116 22.4215L17.8248 16L16.0234 18.8729L19.3839 24.2527L21.5326 23.3803L22.0116 22.4215Z" fill="#24A2EE"/>
<path fill-rule="evenodd" clip-rule="evenodd" d="M8.17569 11.494L16.0015 6.98539L23.8273 11.494V20.5058L16.0015 25.0144L10.2566 21.7046L9.49122 22.9541L15.7865 26.5809C15.9195 26.6576 16.0834 26.6576 16.2165 26.5809L25.0763 21.4766C25.2098 21.3997 25.2921 21.2574 25.2921 21.1034V10.8964C25.2921 10.7424 25.2098 10.6 25.0763 10.5231L16.2165 5.41884C16.0834 5.34216 15.9195 5.34216 15.7865 5.41884L6.92669 10.5231C6.7932 10.6 6.71094 10.7424 6.71094 10.8964V21.1034C6.71094 21.2574 6.7932 21.3997 6.92669 21.4766L8.69757 22.4969L9.48646 21.2609L8.17569 20.5058V11.494Z" fill="#98BCDC"/>
<path d="M19.4032 11.5938L16.3802 11.6368L9.48828 22.9593L11.9198 24.3671L19.4032 11.5938Z" fill="white"/>
<path d="M11.898 12.6265C12.5884 11.4972 14.5651 11.5019 15.4673 11.6454L8.6947 22.4957C8.46471 22.3633 7.89434 22.0353 7.45276 21.7821C6.86927 21.4477 6.77289 21.4388 6.71094 21.1292V20.5286C8.15235 18.3651 11.2078 13.7557 11.898 12.6265Z" fill="white"/>
</g>
<defs>
<linearGradient id="paint0_linear_1351_178" x1="16" y1="0" x2="16" y2="32" gradientUnits="userSpaceOnUse">
<stop stop-color="#2C374B"/>
<stop offset="1" stop-color="#1B3563"/>
</linearGradient>
<clipPath id="clip0_1351_178">
<rect width="32" height="32" fill="white"/>
</clipPath>
</defs>
</svg>
