<svg width="32" height="32" viewBox="0 0 32 32" fill="none" xmlns="http://www.w3.org/2000/svg">
<g clip-path="url(#clip0_1501_3464)">
<path d="M16 32C24.8366 32 32 24.8366 32 16C32 7.16344 24.8366 0 16 0C7.16344 0 0 7.16344 0 16C0 24.8366 7.16344 32 16 32Z" fill="url(#paint0_linear_1501_3464)"/>
<path d="M27.5514 15.9526C27.6664 9.6545 22.412 4.47075 16.0658 4.50012C9.85951 4.52887 4.49888 9.40575 4.58701 16.1851C4.66888 22.5208 9.68951 27.4958 16.1014 27.5001C22.6058 27.5045 27.7051 22.1639 27.5514 15.9532V15.9526ZM7.42138 17.5814C7.03701 16.4807 7.13951 15.3258 7.37951 14.2114C8.01701 11.247 9.72888 9.11013 12.4733 7.80887C12.5795 7.75825 12.682 7.67012 12.892 7.7495C11.8333 9.34325 11.3301 11.1014 11.3183 13.0139C10.6076 13.3714 9.91763 13.7357 9.31076 14.2301C8.57201 14.8326 7.98513 15.5308 7.85763 16.5283C7.75576 17.3258 8.14763 18.1795 8.82201 18.5608C9.57076 18.9833 10.4276 18.9176 11.0933 18.3864C11.6789 17.9189 11.9301 17.0251 11.6976 16.2576C11.6608 16.1351 11.5483 16.0183 11.7076 15.7633C11.912 16.2645 12.0764 16.7051 12.2701 17.1326C12.4789 17.5939 12.7008 18.0501 12.9926 18.4676C13.2733 18.8683 13.5514 19.2701 13.8345 19.6758C11.552 20.7439 8.42263 20.4501 7.42076 17.582L7.42138 17.5814ZM21.4189 23.0914C18.4945 25.442 13.6464 25.4064 10.7464 23.0201C10.7051 22.9864 10.6733 22.942 10.5745 22.8345C12.5551 22.9758 14.3045 22.4633 15.9833 21.557C16.6189 21.9764 17.257 22.372 17.9639 22.6408C18.652 22.9026 19.3526 23.0626 20.092 22.9533C21.0008 22.8189 21.6508 22.332 21.9064 21.4426C22.1226 20.6908 21.9289 20.0126 21.3383 19.462C20.5883 18.7639 19.3533 18.8201 18.6008 19.6001C18.4816 19.7239 18.3128 19.8001 18.0945 19.8289C19.167 18.6939 19.8726 17.4308 20.4226 16.0889C20.7551 16.0914 20.9033 16.3232 21.0689 16.4801C22.1164 17.4707 22.852 18.6257 22.8533 20.1301C22.8545 21.3464 22.3601 22.3339 21.4189 23.0901V23.0914ZM14.2045 14.7907C15.5133 14.5051 16.7664 14.4595 18.0583 14.867C17.6476 16.1307 17.0645 17.232 16.0658 18.1632C15.1639 17.1626 14.4933 16.1139 14.2045 14.7907ZM24.9758 16.9633C24.9689 17.0789 24.9695 17.2083 24.8264 17.3301C24.0158 15.5776 22.7108 14.2889 21.1033 13.2945C21.0126 12.8645 21.0645 12.4539 21.0589 12.0464C21.0464 11.132 20.8764 10.2576 20.4789 9.42638C19.9095 8.237 18.3945 7.73888 17.3626 8.42638C16.7308 8.84763 16.4195 9.45325 16.4976 10.212C16.5839 11.0514 17.0389 11.6233 17.8501 11.9008C18.0283 11.962 18.2583 11.9314 18.362 12.1983C16.937 11.9295 15.5108 11.9051 14.0814 12.1258C14.0451 11.9695 14.0101 11.9026 14.0189 11.842C14.2258 10.4564 14.7583 9.23012 15.8758 8.33825C17.2158 7.26825 18.8426 7.2095 20.4789 8.16887C22.8358 9.55075 24.3239 11.5789 24.8758 14.2639C25.0583 15.1533 25.0295 16.0608 24.9764 16.9639L24.9758 16.9633Z" fill="white"/>
</g>
<defs>
<linearGradient id="paint0_linear_1501_3464" x1="16" y1="0" x2="16" y2="32" gradientUnits="userSpaceOnUse">
<stop stop-color="#5AA5DB"/>
<stop offset="1" stop-color="#C01E61"/>
</linearGradient>
<clipPath id="clip0_1501_3464">
<rect width="32" height="32" fill="white"/>
</clipPath>
</defs>
</svg>
