<svg width="32" height="32" viewBox="0 0 32 32" fill="none" xmlns="http://www.w3.org/2000/svg">
<g clip-path="url(#clip0_1351_194)">
<path d="M16 32C24.8366 32 32 24.8366 32 16C32 7.16344 24.8366 0 16 0C7.16344 0 0 7.16344 0 16C0 24.8366 7.16344 32 16 32Z" fill="url(#paint0_linear_1351_194)"/>
<path d="M20.5545 16.2333C21.0015 15.4201 21.723 15.4201 22.1701 16.2333L24.9542 21.3805C25.4013 22.1938 25.0356 22.8572 24.1413 22.8572H18.5324C17.6484 22.8572 17.2826 22.1938 17.7195 21.3805L20.5545 16.2333ZM15.169 6.32431C15.6161 5.51104 16.3274 5.51104 16.7745 6.32431L17.3943 7.5014L18.8575 10.2087C19.2132 10.9792 19.2132 11.8888 18.8575 12.6593L13.9497 21.616C13.5026 22.3436 12.7607 22.8037 11.9378 22.8572H7.86309C6.96891 22.8572 6.6031 22.2044 7.05019 21.3805L15.169 6.32431Z" fill="white"/>
</g>
<defs>
<linearGradient id="paint0_linear_1351_194" x1="16" y1="0" x2="16" y2="32" gradientUnits="userSpaceOnUse">
<stop stop-color="#E66B37"/>
<stop offset="1" stop-color="#FE0420"/>
</linearGradient>
<clipPath id="clip0_1351_194">
<rect width="32" height="32" fill="white"/>
</clipPath>
</defs>
</svg>
