<svg width="32" height="32" viewBox="0 0 32 32" fill="none" xmlns="http://www.w3.org/2000/svg">
<g clip-path="url(#clip0_1501_3467)">
<path d="M16 32C24.8366 32 32 24.8366 32 16C32 7.16344 24.8366 0 16 0C7.16344 0 0 7.16344 0 16C0 24.8366 7.16344 32 16 32Z" fill="url(#paint0_linear_1501_3467)"/>
<path d="M13.8028 19.5067C13.8028 20.1998 13.8053 20.8929 13.8003 21.586C13.7997 21.6942 13.8309 21.761 13.9259 21.8148C14.5984 22.1954 15.2684 22.5798 15.9372 22.9667C16.0128 23.0104 16.0659 23.0073 16.1403 22.9635C16.7847 22.5873 17.4303 22.2129 18.0803 21.846C18.2147 21.7698 18.2641 21.6835 18.2628 21.5254C18.2553 20.1798 18.2609 18.8342 18.2547 17.4892C18.2541 17.3398 18.3016 17.2567 18.4316 17.1885C18.6709 17.0635 18.9016 16.921 19.1359 16.786C20.0759 16.2448 21.0134 15.6998 21.9584 15.1679C22.0928 15.0923 22.1372 15.0135 22.1359 14.8673C22.1297 14.1404 22.1284 13.4129 22.1359 12.686C22.1378 12.5423 22.0884 12.4598 21.9678 12.3967C21.8122 12.3148 21.6609 12.2242 21.5084 12.1354C21.0209 11.8535 20.5328 11.5729 20.0472 11.2873C19.9422 11.2254 19.8578 11.2242 19.7528 11.2917C19.5647 11.4129 19.3666 11.5173 19.1722 11.6292C18.5841 11.9673 17.9966 12.3054 17.4084 12.6435C17.0028 12.8767 16.5972 13.1092 16.1909 13.341C16.1016 13.3917 16.0197 13.4279 15.9084 13.3629C15.3766 13.0498 14.8391 12.746 14.3041 12.4385C13.6272 12.0498 12.9503 11.661 12.2747 11.2704C12.2016 11.2285 12.1466 11.2235 12.0716 11.2723C11.8403 11.4217 11.6066 11.5685 11.3666 11.7035C10.9553 11.9354 10.5416 12.1629 10.1234 12.3817C9.99219 12.4504 9.94094 12.5317 9.94157 12.6823C9.94469 13.4217 9.93782 14.161 9.93032 14.9004C9.92907 15.0135 9.95594 15.0817 10.0641 15.1429C10.7622 15.5348 11.4553 15.9354 12.1484 16.3348C12.6353 16.6154 13.1166 16.9073 13.6103 17.1767C13.7509 17.2535 13.8059 17.3317 13.8041 17.4892C13.7966 18.1617 13.8009 18.8348 13.8009 19.5073L13.8028 19.5067ZM22.1034 8.03104C21.6891 7.78729 21.3059 7.55791 20.9197 7.33416C20.0278 6.81916 19.1347 6.30791 18.2422 5.79416C17.5484 5.39479 16.8547 4.99666 16.1641 4.59229C16.0628 4.53291 15.9947 4.53729 15.8934 4.60041C15.5766 4.79666 15.2491 4.97604 14.9259 5.16166C14.3266 5.50604 13.7266 5.84979 13.1278 6.19541C12.3891 6.62166 11.6516 7.04979 10.9141 7.47791C10.6053 7.65729 10.2966 7.83666 9.96782 8.02791C10.6809 8.43729 11.3753 8.83291 12.0659 9.23541C12.1616 9.29104 12.2234 9.26416 12.3053 9.21541C12.6834 8.99041 13.0641 8.76979 13.4459 8.55041C14.2516 8.08854 15.0597 7.63166 15.8628 7.16604C15.9753 7.10041 16.0591 7.08541 16.1772 7.15479C16.8141 7.52791 17.4566 7.89229 18.0966 8.25916C18.6434 8.57291 19.1934 8.88166 19.7353 9.20416C19.8553 9.27541 19.9472 9.31229 20.0584 9.20916C20.0828 9.18666 20.1166 9.17479 20.1459 9.15791C20.7903 8.78666 21.4353 8.41604 22.1034 8.03104ZM12.1578 25.2598C12.1578 25.1592 12.1578 25.0873 12.1578 25.0154C12.1572 24.3092 12.1522 23.6029 12.1591 22.8967C12.1603 22.766 12.1328 22.6892 12.0122 22.6217C11.3041 22.2217 10.6009 21.8123 9.89657 21.4054C9.42657 21.1342 8.96094 20.8554 8.48532 20.5948C8.33344 20.5117 8.27844 20.4179 8.27969 20.2448C8.28657 18.9073 8.27969 17.5692 8.28719 16.2317C8.28844 16.0623 8.22407 15.9754 8.08719 15.8985C7.71407 15.6904 7.34782 15.471 6.97719 15.2585C6.69157 15.0948 6.40344 14.9342 6.08907 14.756C6.08907 14.8467 6.08907 14.906 6.08907 14.9654C6.08969 15.9092 6.09157 16.8535 6.09157 17.7973C6.09157 19.0467 6.09344 20.2967 6.08594 21.546C6.08532 21.7004 6.12844 21.7917 6.26594 21.866C6.62969 22.0623 6.98594 22.2723 7.34344 22.4792C7.96469 22.8392 8.58469 23.2023 9.20594 23.5629C9.99719 24.0223 10.7891 24.4804 11.5816 24.9379C11.7616 25.0417 11.9441 25.1404 12.1572 25.2592L12.1578 25.2598ZM19.9134 25.2417C19.9653 25.2167 19.9953 25.2042 20.0234 25.1879C20.4566 24.9373 20.8884 24.6854 21.3222 24.436C22.1553 23.9573 22.9909 23.4817 23.8234 23.001C24.4928 22.6148 25.1572 22.2198 25.8284 21.8373C25.9466 21.7698 25.9834 21.6948 25.9834 21.5635C25.9791 19.3548 25.9791 17.1467 25.9772 14.9379C25.9772 14.8817 25.9691 14.8254 25.9634 14.7535C25.2666 15.1554 24.5941 15.5485 23.9159 15.9304C23.7791 16.0073 23.7766 16.1129 23.7766 16.2373C23.7778 17.481 23.7666 18.7248 23.7866 19.9679C23.7922 20.311 23.7353 20.5335 23.3928 20.7023C22.8716 20.9585 22.3897 21.2929 21.8853 21.5835C21.2753 21.9348 20.6584 22.276 20.0434 22.6185C19.9591 22.6654 19.9116 22.7179 19.9122 22.8235C19.9159 23.6179 19.9141 24.4129 19.9141 25.241L19.9134 25.2417ZM13.8028 23.6548C13.8028 24.4867 13.8047 25.2929 13.8003 26.0998C13.8003 26.2017 13.8541 26.2379 13.9291 26.281C14.5691 26.6485 15.2084 27.0167 15.8441 27.3923C15.9722 27.4679 16.0728 27.4685 16.2003 27.3942C16.8428 27.0173 17.4884 26.6448 18.1372 26.2773C18.2359 26.221 18.2634 26.1585 18.2628 26.051C18.2584 25.3173 18.2609 24.5835 18.2603 23.8498C18.2603 23.7923 18.2553 23.7342 18.2516 23.6498C18.1609 23.7029 18.0922 23.7435 18.0228 23.7835C17.4066 24.1398 16.7897 24.4948 16.1753 24.8529C16.0791 24.9092 15.9991 24.9267 15.8941 24.8642C15.4922 24.6242 15.0859 24.3929 14.6803 24.1592C14.3947 23.9942 14.1078 23.8304 13.8022 23.6542L13.8028 23.6548ZM23.7753 14.0567C23.8184 14.0642 23.8272 14.0685 23.8309 14.066C24.5191 13.6742 25.2078 13.2835 25.8934 12.886C25.9341 12.8623 25.9653 12.7873 25.9653 12.736C25.9697 11.9554 25.9672 11.1748 25.9697 10.3942C25.9697 10.3029 25.9422 10.2442 25.8609 10.1973C25.2097 9.82229 24.5578 9.44791 23.9141 9.06104C23.7828 8.98229 23.6928 8.98916 23.5691 9.06354C23.1628 9.30791 22.7503 9.54104 22.3397 9.77791C22.0784 9.92854 21.8172 10.0773 21.5466 10.2323C21.5778 10.2567 21.5922 10.271 21.6091 10.2804C22.2541 10.6542 22.8972 11.0304 23.5453 11.3992C23.7066 11.491 23.7853 11.5948 23.7803 11.796C23.7647 12.4067 23.7753 13.0179 23.7753 13.6285C23.7753 13.7704 23.7753 13.9123 23.7753 14.056V14.0567ZM10.4709 10.2654C10.4553 10.2398 10.4522 10.2248 10.4428 10.2192C9.77782 9.82604 9.11157 9.43541 8.44782 9.04041C8.34969 8.98166 8.27407 8.97916 8.17157 9.03916C7.52469 9.42104 6.87469 9.79729 6.22219 10.1685C6.12594 10.2235 6.09219 10.2817 6.09282 10.391C6.09657 11.1448 6.09782 11.8985 6.08782 12.6523C6.08532 12.8129 6.14469 12.896 6.27844 12.9698C6.66407 13.1823 7.04344 13.4079 7.42532 13.6273C7.69969 13.7848 7.97469 13.941 8.26657 14.1073C8.27032 14.0504 8.27469 14.0179 8.27469 13.986C8.27344 13.2254 8.27469 12.4654 8.26844 11.7048C8.26782 11.5904 8.29219 11.5192 8.39907 11.4598C8.81907 11.2267 9.23344 10.9829 9.64907 10.7429C9.92344 10.5842 10.1972 10.4248 10.4709 10.2654ZM9.93344 16.9785C9.93344 17.2423 9.93344 17.4654 9.93344 17.6879C9.93344 18.2717 9.93719 18.8548 9.93344 19.4385C9.93282 19.5373 9.99407 19.5635 10.0584 19.601C10.6334 19.9335 11.2078 20.2673 11.7834 20.5992C11.8978 20.6648 12.0159 20.7242 12.1534 20.7973C12.1534 19.9923 12.1497 19.2185 12.1566 18.4448C12.1578 18.2942 12.1028 18.2135 11.9753 18.1423C11.4378 17.841 10.9066 17.5292 10.3728 17.2223C10.2397 17.1454 10.1041 17.0729 9.93469 16.9792L9.93344 16.9785ZM22.1047 16.9823C22.0666 16.9973 22.0403 17.0035 22.0184 17.0167C21.3547 17.3973 20.6934 17.7817 20.0272 18.1579C19.9278 18.2142 19.9053 18.2798 19.9059 18.3854C19.9097 19.1379 19.9078 19.891 19.9072 20.6435C19.9072 20.6929 19.9072 20.7423 19.9072 20.8048C20.6072 20.401 21.2797 20.0092 21.9572 19.6267C22.0672 19.5648 22.1097 19.4973 22.1084 19.3735C22.1022 18.8854 22.1047 18.3967 22.1047 17.9079C22.1047 17.6042 22.1047 17.2998 22.1047 16.9823ZM18.2316 10.2573C17.5272 9.84229 16.8503 9.44416 16.1734 9.04416C16.0778 8.98729 15.9947 8.98229 15.8922 9.04416C15.4741 9.29479 15.0503 9.53604 14.6297 9.78229C14.3703 9.93416 14.1128 10.0898 13.8322 10.2567C14.4628 10.6185 15.0797 10.956 15.6772 11.3235C15.9203 11.4729 16.0953 11.5079 16.3603 11.3385C16.9578 10.956 17.5891 10.6248 18.2316 10.2585V10.2573Z" fill="white"/>
</g>
<defs>
<linearGradient id="paint0_linear_1501_3467" x1="16" y1="0" x2="16" y2="32" gradientUnits="userSpaceOnUse">
<stop stop-color="#E9E72C"/>
<stop offset="1" stop-color="#EE8A22"/>
</linearGradient>
<clipPath id="clip0_1501_3467">
<rect width="32" height="32" fill="white"/>
</clipPath>
</defs>
</svg>
