<svg width="229" height="262" viewBox="0 0 229 262" fill="none" xmlns="http://www.w3.org/2000/svg">
<path fill-rule="evenodd" clip-rule="evenodd" d="M86.525 15.0548C71.675 23.6348 56.256 32.5038 52.259 34.7648C48.263 37.0248 45.123 39.2618 45.281 39.7358C45.439 40.2088 51.056 43.7658 57.762 47.6388L69.956 54.6808L87.741 44.3948C97.522 38.7378 107.437 33.0268 109.775 31.7028L114.025 29.2958L118.275 31.7358C120.613 33.0778 130.526 38.7708 140.304 44.3878L158.083 54.5988L170.554 47.4108C177.413 43.4568 183.025 39.9098 183.025 39.5288C183.025 39.1468 181.113 37.7818 178.775 36.4938C176.437 35.2058 169.35 31.1478 163.025 27.4768C130.223 8.43781 116.38 0.516813 115.025 0.011813C114.157 -0.311187 102.158 6.02181 86.525 15.0548ZM12.263 57.7988L0 64.9668L0.263 79.9118L0.525 94.8558L13.025 102.128L25.525 109.4L25.812 94.6828L26.1 79.9668L38.312 72.9188C45.029 69.0428 50.48 65.4428 50.424 64.9188C50.304 63.7758 27.324 50.4318 25.677 50.5488C25.043 50.5938 19.007 53.8568 12.263 57.7988ZM101.025 57.3498C94.7 61.0378 89.576 64.4858 89.639 65.0108C89.774 66.1548 111.954 79.3648 113.84 79.4248C114.563 79.4478 120.575 76.2698 127.201 72.3628C137.069 66.5438 139.001 65.0348 137.886 64.0128C135.681 61.9928 114.932 50.4588 113.676 50.5548C113.043 50.6038 107.35 53.6608 101.025 57.3498ZM189.061 57.2598C182.756 60.9488 177.628 64.4168 177.666 64.9668C177.703 65.5168 183.174 69.1168 189.823 72.9668L201.912 79.9668L202.219 94.6828L202.525 109.4L215.025 102.128L227.525 94.8558L227.776 79.9118L228.027 64.9668L215.437 57.7168C208.512 53.7298 202.324 50.4858 201.685 50.5098C201.047 50.5338 195.366 53.5708 189.061 57.2598ZM57.007 82.7388L44.525 90.0098L44.249 105.15L43.974 120.289L49.249 123.226C56.884 127.477 69.253 134.523 79.025 140.189L87.525 145.118L87.792 170.68L88.058 196.242L100.398 203.354C107.185 207.266 113.298 210.467 113.983 210.467C114.669 210.467 120.801 207.259 127.61 203.339L139.992 196.211L140.258 170.632L140.525 145.053L147.604 141.01C151.498 138.786 161.297 133.161 169.379 128.51L184.075 120.053L183.8 105.127L183.525 90.2008L170.824 82.7348L158.124 75.2688L136.074 87.9388L114.025 100.609L92.148 88.0378C80.116 81.1238 70.095 75.4668 69.88 75.4668C69.665 75.4668 63.872 78.7388 57.007 82.7388ZM0.0249996 155.809V196.298L8.775 201.221C17.058 205.881 58.194 229.647 66.302 234.456L70.078 236.696L69.802 221.389L69.525 206.081L47.791 193.582L26.058 181.083L25.791 155.57L25.525 130.056L18.525 125.954C14.675 123.698 8.938 120.383 5.775 118.586L0.0249996 115.32V155.809ZM214.025 123.281L202.525 130.008L202.259 155.539L201.992 181.069L181.259 192.911C169.855 199.423 159.738 205.432 158.775 206.264C157.266 207.569 157.025 209.676 157.025 221.563C157.025 229.145 157.365 235.559 157.781 235.816C158.197 236.073 161.234 234.694 164.531 232.75C169.823 229.631 193.226 216.095 219.275 201.088L228.025 196.046V156.257C228.025 125.069 227.755 116.476 226.775 116.51C226.088 116.534 220.35 119.581 214.025 123.281ZM44.025 156.221V170.975L56.236 177.971C62.952 181.819 68.802 185.117 69.236 185.3C69.67 185.484 70.025 178.901 70.025 170.673V155.712L57.669 148.589C50.873 144.672 45.023 141.467 44.669 141.467C44.315 141.467 44.025 148.106 44.025 156.221ZM178.525 143.816C176.325 145.097 170.812 148.307 166.275 150.949L158.025 155.752V170.693C158.025 178.91 158.381 185.484 158.816 185.3C159.251 185.117 165.088 181.817 171.788 177.967L183.97 170.967L183.997 156.217C184.013 148.104 183.687 141.471 183.275 141.476C182.863 141.482 180.725 142.534 178.525 143.816ZM88.025 232.319V247.17L99.554 253.92C105.895 257.632 111.909 260.885 112.917 261.149C114.018 261.437 119.805 258.749 127.388 254.427L140.025 247.226V232.346C140.025 224.163 139.675 217.467 139.248 217.467C138.82 217.467 137.582 218.087 136.498 218.846C132.139 221.892 114.966 231.467 113.86 231.467C113.21 231.467 107.341 228.317 100.818 224.467C94.295 220.617 88.748 217.467 88.491 217.467C88.235 217.467 88.025 224.15 88.025 232.319Z" fill="#F0B90B"/>
</svg>
