<svg width="32" height="32" viewBox="0 0 32 32" fill="none" xmlns="http://www.w3.org/2000/svg">
<g clip-path="url(#clip0_1351_169)">
<path d="M32 16C32 7.16344 24.8366 0 16 0C7.16344 0 0 7.16344 0 16C0 24.8366 7.16344 32 16 32C24.8366 32 32 24.8366 32 16Z" fill="#04795B"/>
<path d="M11.6529 17.4493C12.2831 17.4493 12.8648 17.2394 13.3334 16.876L9.4877 13.0317C9.12412 13.4921 8.9141 14.0736 8.9141 14.7115C8.906 16.2218 10.134 17.4493 11.6529 17.4493Z" fill="#EFEFEF"/>
<path d="M23.0911 14.7033C23.0911 14.0734 22.881 13.4919 22.5175 13.0234L18.6719 16.8677C19.1323 17.2311 19.714 17.441 20.3522 17.441C21.8631 17.4492 23.0911 16.2216 23.0911 14.7033Z" fill="#EFEFEF"/>
<path d="M25.0293 10.5278L23.3246 12.2319C23.8901 12.9103 24.2294 13.7664 24.2294 14.7194C24.2294 16.8595 22.4924 18.5959 20.3515 18.5959C19.4062 18.5959 18.5418 18.2567 17.8631 17.6914L15.9968 19.557L14.1306 17.6914C13.4519 18.2567 12.5955 18.5959 11.6422 18.5959C9.50123 18.5959 7.76427 16.8595 7.76427 14.7194C7.76427 13.7744 8.10358 12.9103 8.66912 12.2319L7.79654 11.3597L6.96443 10.5278C5.99494 12.1269 5.4375 13.9925 5.4375 15.9954C5.4375 21.8263 10.1637 26.5428 15.9887 26.5428C21.8138 26.5428 26.5401 21.8183 26.5401 15.9954C26.5562 13.9844 25.9988 12.1188 25.0293 10.5278Z" fill="#EFEFEF"/>
<path d="M23.6338 8.71078C21.7191 6.69984 19.0045 5.43994 15.9991 5.43994C12.9937 5.43994 10.2872 6.69984 8.36434 8.71078C8.10584 8.98538 7.85538 9.2761 7.62109 9.57494L15.991 17.9419L24.361 9.56688C24.1509 9.2761 23.9005 8.97728 23.6338 8.71078ZM15.9991 6.8129C18.4713 6.8129 20.7658 7.76586 22.4866 9.50224L15.9991 15.9874L9.5116 9.50224C11.2405 7.76586 13.5269 6.8129 15.9991 6.8129Z" fill="#EFEFEF"/>
<g clip-path="url(#clip1_1351_169)">
<path d="M16 32C24.8366 32 32 24.8366 32 16C32 7.16344 24.8366 0 16 0C7.16344 0 0 7.16344 0 16C0 24.8366 7.16344 32 16 32Z" fill="black"/>
<path d="M27.1844 13.6677C27.0335 12.9352 26.8105 12.2194 26.5188 11.5308C26.2311 10.8526 25.8792 10.2034 25.4679 9.59225C25.06 8.98844 24.5948 8.42545 24.0785 7.91113C23.5639 7.39491 23.0007 6.92963 22.3965 6.52179C21.7845 6.11251 21.1358 5.76074 20.4589 5.47098C19.059 4.87725 17.554 4.57129 16.0334 4.57129C14.5128 4.57129 13.0078 4.87725 11.608 5.47098C10.2544 6.04193 9.02489 6.87107 7.98828 7.91208C7.47215 8.4261 7.00688 8.98878 6.59894 9.59225C6.1896 10.2046 5.83783 10.8536 5.54813 11.5308C4.9544 12.9307 4.64844 14.4357 4.64844 15.9563C4.64844 17.4769 4.9544 18.9819 5.54813 20.3817C5.82847 21.0587 6.19083 21.7005 6.59894 22.3194C7.00686 22.9234 7.47213 23.4867 7.98828 24.0015C8.50289 24.5177 9.06621 24.9829 9.67035 25.3908C10.2768 25.7989 10.931 26.1498 11.608 26.4416C13.0078 27.0353 14.5128 27.3412 16.0334 27.3412C17.554 27.3412 19.059 27.0353 20.4589 26.4416C21.1359 26.1612 21.7776 25.7989 22.3965 25.3908C23.0007 24.9829 23.5639 24.5177 24.0785 24.0015C24.5948 23.4868 25.06 22.9235 25.4679 22.3194C25.876 21.7129 26.227 21.0587 26.5188 20.3817C27.4171 18.2632 27.6492 15.9215 27.1844 13.6677ZM16.0439 25.9162C10.5448 25.9162 6.09643 21.4554 6.09643 15.9677C6.09643 10.48 10.5572 6.01928 16.0439 6.01928C21.5317 6.01928 25.9924 10.48 25.9924 15.9677C25.9924 21.4554 21.5326 25.9162 16.0439 25.9162Z" fill="white"/>
<path d="M16.2203 25.0524H16.4892C16.5358 25.0524 16.5816 25.0524 16.6284 25.0401H16.6407C16.6875 25.0401 16.7217 25.0401 16.7685 25.0286H16.8038C16.8391 25.0286 16.8743 25.0286 16.9087 25.0172H16.9439C16.9792 25.0172 17.0145 25.0057 17.0613 25.0057H17.0841C17.1309 25.0057 17.1776 24.9933 17.2243 24.9933C17.271 24.9933 17.3063 24.9819 17.3531 24.9705H17.3759C17.4112 24.9705 17.4464 24.959 17.4808 24.959H17.5046C17.5513 24.9466 17.5867 24.9466 17.6334 24.9352C17.7259 24.9237 17.8193 24.8998 17.9013 24.877H17.9252C17.9595 24.8656 18.0062 24.8656 18.0415 24.8531H18.0529C18.1464 24.8302 18.2284 24.8065 18.3219 24.7835C17.4472 24.8113 16.5727 24.729 15.7187 24.5385C14.4333 24.2581 13.2079 23.7565 12.1686 22.8917C11.3492 22.2098 10.6916 21.3542 10.2433 20.387C9.79507 19.4198 9.56741 18.3651 9.57679 17.299C9.5852 15.7088 10.1511 14.1717 11.1759 12.9556C12.5071 11.3794 14.3989 10.5498 16.3366 10.5031H16.6054V8.95068H16.3022C15.7127 8.96148 15.1259 9.03176 14.5505 9.16047C13.9716 9.29138 13.408 9.48316 12.8694 9.73259C12.3201 9.99005 11.8062 10.3047 11.3275 10.6671C10.8329 11.0431 10.3824 11.474 9.98491 11.9515C9.6106 12.3934 9.28573 12.875 9.01609 13.3876C8.74933 13.8817 8.53397 14.4019 8.37339 14.94C8.21588 15.4698 8.11049 16.0137 8.05873 16.5638L8.02344 17.0769V17.3801C8.03489 17.9761 8.10545 18.5597 8.23322 19.1318C8.36195 19.7163 8.56029 20.2761 8.80536 20.8139C9.0981 21.4556 9.62351 22.4016 10.4054 23.1139C12.002 24.3724 13.9765 25.0555 16.0095 25.0524H16.2203Z" fill="white"/>
<path d="M18.7674 23.5569C18.1915 23.5364 17.6178 23.4739 17.0511 23.37C14.6461 22.9381 12.5788 21.4667 11.8208 19.2487C10.8977 16.5511 12.3108 13.6322 14.9961 12.7455C15.5079 12.574 16.0441 12.487 16.5837 12.488C17.2732 12.488 17.9617 12.6281 18.5929 12.8847L19.2461 11.4953C19.0497 11.4166 18.8513 11.3428 18.6511 11.2741C17.9821 11.0642 17.2849 10.9577 16.5837 10.9585C15.8813 10.9598 15.1836 11.0741 14.5175 11.297C13.6672 11.5774 12.8841 12.0306 12.2175 12.6281C11.8959 12.9146 11.6027 13.2313 11.3421 13.5741C11.0844 13.9129 10.8614 14.2768 10.6765 14.6602C10.3 15.4311 10.0778 16.2681 10.0224 17.1242C9.96418 18.011 10.0805 18.8978 10.3723 19.7389C10.6696 20.604 11.1474 21.3961 11.774 22.0626C12.3461 22.6815 13.0117 23.1488 13.8165 23.5807C14.6576 24.0241 15.697 24.2577 16.7821 24.4103C17.4829 24.5029 18.4175 24.5267 18.9658 24.5267C19.4444 24.3512 19.6428 24.2692 19.9002 24.1644C20.1224 24.0594 20.3436 23.9545 20.5658 23.8258C20.788 23.697 20.8233 23.6733 21.1961 23.4292C21.2293 23.4085 21.2607 23.3848 21.2896 23.3585C20.0051 23.5807 19.678 23.5684 18.7674 23.5569Z" fill="white"/>
<path d="M21.6378 21.818C21.2755 21.8409 20.7616 21.8753 20.1779 21.8753C19.1386 21.8753 17.8656 21.7827 16.7804 21.4204C15.0984 20.8606 13.5107 19.4246 13.5107 17.6491C13.5102 17.2289 13.5927 16.8126 13.7534 16.4243C13.914 16.0361 14.1497 15.6831 14.4468 15.386C14.744 15.0889 15.0969 14.8533 15.4851 14.6926C15.8734 14.5319 16.2897 14.4495 16.7099 14.4499C17.9123 14.4499 18.9516 15.1155 19.5009 16.0843L20.8902 15.3958C20.6724 14.9857 20.3925 14.6116 20.0606 14.2868C19.6209 13.8462 19.0985 13.4967 18.5234 13.2582C17.9483 13.0197 17.332 12.897 16.7093 12.897C16.0868 12.897 15.4704 13.0197 14.8954 13.2582C14.3203 13.4967 13.7979 13.8462 13.3581 14.2868C12.9177 14.7266 12.5683 15.249 12.3299 15.8239C12.0915 16.3989 11.9688 17.0151 11.9688 17.6377C11.9718 18.2899 12.1115 18.9343 12.3788 19.5294C12.6229 20.0663 12.9624 20.5689 13.3944 21.0361C14.1533 21.8523 15.1918 22.5065 16.3017 22.8803C17.364 23.2302 18.9288 23.3589 20.4468 23.254C20.8664 23.2188 21.182 23.1835 21.7189 23.0671C22.237 22.6583 22.7072 22.1923 23.1206 21.6778C22.7582 21.7131 22.0926 21.7827 21.6378 21.818Z" fill="white"/>
</g>
</g>
<defs>
<clipPath id="clip0_1351_169">
<rect width="32" height="32" fill="white"/>
</clipPath>
<clipPath id="clip1_1351_169">
<rect width="32" height="32" fill="white"/>
</clipPath>
</defs>
</svg>
