<svg width="32" height="32" viewBox="0 0 32 32" fill="none" xmlns="http://www.w3.org/2000/svg">
<g clip-path="url(#clip0_1351_437)">
<path d="M16 32C24.8366 32 32 24.8366 32 16C32 7.16344 24.8366 0 16 0C7.16344 0 0 7.16344 0 16C0 24.8366 7.16344 32 16 32Z" fill="url(#paint0_linear_1351_437)"/>
<path d="M17.683 18.9473C20.2409 18.9473 22.3145 16.8737 22.3145 14.3158C22.3145 11.7578 20.2409 9.68421 17.683 9.68421C15.1249 9.68421 13.0513 11.7578 13.0513 14.3158C13.0513 16.8737 15.1249 18.9473 17.683 18.9473ZM17.683 20.6315C14.195 20.6315 11.3672 17.8038 11.3672 14.3158C11.3672 10.8278 14.195 8 17.683 8C21.171 8 23.9988 10.8278 23.9988 14.3158C23.9988 17.8038 21.171 20.6315 17.683 20.6315Z" fill="#35D07F"/>
<path d="M14.3158 22.3155C16.8737 22.3155 18.9473 20.2419 18.9473 17.684C18.9473 15.1259 16.8737 13.0523 14.3158 13.0523C11.7578 13.0523 9.68421 15.1259 9.68421 17.684C9.68421 20.2419 11.7578 22.3155 14.3158 22.3155ZM14.3158 23.9997C10.8278 23.9997 8 21.172 8 17.684C8 14.196 10.8278 11.3682 14.3158 11.3682C17.8038 11.3682 20.6315 14.196 20.6315 17.684C20.6315 21.172 17.8038 23.9997 14.3158 23.9997Z" fill="#FBCC5C"/>
<path d="M17.8909 20.6294C18.3286 20.0991 18.6423 19.4777 18.809 18.8106C19.4761 18.6437 20.0976 18.3301 20.628 17.8925C20.6038 18.6649 20.4375 19.4262 20.1373 20.1383C19.425 20.4387 18.6634 20.6052 17.8909 20.6294ZM13.1901 13.1917C12.523 13.3585 11.9015 13.6721 11.3711 14.1098C11.3953 13.3373 11.5616 12.5759 11.8618 11.8638C12.5741 11.5636 13.3356 11.3972 14.1081 11.373C13.6705 11.9034 13.3568 12.5246 13.1901 13.1917Z" fill="#ECFF8F"/>
</g>
<defs>
<linearGradient id="paint0_linear_1351_437" x1="16" y1="0" x2="16" y2="32" gradientUnits="userSpaceOnUse">
<stop stop-color="#282C31"/>
<stop offset="1" stop-color="#28312D"/>
</linearGradient>
<clipPath id="clip0_1351_437">
<rect width="32" height="32" fill="white"/>
</clipPath>
</defs>
</svg>
