<?xml version="1.0" standalone="no"?>
<!DOCTYPE svg PUBLIC "-//W3C//DTD SVG 20010904//EN"
 "http://www.w3.org/TR/2001/REC-SVG-20010904/DTD/svg10.dtd">
<svg version="1.0" xmlns="http://www.w3.org/2000/svg"
 width="800.000000pt" height="800.000000pt" viewBox="0 0 800.000000 800.000000"
 preserveAspectRatio="xMidYMid meet">

<g transform="translate(0.000000,800.000000) scale(0.100000,-0.100000)"
fill="#235bee" stroke="none">
<path d="M3730 7954 c-19 -2 -87 -9 -150 -15 -154 -14 -364 -51 -538 -94 -558
-137 -1071 -393 -1548 -772 -150 -119 -458 -430 -587 -593 -498 -624 -790
-1357 -857 -2147 -16 -181 -7 -663 14 -821 48 -358 127 -667 248 -972 508
-1281 1652 -2213 3000 -2445 261 -44 338 -50 688 -50 350 0 422 5 687 51 1340
229 2495 1169 2996 2439 202 514 288 1004 274 1570 -15 580 -139 1096 -389
1615 -542 1127 -1590 1936 -2813 2170 -247 47 -399 61 -700 65 -159 2 -306 1
-325 -1z m635 -1663 c489 -83 895 -289 1249 -631 540 -523 797 -1301 671
-2035 -174 -1012 -971 -1781 -1990 -1921 -140 -19 -426 -21 -560 -4 -796 100
-1467 575 -1816 1285 -105 215 -168 413 -210 661 -30 173 -33 512 -6 683 83
526 309 968 683 1332 130 127 204 186 349 281 291 191 638 318 992 363 155 20
481 13 638 -14z"/>
<path d="M3332 4720 c-18 -11 -41 -34 -52 -52 -19 -32 -20 -52 -20 -663 0
-714 -4 -678 80 -722 l43 -23 611 0 612 0 44 23 c26 13 53 36 65 57 19 34 20
51 20 667 0 625 0 632 -21 660 -11 15 -36 38 -54 51 l-33 22 -631 0 c-612 0
-632 -1 -664 -20z"/>
</g>
</svg>
