<svg width="32" height="32" viewBox="0 0 32 32" fill="none" xmlns="http://www.w3.org/2000/svg">
<g clip-path="url(#clip0_1501_2913)">
<path d="M32 16C32 7.16344 24.8366 0 16 0C7.16344 0 0 7.16344 0 16C0 24.8366 7.16344 32 16 32C24.8366 32 32 24.8366 32 16Z" fill="url(#paint0_linear_1501_2913)"/>
<path d="M15.9574 9.53004C13.0643 12.3379 10.212 15.1047 7.19922 18.0388C7.19922 16.5953 7.19922 15.3835 7.19922 14.1717C7.22693 13.9825 7.31993 13.809 7.46197 13.6817C10.2909 10.9413 13.1081 8.23318 15.9808 5.43994C16.9384 6.34657 17.8989 7.23266 18.836 8.13929C20.6519 9.89974 22.4473 11.6895 24.2749 13.4411C24.4548 13.5994 24.5955 13.7978 24.6858 14.0204C24.776 14.243 24.8132 14.4837 24.7945 14.7233C24.7595 15.7649 24.7945 16.8094 24.7945 18.0799L15.9574 9.53004Z" fill="white"/>
<path d="M9.28125 20.0684L16.0058 13.6001L17.91 15.6145L13.6875 20.051C14.4282 20.8311 15.2068 21.655 16.1691 22.6709C17.5892 21.0291 18.9627 19.4338 20.3391 17.8386L20.7649 18.0103L22.5612 20.2722L16.0495 26.5601L9.28125 20.0684Z" fill="white"/>
</g>
<defs>
<linearGradient id="paint0_linear_1501_2913" x1="2.08" y1="0.799999" x2="30.64" y2="32" gradientUnits="userSpaceOnUse">
<stop stop-color="#2C4EBA"/>
<stop offset="1" stop-color="#13D67A"/>
</linearGradient>
<clipPath id="clip0_1501_2913">
<rect width="32" height="32" fill="white"/>
</clipPath>
</defs>
</svg>
