<svg width="32" height="32" viewBox="0 0 32 32" fill="none" xmlns="http://www.w3.org/2000/svg">
<g clip-path="url(#clip0_1351_197)">
<path d="M16 32C24.8366 32 32 24.8366 32 16C32 7.16344 24.8366 0 16 0C7.16344 0 0 7.16344 0 16C0 24.8366 7.16344 32 16 32Z" fill="white"/>
<path fill-rule="evenodd" clip-rule="evenodd" d="M16 32C24.8366 32 32 24.8366 32 16C32 7.16344 24.8366 0 16 0C7.16344 0 0 7.16344 0 16C0 24.8366 7.16344 32 16 32ZM12.4885 8.29271C12.4885 7.8067 12.0945 7.41271 11.6085 7.41271H8.1685V14.7084C9.08652 12.9928 10.6653 11.4626 12.4885 10.7373V8.29271ZM15.5879 16.5241C14.4833 16.5241 13.5879 17.4195 13.5879 18.5241V20.8441H16.4327C20.4975 20.8441 23.7927 17.5489 23.7927 13.4841V8.29271C23.7927 7.8067 23.3987 7.41271 22.9127 7.41271H19.4727V13.4841C19.4727 15.163 18.1117 16.5241 16.4327 16.5241H15.5879ZM16.3927 15.4489C17.4973 15.4489 18.3927 14.5534 18.3927 13.4489V11.1289H15.5479C11.4831 11.1289 8.18789 14.4241 8.18789 18.4889V23.6803C8.18789 24.1663 8.58188 24.5603 9.06789 24.5603H12.5079V18.4889C12.5079 16.8099 13.8689 15.4489 15.5479 15.4489H16.3927ZM19.4921 23.6803C19.4921 24.1663 19.8861 24.5603 20.3721 24.5603H23.8121V17.2646C22.8941 18.9801 21.3153 20.5103 19.4921 21.2357V23.6803Z" fill="#00943E"/>
<g clip-path="url(#clip1_1351_197)">
<path d="M16 32C24.8366 32 32 24.8366 32 16C32 7.16344 24.8366 0 16 0C7.16344 0 0 7.16344 0 16C0 24.8366 7.16344 32 16 32Z" fill="#0058E3"/>
<path d="M32 16C32 7.16344 24.8366 0 16 0C7.16344 0 0 7.16344 0 16C0 24.8366 7.16344 32 16 32C24.8366 32 32 24.8366 32 16Z" fill="black"/>
<path d="M19.0492 19.2799L12.9692 19.2863L12.8828 19.1911C12.8828 17.3243 12.8842 15.4577 12.8868 13.5911C12.8868 13.0783 12.9252 13.0391 13.4292 13.0391C15.1356 13.0391 16.842 13.0391 18.5492 13.0431C18.7188 13.0573 18.8869 13.0863 19.0516 13.1295L19.0388 13.1167C19.0796 13.1969 19.108 13.2829 19.1228 13.3719C19.1228 15.3271 19.1172 17.2825 19.106 19.2383C19.0881 19.2533 19.0691 19.2673 19.0492 19.2799Z" fill="white"/>
<path d="M9.82416 13.12C8.91936 13.12 8.01376 13.1128 7.10896 13.1256C6.83056 13.1296 6.72656 13.0128 6.72656 12.756C6.72656 10.9187 6.72656 9.08161 6.72656 7.24481C6.72656 6.90401 6.97216 6.88001 7.22576 6.88001H10.9802C11.4994 6.88001 12.0202 6.88721 12.5378 6.88001C12.8386 6.87521 12.9698 7.00241 12.969 7.30641C12.9642 9.13041 12.9642 10.9544 12.969 12.7784C12.969 13.0392 12.877 13.1288 12.6186 13.1256C11.6866 13.1136 10.7562 13.12 9.82416 13.12Z" fill="white"/>
<path d="M19.0491 13.13C19.009 12.8993 18.9824 12.6662 18.9691 12.4324C18.9619 10.7812 18.9651 9.13 18.9691 7.47961C18.9691 6.97641 19.0627 6.88281 19.5723 6.88281C21.2635 6.88281 22.9545 6.88281 24.6451 6.88281C25.1531 6.88281 25.2179 6.95001 25.2179 7.45961C25.2179 9.20361 25.2123 10.9476 25.2227 12.6924C25.2227 13.0124 25.1171 13.15 24.7891 13.1468C22.8691 13.1316 20.9555 13.126 19.0387 13.118L19.0491 13.13Z" fill="white"/>
<path d="M12.8837 19.1914L12.9765 19.2842C12.9733 21.1509 12.9703 23.0176 12.9677 24.8842C12.9677 25.3642 12.8949 25.4442 12.4189 25.4442C10.7122 25.4442 9.00552 25.4442 7.29884 25.4442C6.79884 25.4442 6.72684 25.3642 6.72684 24.8698C6.72684 23.1498 6.73724 21.4298 6.71884 19.7106C6.71484 19.3106 6.84044 19.189 7.24444 19.193C9.12364 19.2066 11.0004 19.193 12.8837 19.1914Z" fill="white"/>
<path d="M19.0505 19.2798C19.0687 19.2681 19.0861 19.2552 19.1025 19.2414C19.2197 19.2225 19.3377 19.21 19.4561 19.2038C21.2289 19.2038 23.0025 19.2094 24.7753 19.1958C25.1033 19.1958 25.2209 19.2886 25.2185 19.6238C25.2073 21.4104 25.2073 23.1972 25.2185 24.9838C25.2185 25.3342 25.0729 25.4486 24.7385 25.447C22.9913 25.439 21.2447 25.439 19.4985 25.447C19.1417 25.447 18.9593 25.3118 18.9609 24.939C18.9649 23.1654 18.9609 21.3918 18.9665 19.619C18.9811 19.503 19.0093 19.3892 19.0505 19.2798Z" fill="white"/>
<g clip-path="url(#clip2_1351_197)">
<path d="M16 32C24.8366 32 32 24.8366 32 16C32 7.16344 24.8366 0 16 0C7.16344 0 0 7.16344 0 16C0 24.8366 7.16344 32 16 32Z" fill="#01131F"/>
<path d="M16.3822 5.71436L7.64062 10.7618V20.8532L16.3822 25.8972L25.1171 20.8532V10.7618L16.3822 5.71436ZM22.5291 19.3579L16.3822 22.9067L10.232 19.3579V12.2537L16.3822 8.7049L22.5291 12.2537V19.3579Z" fill="white"/>
<path d="M20.4562 18.1642L16.3763 20.5187L12.293 18.1642V13.4517L16.3763 11.0938L20.4562 13.4517L18.7579 14.4328L16.3763 13.0559L13.9947 14.4328V17.1798L16.3763 18.5566L18.7579 17.1798L20.4562 18.1642Z" fill="white"/>
</g>
</g>
</g>
<defs>
<clipPath id="clip0_1351_197">
<rect width="32" height="32" fill="white"/>
</clipPath>
<clipPath id="clip1_1351_197">
<rect width="32" height="32" fill="white"/>
</clipPath>
<clipPath id="clip2_1351_197">
<rect width="32" height="32" fill="white"/>
</clipPath>
</defs>
</svg>
