<svg width="32" height="32" viewBox="0 0 32 32" fill="none" xmlns="http://www.w3.org/2000/svg">
<g clip-path="url(#clip0_1501_2799)">
<path d="M16 32C24.8366 32 32 24.8366 32 16C32 7.16344 24.8366 0 16 0C7.16344 0 0 7.16344 0 16C0 24.8366 7.16344 32 16 32Z" fill="white"/>
<path d="M21.209 28.5716H10.7933L3.42969 21.208V10.7923L10.7933 3.42871H21.2077L28.5725 10.7923V21.2068L21.209 28.5716ZM11.4451 27.0001H20.5583L27.0023 20.5561V11.4441L20.5571 5.00014H11.4451L5.00112 11.4441V20.5573L11.4451 27.0001Z" fill="#FFC629"/>
<path d="M23.3842 14.5753V19.0603L19.6582 22.7864L18.7759 20.6551L21.2529 18.178V17.5156H19.6815V17.5273L17.5234 19.6854H14.4713L12.3133 17.5273V14.474L14.4713 12.316H17.5234L19.6815 14.474V14.4938H21.2529V13.8234L18.7759 11.3464L19.6582 9.21503L20.828 10.3849C20.7734 10.5537 20.742 10.7341 20.742 10.9226C20.742 11.8807 21.5183 12.657 22.4764 12.657C23.4343 12.657 24.2108 11.8807 24.2108 10.9226C24.2108 9.96466 23.4343 9.18826 22.4764 9.18826C22.2889 9.18826 22.1085 9.21852 21.9385 9.2744L19.7071 7.04297H12.2864L7.03906 12.2892V19.7098L12.2864 24.9572H19.7071L24.9545 19.7098V14.5753H23.3842ZM14.6704 21.2556H17.3232L18.2055 23.387H13.788L14.6704 21.2556ZM13.2189 20.6538L12.3365 22.7851L9.21229 19.6609L11.3436 18.7786L13.2189 20.6538ZM10.7418 14.6731V17.3259L8.61049 18.2082V13.7908L10.7418 14.6731ZM11.3424 13.2216L9.21112 12.3393L12.3353 9.21503L13.2177 11.3464L11.3424 13.2216ZM13.788 8.61323H18.2066L17.3244 10.7445H14.6704L13.788 8.61323Z" fill="#80BC00"/>
</g>
<defs>
<clipPath id="clip0_1501_2799">
<rect width="32" height="32" fill="white"/>
</clipPath>
</defs>
</svg>
