<svg width="32" height="32" viewBox="0 0 32 32" fill="none" xmlns="http://www.w3.org/2000/svg">
<g clip-path="url(#clip0_1501_2876)">
<path d="M16 0C7.16344 0 0 7.16344 0 16C0 24.8366 7.16344 32 16 32C24.8366 32 32 24.8366 32 16C32 7.16344 24.8366 0 16 0Z" fill="url(#paint0_linear_1501_2876)"/>
<path d="M17.6028 7.2383C17.8314 6.99614 18.1472 6.67078 18.4929 6.34358C18.8353 6.01946 19.2218 5.67896 19.5902 5.41487C19.7744 5.28307 19.9693 5.15899 20.1634 5.06542L17.6028 7.2383ZM17.6028 7.2383C17.5728 7.27011 17.5442 7.30057 17.5172 7.3295C16.8314 7.1992 16.0528 7.13296 15.3876 7.13296C14.8574 7.13296 14.3366 7.17493 13.8283 7.25583C13.1273 7.04291 12.6081 6.83609 11.9597 6.15481M17.6028 7.2383L11.9597 6.15481L17.6028 7.2383ZM11.9597 6.15481C11.9025 6.09464 11.8411 6.02902 11.7748 5.95827L11.9597 6.15481ZM11.9597 6.15481L11.7748 5.95827L11.9597 6.15481ZM6.25845 13.2802C6.00554 11.2825 6.09659 9.47105 6.37496 8.01121L6.25845 13.2802ZM6.25845 13.2802C5.79437 14.4238 5.53906 15.6737 5.53906 16.9815C5.53906 18.9818 6.13624 20.8451 7.16222 22.3995C8.73824 25.7355 12.1342 28.0457 16.0714 28.0457C20.6564 28.0457 24.5075 24.9132 25.6058 20.673C26.1965 19.5878 26.5286 18.3777 26.5286 17.1007C26.5286 14.4924 25.1493 12.1902 23.0355 10.6254C22.521 9.60355 22.4966 8.88832 22.469 8.04662C22.4636 7.88339 22.4579 7.71335 22.4484 7.53739C22.4394 7.3679 22.4348 7.21953 22.4305 7.07112C22.427 6.96221 22.4236 6.85239 22.4185 6.73801C22.4185 6.73787 22.4185 6.73815 22.4185 6.73801L22.0188 6.75597L6.25845 13.2802ZM11.7748 5.95827L11.7618 5.9444C11.3879 5.54501 10.867 4.98863 10.3209 4.61102M11.7748 5.95827L10.3209 4.61102L11.7748 5.95827ZM10.3209 4.61102C9.99554 4.38611 9.58719 4.17025 9.1321 4.12837L10.3209 4.61102ZM10.3209 4.61102L9.1321 4.12837L10.3209 4.61102ZM9.1321 4.12837C8.62939 4.0821 8.14807 4.25602 7.76226 4.66557L9.1321 4.12837ZM9.1321 4.12837L7.76226 4.66557L9.1321 4.12837ZM7.76226 4.66557C7.14772 5.31801 6.6557 6.53874 6.37496 8.01121L7.76226 4.66557Z" fill="white"/>
<path d="M17.6028 7.2383C17.8314 6.99614 18.1472 6.67078 18.4929 6.34358C18.8353 6.01946 19.2218 5.67896 19.5902 5.41487C19.7744 5.28307 19.9693 5.15899 20.1634 5.06542L17.6028 7.2383ZM17.6028 7.2383C17.5728 7.27011 17.5442 7.30057 17.5172 7.3295C16.8314 7.1992 16.0528 7.13296 15.3876 7.13296C14.8574 7.13296 14.3366 7.17493 13.8283 7.25583C13.1273 7.04291 12.6081 6.83609 11.9597 6.15481M17.6028 7.2383L11.9597 6.15481M11.9597 6.15481C11.9025 6.09464 11.8411 6.02902 11.7748 5.95827M11.9597 6.15481L11.7748 5.95827M11.7748 5.95827L11.7618 5.9444C11.3879 5.54501 10.867 4.98863 10.3209 4.61102M11.7748 5.95827L10.3209 4.61102M6.25845 13.2802C6.00554 11.2825 6.09659 9.47105 6.37496 8.01121M6.25845 13.2802L6.37496 8.01121M6.25845 13.2802C5.79437 14.4238 5.53906 15.6737 5.53906 16.9815C5.53906 18.9818 6.13624 20.8451 7.16222 22.3995C8.73824 25.7355 12.1342 28.0457 16.0714 28.0457C20.6564 28.0457 24.5075 24.9132 25.6058 20.673C26.1965 19.5878 26.5286 18.3777 26.5286 17.1007C26.5286 14.4924 25.1493 12.1902 23.0355 10.6254C22.521 9.60355 22.4966 8.88832 22.469 8.04662C22.4636 7.88339 22.4579 7.71335 22.4484 7.53739C22.4394 7.3679 22.4348 7.21953 22.4305 7.07112C22.427 6.96221 22.4236 6.85239 22.4185 6.73801M6.25845 13.2802L22.0188 6.75597L22.4185 6.73801M6.37496 8.01121C6.6557 6.53874 7.14772 5.31801 7.76226 4.66557M6.37496 8.01121L7.76226 4.66557M22.4185 6.73801C22.4185 6.73815 22.4185 6.73787 22.4185 6.73801ZM10.3209 4.61102C9.99554 4.38611 9.58719 4.17025 9.1321 4.12837M10.3209 4.61102L9.1321 4.12837M9.1321 4.12837C8.62939 4.0821 8.14807 4.25602 7.76226 4.66557M9.1321 4.12837L7.76226 4.66557" stroke="black" stroke-width="0.7"/>
<mask id="mask0_1501_2876" style="mask-type:alpha" maskUnits="userSpaceOnUse" x="5" y="4" width="22" height="24">
<path d="M17.8922 7.51261C17.7975 7.61315 17.7175 7.69966 17.6567 7.7663C16.9519 7.61248 16.101 7.53286 15.386 7.53286C14.8458 7.53286 14.316 7.57824 13.8001 7.66544C13.0239 7.43341 12.4124 7.21238 11.6684 6.43045C11.6098 6.36888 11.5473 6.30206 11.4812 6.23155C11.0997 5.82406 10.6025 5.29304 10.0918 4.93992C9.79051 4.73163 9.44963 4.55933 9.09389 4.52659C8.71661 4.49187 8.35531 4.61763 8.05187 4.93974C7.51621 5.50845 7.04248 6.63763 6.76632 8.08602C6.4912 9.5288 6.40283 11.3357 6.66723 13.3342C6.19709 14.4568 5.9375 15.6893 5.9375 16.9814C5.9375 18.9112 6.51645 20.707 7.51021 22.2029C9.01728 25.4181 12.2831 27.6456 16.0698 27.6456C20.4852 27.6456 24.1922 24.6171 25.2292 20.5248C25.8049 19.4834 26.1271 18.3237 26.1271 17.1006C26.1271 14.612 24.7956 12.3973 22.721 10.8919C22.1231 9.74365 22.0964 8.93818 22.0676 8.05962C22.0623 7.8961 22.0567 7.73003 22.0474 7.55875C22.038 7.3839 22.0335 7.2312 22.029 7.08288C22.0257 6.97384 22.0223 6.86717 22.0172 6.75586C22.0066 6.51442 21.9876 6.27566 21.9327 6.06765C21.8764 5.85514 21.7751 5.64429 21.577 5.49269C21.3802 5.34198 21.1337 5.28448 20.8572 5.28448C20.6775 5.28448 20.4961 5.34816 20.3356 5.42557C20.1697 5.50562 19.9953 5.6156 19.8217 5.73989C19.4746 5.98861 19.1033 6.31498 18.7663 6.63397C18.4279 6.9543 18.1177 7.27376 17.8922 7.51261Z" fill="white"/>
</mask>
<g mask="url(#mask0_1501_2876)">
<path d="M16.1 25.2883C10.82 25.2083 7.5 22.455 6.5 21.0883L3 22.6883L13.1 31.2883L26.5 25.9883L25.4 21.0883C25.1 21.0217 24.38 20.9283 23.9 21.0883C23.26 23.5683 20.4334 23.5883 19.1 23.2883C19.2 23.955 18.74 25.2883 16.1 25.2883Z" fill="#F8ECE0"/>
<path d="M12.6992 16.6C8.69922 15.48 6.53254 18.8 6.39922 20.5L5.99922 20.2L4.19922 12.7L7.59922 2L26.1992 3.9L27.8992 13.8L24.7992 11C24.6992 11.3333 25.6992 16.2499 23.6992 15.9C19.6992 15.2 19.9992 16.2 17.8992 17.2C15.7992 18.2 15.1992 17.8 12.6992 16.6Z" fill="url(#paint1_linear_1501_2876)"/>
<path d="M13.8393 11.5207C13.5993 11.1207 14.5393 10.6207 15.0393 10.4207C16.0393 10.2207 17.5393 11.5207 16.1393 11.9207C14.7393 12.3207 14.1393 12.0207 13.8393 11.5207Z" fill="white" fill-opacity="0.48"/>
<path d="M20.4984 11.6002C21.106 11.6002 21.5984 11.2868 21.5984 10.9002C21.5984 10.5136 21.106 10.2002 20.4984 10.2002C19.8909 10.2002 19.3984 10.5136 19.3984 10.9002C19.3984 11.2868 19.8909 11.6002 20.4984 11.6002Z" fill="white" fill-opacity="0.48"/>
</g>
<path d="M8.84688 11.0538C8.32525 9.34581 8.45875 7.25473 8.8469 6.04785C9.52651 8.32253 11.1727 9.66137 11.1727 9.66137C10.4861 9.81041 9.50531 10.3875 8.84688 11.0538Z" fill="black"/>
<path d="M19.5279 17.0953C20.0439 15.9943 23.0765 15.7977 23.5545 17.0953C23.8204 17.817 22.7489 19.4586 22.0349 19.5645C21.0093 19.7162 18.9581 18.3109 19.5279 17.0953Z" fill="black"/>
<path d="M19.031 23.2686C18.8598 23.1161 19.0742 22.9206 19.2826 23.0158C19.6972 23.2048 20.17 23.312 20.6722 23.312C21.9626 23.312 23.0606 22.6043 23.4688 21.6161C23.5058 21.5267 23.639 21.5358 23.639 21.6326C23.639 22.924 22.4358 23.971 20.9514 23.971C20.199 23.971 19.5188 23.7019 19.031 23.2686Z" fill="black"/>
<path fill-rule="evenodd" clip-rule="evenodd" d="M8.25391 13.4388L27.1163 11.2075L27.2234 12.1129L26.3182 12.22L26.4251 13.1253L25.5198 13.2325L25.6267 14.138L24.7211 14.245L24.8286 15.1506L21.8106 15.5076L21.7035 14.6021L20.7979 14.7092L20.691 13.8037L19.7856 13.9108L19.6784 13.0053L17.8675 13.2196L17.9747 14.125L17.0694 14.2322L17.1765 15.1376L16.271 15.2445L16.3782 16.15L13.3602 16.5069L13.2531 15.6016L12.3477 15.7088L12.2406 14.8034L11.3352 14.9104L11.2281 14.005L8.361 14.3442L8.25391 13.4388ZM24.6144 13.3396L25.5198 13.2325L25.412 12.3272L24.5066 12.4344L24.6144 13.3396L23.709 13.4466L23.8162 14.352L24.7211 14.245L24.6144 13.3396ZM16.9621 13.3261L16.0567 13.4332L16.1638 14.3386L17.0694 14.2322L16.9621 13.3261ZM15.2582 14.4456L16.1638 14.3386L16.271 15.2445L15.3653 15.3509L15.2582 14.4456Z" fill="black"/>
<path d="M24.3156 17.7422C25.064 18.7286 24.2443 20.5154 22.8236 20.489C22.5139 20.4832 22.1974 20.5989 21.9852 20.8242C20.8635 22.016 18.4992 22.1654 17.7672 20.5174C17.6934 20.3512 17.5756 20.2032 17.4128 20.1221L16.832 19.8317" stroke="black" stroke-width="0.7" stroke-linecap="round"/>
<path d="M20.4023 21.8366C22.2308 22.571 23.3076 21.158 23.2134 20.6284L21.9439 20.7736L20.4023 21.8366Z" fill="black"/>
<path d="M15.3623 15.3463L15.2617 14.4322L16.1626 14.3403L16.2763 15.2369L15.3623 15.3463Z" fill="white"/>
<path d="M23.8076 14.3536L23.707 13.4395L24.6079 13.3477L24.7217 14.2442L23.8076 14.3536Z" fill="white"/>
<path d="M16.1596 14.3623L16.0547 13.4306L16.9556 13.3169L17.069 14.2264L16.1596 14.3623Z" fill="white"/>
<path d="M24.605 13.3739L24.5 12.4423L25.4009 12.3286L25.5144 13.238L24.605 13.3739Z" fill="white"/>
</g>
<defs>
<linearGradient id="paint0_linear_1501_2876" x1="16" y1="0" x2="16" y2="32" gradientUnits="userSpaceOnUse">
<stop stop-color="#AB3AFE"/>
<stop offset="1" stop-color="#7B71F4"/>
</linearGradient>
<linearGradient id="paint1_linear_1501_2876" x1="16.0492" y1="2" x2="16.0492" y2="20.2" gradientUnits="userSpaceOnUse">
<stop stop-color="#FBF672"/>
<stop offset="1" stop-color="#FFAB24"/>
</linearGradient>
<clipPath id="clip0_1501_2876">
<rect width="32" height="32" fill="white"/>
</clipPath>
</defs>
</svg>
