<svg width="32" height="32" viewBox="0 0 32 32" fill="none" xmlns="http://www.w3.org/2000/svg">
<g clip-path="url(#clip0_1501_3179)">
<path d="M32 16C32 7.16344 24.8366 0 16 0C7.16344 0 0 7.16344 0 16C0 24.8366 7.16344 32 16 32C24.8366 32 32 24.8366 32 16Z" fill="black"/>
<path d="M16.0022 21.6417C13.6361 20.3759 10.6551 18.7838 7.79297 17.2598C9.84854 20.296 12.3076 23.9154 14.6846 27.4138C15.1277 28.066 15.5679 28.714 16.0022 29.3532V21.6417Z" fill="#34B02E"/>
<path d="M16 21.6417C18.3661 20.3759 21.3471 18.7838 24.2093 17.2598C22.1537 20.296 19.6946 23.9154 17.3176 27.4138C16.8745 28.066 16.4343 28.714 16 29.3532V21.6417Z" fill="#13740F"/>
<path d="M16.0022 2.64648L7.79297 14.6979L16.0022 10.3648V2.64648Z" fill="#34B02E"/>
<path d="M16 2.64648L24.2093 14.6979L16 10.3648V2.64648Z" fill="#13740F"/>
<path d="M16.0008 15.9844H8.14387L8.11719 15.9986L16.0008 20.188V15.9844Z" fill="#155812"/>
<path d="M16.0008 15.9845H8.14387L8.11719 15.9702L16.0008 11.7808V15.9845Z" fill="#34B02E"/>
<path d="M16 15.9844H23.8569L23.8836 15.9986L16 20.188V15.9844Z" fill="#0A3D04"/>
<path d="M16 15.9845H23.8569L23.8836 15.9702L16 11.7808V15.9845Z" fill="#13740F"/>
</g>
<defs>
<clipPath id="clip0_1501_3179">
<rect width="32" height="32" fill="white"/>
</clipPath>
</defs>
</svg>
