<svg width="32" height="32" viewBox="0 0 32 32" fill="none" xmlns="http://www.w3.org/2000/svg">
<g clip-path="url(#clip0_1501_2727)">
<path d="M0 16C0 7.16344 7.16344 0 16 0C24.8366 0 32 7.16344 32 16C32 24.8366 24.8366 32 16 32C7.16344 32 0 24.8366 0 16Z" fill="#2D2925"/>
<path d="M13.4071 9.28522C9.36983 10.8426 9.00001 14.831 7.84238 16.6937C6.67103 18.5785 3.98752 19.6184 4.35449 20.5789C4.72145 21.5395 7.40815 20.5078 9.53371 21.1207C11.6341 21.7262 14.5647 24.4417 18.6018 22.8844C20.6585 22.0911 22.1479 20.4582 22.8326 18.524C22.9063 18.3164 22.7686 18.0944 22.5502 18.0739C22.4143 18.0611 22.284 18.1325 22.2227 18.2549C21.6033 19.4948 20.5407 20.5158 19.1499 21.0521C16.8542 21.9376 14.3422 21.2424 12.7994 19.4987C12.449 19.1027 12.1493 18.6518 11.9127 18.1536C11.8477 18.0165 11.7858 17.8772 11.731 17.7331C11.6759 17.5888 11.629 17.4437 11.5859 17.298C12.7994 16.7296 14.1997 16.1276 15.7871 15.5153C17.3435 14.915 18.76 14.4279 20.0213 14.0384C20.8745 13.775 21.6566 13.5559 22.3626 13.3768C22.4136 13.364 22.4641 13.3511 22.5141 13.3387C22.6209 13.312 22.7305 13.3694 22.7702 13.4726L22.7709 13.4745C22.7941 13.5357 22.8141 13.5972 22.8359 13.6588C22.9755 14.0557 23.08 14.4568 23.1493 14.8589C23.1795 15.0348 23.3709 15.1305 23.5277 15.046C24.1072 14.7333 24.6375 14.4283 25.1112 14.1348C26.8766 13.0423 27.8553 12.1158 27.6544 11.5907C27.4539 11.0653 26.1097 11.0351 24.0703 11.41C23.4221 11.5292 22.7035 11.6894 21.9291 11.8877C21.7952 11.922 21.6597 11.9575 21.5226 11.9941C20.871 12.1677 20.1837 12.3667 19.4678 12.5893C18.1368 13.0036 16.7087 13.4998 15.2345 14.0685C13.8553 14.6006 12.5481 15.1524 11.3494 15.7021C11.3347 13.3688 12.7385 11.163 15.0343 10.2774C16.4247 9.74112 17.8944 9.78502 19.1805 10.2903C19.3074 10.3402 19.4519 10.3056 19.5447 10.2047C19.6931 10.0429 19.6475 9.78534 19.4546 9.68025C17.6578 8.70405 15.4638 8.49195 13.4071 9.28522Z" fill="#FAF1E4"/>
</g>
<defs>
<clipPath id="clip0_1501_2727">
<rect width="32" height="32" fill="white"/>
</clipPath>
</defs>
</svg>
