<svg width="32" height="32" viewBox="0 0 32 32" fill="none" xmlns="http://www.w3.org/2000/svg">
<g clip-path="url(#clip0_1501_3166)">
<path d="M32 16C32 7.16344 24.8366 0 16 0C7.16344 0 0 7.16344 0 16C0 24.8366 7.16344 32 16 32C24.8366 32 32 24.8366 32 16Z" fill="white"/>
<path d="M21.4461 13.9521L12.7696 13.9453C10.4038 13.9453 8.43706 15.8161 8.37505 18.2206C8.37312 18.2845 8.4264 18.3378 8.49034 18.3378L17.1669 18.3436C19.5327 18.3446 21.4993 16.4739 21.5613 14.0703C21.5632 14.0063 21.51 13.9531 21.4461 13.9531V13.9521Z" fill="#E61A59"/>
<path d="M25.8444 7.36616L12.7696 7.35938C10.4038 7.35938 8.43706 9.23011 8.37505 11.6347C8.37312 11.6986 8.4264 11.7519 8.49034 11.7519L21.5653 11.7577C23.9311 11.7587 25.8976 9.88793 25.9597 7.48435C25.9617 7.42041 25.9083 7.36616 25.8444 7.36616Z" fill="#E61A59"/>
<path d="M10.9904 24.864C12.183 24.6343 12.9637 23.4813 12.734 22.2886C12.5044 21.096 11.3513 20.3153 10.1587 20.545C8.96607 20.7747 8.18541 21.9277 8.41508 23.1203C8.64475 24.313 9.79777 25.0936 10.9904 24.864Z" fill="#E61A59"/>
</g>
<defs>
<clipPath id="clip0_1501_3166">
<rect width="32" height="32" fill="white"/>
</clipPath>
</defs>
</svg>
