<svg width="32" height="32" viewBox="0 0 32 32" fill="none" xmlns="http://www.w3.org/2000/svg">
<g clip-path="url(#clip0_1395_2422)">
<path d="M16 32C24.8366 32 32 24.8366 32 16C32 7.16344 24.8366 0 16 0C7.16344 0 0 7.16344 0 16C0 24.8366 7.16344 32 16 32Z" fill="white"/>
<path d="M12.4883 7.9447L15.7855 6.04063C15.8794 5.98646 15.9958 5.98646 16.0898 6.04063L24.7795 11.0577C24.8734 11.1118 24.9312 11.2121 24.9321 11.3204L24.9438 14.771C24.9438 14.8803 24.8861 14.9814 24.7912 15.0355L21.4986 16.9369C21.2964 17.0543 21.0426 16.908 21.0418 16.6742L21.031 13.5775C21.031 13.4691 20.9722 13.3689 20.8783 13.3147L12.4883 8.47196C12.2852 8.35458 12.2852 8.06207 12.4883 7.9447Z" fill="#010101"/>
<path d="M10.359 23.5745L7.06274 21.6713C6.96794 21.6171 6.91016 21.5169 6.91016 21.4077V11.3736C6.91016 11.2653 6.96794 11.1651 7.06184 11.11L10.0448 9.37382C10.1396 9.31875 10.2561 9.31875 10.35 9.37382L13.6426 11.2752C13.8448 11.3926 13.8457 11.6842 13.6435 11.8024L10.9675 13.3598C10.8736 13.414 10.8158 13.5142 10.8158 13.6235V23.3117C10.8158 23.5465 10.5621 23.6919 10.359 23.5745Z" fill="#010101"/>
<path d="M24.9423 17.6003V21.4067C24.9423 21.5159 24.8845 21.6161 24.7897 21.6703L16.1 26.6874C16.0061 26.7415 15.8905 26.7415 15.7966 26.6874L12.8019 24.972C12.7071 24.9178 12.6484 24.8167 12.6484 24.7074V20.9056C12.6484 20.6717 12.9012 20.5255 13.1044 20.641L15.7911 22.1804C15.885 22.2345 16.0007 22.2337 16.0946 22.1804L24.4845 17.3358C24.6877 17.2185 24.9414 17.3647 24.9414 17.5994L24.9423 17.6003Z" fill="#010101"/>
</g>
<defs>
<clipPath id="clip0_1395_2422">
<rect width="32" height="32" fill="white"/>
</clipPath>
</defs>
</svg>
