<svg width="32" height="32" viewBox="0 0 32 32" fill="none" xmlns="http://www.w3.org/2000/svg">
<g clip-path="url(#clip0_1395_2416)">
<path d="M32 16C32 7.16344 24.8366 0 16 0C7.16344 0 0 7.16344 0 16C0 24.8366 7.16344 32 16 32C24.8366 32 32 24.8366 32 16Z" fill="#04795B"/>
<path d="M11.6529 17.4493C12.2831 17.4493 12.8648 17.2394 13.3334 16.876L9.4877 13.0317C9.12412 13.4921 8.9141 14.0736 8.9141 14.7115C8.906 16.2218 10.134 17.4493 11.6529 17.4493Z" fill="#EFEFEF"/>
<path d="M23.0911 14.7033C23.0911 14.0734 22.881 13.4919 22.5175 13.0234L18.6719 16.8677C19.1323 17.2311 19.714 17.441 20.3522 17.441C21.8631 17.4492 23.0911 16.2216 23.0911 14.7033Z" fill="#EFEFEF"/>
<path d="M25.0293 10.5278L23.3246 12.2319C23.8901 12.9103 24.2294 13.7664 24.2294 14.7194C24.2294 16.8595 22.4924 18.5959 20.3515 18.5959C19.4062 18.5959 18.5418 18.2567 17.8631 17.6914L15.9968 19.557L14.1306 17.6914C13.4519 18.2567 12.5955 18.5959 11.6422 18.5959C9.50123 18.5959 7.76427 16.8595 7.76427 14.7194C7.76427 13.7744 8.10358 12.9103 8.66912 12.2319L7.79654 11.3597L6.96443 10.5278C5.99494 12.1269 5.4375 13.9925 5.4375 15.9954C5.4375 21.8263 10.1637 26.5428 15.9887 26.5428C21.8138 26.5428 26.5401 21.8183 26.5401 15.9954C26.5562 13.9844 25.9988 12.1188 25.0293 10.5278Z" fill="#EFEFEF"/>
<path d="M23.6338 8.71078C21.7191 6.69984 19.0045 5.43994 15.9991 5.43994C12.9937 5.43994 10.2872 6.69984 8.36434 8.71078C8.10584 8.98538 7.85538 9.2761 7.62109 9.57494L15.991 17.9419L24.361 9.56688C24.1509 9.2761 23.9005 8.97728 23.6338 8.71078ZM15.9991 6.8129C18.4713 6.8129 20.7658 7.76586 22.4866 9.50224L15.9991 15.9874L9.5116 9.50224C11.2405 7.76586 13.5269 6.8129 15.9991 6.8129Z" fill="#EFEFEF"/>
</g>
<defs>
<clipPath id="clip0_1395_2416">
<rect width="32" height="32" fill="white"/>
</clipPath>
</defs>
</svg>
