<svg width="32" height="32" viewBox="0 0 32 32" fill="none" xmlns="http://www.w3.org/2000/svg">
<g clip-path="url(#clip0_1501_2985)">
<path d="M32 16C32 7.16344 24.8366 0 16 0C7.16344 0 0 7.16344 0 16C0 24.8366 7.16344 32 16 32C24.8366 32 32 24.8366 32 16Z" fill="white"/>
<path d="M25.4386 10.5012C23.9853 10.5012 22.5319 10.502 21.0786 10.502C18.7817 10.502 16.4849 10.5029 14.1872 10.502C13.6116 10.502 13.0441 10.555 12.4921 10.7251C11.5395 11.0174 10.7302 11.5312 10.0674 12.277C9.51945 12.8933 9.14166 13.6009 8.9259 14.3947C8.8168 14.7953 8.75329 15.204 8.75166 15.6185C8.74596 17.2745 8.74841 18.9314 8.74759 20.5875C8.74759 20.7919 8.75166 20.7666 8.5644 20.7666C7.75102 20.7666 6.93845 20.7658 6.12507 20.7682C6.03388 20.7682 6.00212 20.7438 6.00294 20.6486C6.00619 18.9681 5.98991 17.2884 6.01108 15.6087C6.03143 13.9526 6.54112 12.448 7.50594 11.1005C8.20941 10.1177 9.09525 9.33935 10.1513 8.75394C10.6984 8.45106 11.2757 8.2182 11.8798 8.05292C11.9287 8.03989 11.9751 8.01873 12.0223 8.00163C16.4645 8.00163 20.906 8.00163 25.3482 8C25.4248 8 25.4419 8.0171 25.4419 8.09363C25.4386 8.89643 25.4402 9.69923 25.4402 10.502L25.4386 10.5012Z" fill="#00CC9B"/>
<path d="M16.8288 22.4928H6V24.9761C7.32985 24.9489 11.5118 24.9761 17.6023 24.9761C23.5866 24.9761 25.5 20.0909 25.5 16.6713V12.1525H14.9969C13.8163 12.1525 13.3278 12.0711 12.1879 12.5596C10.8526 13.3086 10.4645 14.8258 10.4374 15.4907V20.8237H16.8288C17.9687 20.8237 17.8194 20.4708 17.6023 20.2944C16.4353 19.1274 13.971 16.655 13.4499 16.1013C13.1242 15.5477 13.5856 15.2193 13.857 15.1243C14.0334 15.0836 16.0553 15.0266 22.7317 15.1243C22.7317 18.7475 22.691 18.2589 21.9175 19.8466C20.8754 22.1589 18.0908 22.5742 16.8288 22.4928Z" fill="black"/>
</g>
<defs>
<clipPath id="clip0_1501_2985">
<rect width="32" height="32" fill="white"/>
</clipPath>
</defs>
</svg>
