<svg width="32" height="32" viewBox="0 0 32 32" fill="none" xmlns="http://www.w3.org/2000/svg">
<g clip-path="url(#clip0_1351_419)">
<path d="M0 16C0 7.16344 7.16344 0 16 0C24.8366 0 32 7.16344 32 16C32 24.8366 24.8366 32 16 32C7.16344 32 0 24.8366 0 16Z" fill="url(#paint0_linear_1351_419)"/>
<path d="M21.2004 6.85742C20.1561 6.85661 19.154 7.27138 18.4142 8.01068C17.6745 8.74997 17.2575 9.75339 17.2548 10.8007V15.1727C16.8484 15.2003 16.433 15.2177 16.0022 15.2177C15.5715 15.2177 15.158 15.2349 14.7497 15.2594V10.8007C14.7331 9.76247 14.3101 8.77244 13.5721 8.04414C12.834 7.31585 11.8401 6.90766 10.8045 6.90766C9.76903 6.90766 8.77504 7.31585 8.037 8.04414C7.29894 8.77244 6.87599 9.76247 6.85938 10.8007V21.2501C6.87599 22.2883 7.29894 23.2783 8.037 24.0067C8.77504 24.7349 9.76903 25.1431 10.8045 25.1431C11.8401 25.1431 12.834 24.7349 13.5721 24.0067C14.3101 23.2783 14.7331 22.2883 14.7497 21.2501V16.878C15.1561 16.8506 15.5715 16.8332 16.0022 16.8332C16.433 16.8332 16.8465 16.8159 17.2548 16.7915V21.2501C17.2714 22.2883 17.6943 23.2783 18.4324 24.0067C19.1705 24.7349 20.1644 25.1431 21.1999 25.1431C22.2355 25.1431 23.2294 24.7349 23.9675 24.0067C24.7055 23.2783 25.1285 22.2883 25.1451 21.2501V10.8007C25.1423 9.75357 24.7255 8.7503 23.986 8.01103C23.2465 7.27177 22.2447 6.85689 21.2004 6.85742ZM10.804 8.47302C11.4204 8.47275 12.0117 8.71767 12.4482 9.15404C12.8847 9.59042 13.1308 10.1826 13.1324 10.8007V15.4305C11.9781 15.5982 10.851 15.9178 9.78002 16.381C9.31599 16.5851 8.87918 16.8466 8.47969 17.1591V10.8007C8.48131 10.1833 8.7268 9.59174 9.16244 9.15548C9.59807 8.71923 10.1883 8.47383 10.804 8.47302ZM13.1324 21.2501C13.1324 21.8693 12.887 22.4633 12.4505 22.9011C12.0138 23.3389 11.4215 23.5849 10.804 23.5849C10.1865 23.5849 9.59425 23.3389 9.15759 22.9011C8.72094 22.4633 8.47563 21.8693 8.47563 21.2501V20.2019C8.47563 19.2759 9.20705 18.3989 10.4332 17.8529C11.2972 17.4791 12.2037 17.2133 13.1324 17.0614V21.2501ZM21.2004 23.5778C20.5841 23.578 19.9927 23.3331 19.5563 22.8967C19.1197 22.4604 18.8737 21.8682 18.8721 21.2501V16.6203C20.0263 16.4526 21.1535 16.1331 22.2244 15.6699C22.6885 15.4657 23.1253 15.2043 23.5247 14.8916V21.2501C23.5231 21.8675 23.2777 22.459 22.842 22.8954C22.4063 23.3316 21.8162 23.577 21.2004 23.5778ZM21.5713 14.1918C20.7073 14.5655 19.8007 14.8314 18.8721 14.9833V10.8007C18.8721 10.1814 19.1174 9.58759 19.554 9.14973C19.9907 8.71188 20.5829 8.46589 21.2004 8.46589C21.818 8.46589 22.4102 8.71188 22.8469 9.14973C23.2835 9.58759 23.5289 10.1814 23.5289 10.8007V11.8489C23.5289 12.7708 22.7974 13.6478 21.5713 14.1918Z" fill="white"/>
</g>
<defs>
<linearGradient id="paint0_linear_1351_419" x1="2.02666" y1="29.6159" x2="29.8672" y2="1.7759" gradientUnits="userSpaceOnUse">
<stop stop-color="#00AEE9"/>
<stop offset="1" stop-color="#69FABD"/>
</linearGradient>
<clipPath id="clip0_1351_419">
<rect width="32" height="32" fill="white"/>
</clipPath>
</defs>
</svg>
