<?xml version="1.0" encoding="utf-8"?>
<svg viewBox="-42.329 -257.965 659.806 857.001" xmlns="http://www.w3.org/2000/svg">
  <path d="M 589.44 75.832 L 617.477 110.567 L 617.477 155.115 L 611.063 149.663 M 589.44 75.832 L 580.095 123.34 M 589.44 75.832 L 576.667 69.583 M 580.095 123.34 L 611.063 149.663 M 580.095 123.34 L 557.665 116.953 L 545.827 54.493 M 580.095 123.34 L 545.827 54.493 M 611.063 149.663 L 583.988 149.663 L 525.734 105.661 M 467.479 61.657 L 468.88 84.243 L 525.734 105.661 M 467.479 61.657 L 525.734 105.661 M 467.479 61.657 L 418.725 10.101 M 467.479 61.657 L 524.512 12.905 M 467.479 61.657 L 467.479 -27.282 M 545.827 54.493 L 576.667 33.932 M 545.827 54.493 L 576.667 69.583 M 545.827 54.493 L 540.843 36.58 L 538.506 0.943 M 576.667 33.932 L 576.667 69.583 M 576.667 33.932 L 543.646 -3.451 M 543.646 -3.451 L 538.506 0.943 M 543.646 -3.451 L 535.547 -11.706 L 522.774 -73.388 L 514.207 -54.54 L 489.597 -116.689 L 505.173 -30.242 M 538.506 0.943 L 524.512 12.905 M 505.173 -30.242 L 468.88 -90.054 L 464.208 -73.388 L 431.498 -119.804 L 458.133 -43.637 M 505.173 -30.242 L 516.388 7.179 M 458.133 -43.637 L 429.317 -67.157 M 458.133 -43.637 L 467.479 -27.282 M 429.317 -67.157 L 378.85 -90.054 M 429.317 -67.157 L 398.164 -23.544 M 378.85 -90.054 C 378.85 -88.932 358.187 -54.073 347.854 -36.783 M 378.85 -90.054 L 328.773 -90.054 M 278.696 -90.054 L 208.135 -130.396 M 278.696 -90.054 L 293.025 -90.054 M 278.696 -90.054 L 254.553 -79.928 M 208.135 -130.396 L 254.553 -213.885 L 239.288 -257.965 L 228.54 -235.535 M 208.135 -130.396 L 158.292 -119.804 M 208.135 -130.396 L 228.54 -235.535 M 208.135 -130.396 L 187.419 -169.57 M 228.54 -235.535 C 221.228 -236.204 212.163 -237.021 202.528 -237.875 M 228.54 -235.535 L 208.135 -211.939 M 43.028 -193.324 L -42.329 -138.184 L 48.947 -141.612 L 62.81 -138.184 M 43.028 -193.324 L 62.81 -138.184 M 43.028 -193.324 C 43.028 -193.324 90.604 -200.075 121.088 -204.401 M 62.81 -138.184 L 80.878 -113.886 M 62.81 -138.184 C 62.81 -138.184 98.329 -178.542 121.088 -204.401 M 80.878 -113.886 L 67.015 -64.197 M 80.878 -113.886 L 163.588 -141.612 M 80.878 -113.886 L 151.283 -108.116 M 80.878 -113.886 L 121.844 -205.259 M 67.015 -64.197 L 174.18 -73.388 M 67.015 -64.197 L 151.283 -108.116 M 174.18 -73.388 L 208.135 -60.459 M 174.18 -73.388 L 162.61 -107.188 M 208.135 -60.459 L 208.135 -56.254 M 208.135 -60.459 L 271.842 -43.637 M 208.135 -60.459 L 254.553 -79.928 M 208.135 -56.254 L 113.277 -6.566 L 158.292 -6.566 M 208.135 -56.254 L 174.18 -12.952 M 158.292 -6.566 L 70.598 89.695 L 119.663 71.471 M 158.292 -6.566 L 174.18 -12.952 M 119.663 71.471 L 87.42 205.893 L 138.198 154.336 M 119.663 71.471 L 126.984 64.617 M 138.198 154.336 L 175.581 293.275 L 195.207 215.083 M 138.198 154.336 L 142.373 148.729 M 138.198 154.336 L 126.984 64.617 M 195.207 215.083 L 245.674 338.135 L 265.456 309.008 M 195.207 215.083 L 142.373 148.729 M 195.207 215.083 L 202.061 209.342 M 265.456 309.008 L 278.228 280.503 M 265.456 309.008 L 258.253 342.807 M 253.306 366.016 L 225.269 357.916 M 253.306 366.016 L 258.253 342.807 M 253.306 366.016 L 241.001 412.433 M 225.269 357.916 L 216.547 315.861 L 192.715 355.736 M 225.269 357.916 L 192.715 355.736 M 192.715 355.736 L 241.001 412.433 M 241.001 412.433 L 298.321 369.287 M 298.321 369.287 L 302.372 345.144 L 304.864 345.144 M 298.321 369.287 C 297.076 369.287 271.088 351.633 258.253 342.807 M 304.864 345.144 L 307.823 423.648 L 334.926 406.203 M 304.864 345.144 L 307.823 309.008 M 334.926 406.203 L 298.321 471.623 L 334.926 486.576 M 334.926 406.203 L 354.396 388.602 M 334.926 486.576 L 250.035 531.902 L 271.998 545.453 M 334.926 486.576 L 282.434 549.348 M 334.926 486.576 L 343.181 486.576 M 271.998 545.453 L 231.812 553.397 L 175.581 539.846 M 271.998 545.453 L 282.434 549.348 M 175.581 539.846 L 221.064 599.036 M 175.581 539.846 C 168.935 549.712 155.644 569.753 155.644 570.998 M 175.581 539.846 L 140.336 489.847 M 115.301 454.333 L 107.202 430.657 M 115.301 454.333 L 140.336 489.847 M 115.301 454.333 L 107.202 522.245 M 115.301 454.333 C 105.333 454.333 84.616 454.333 81.502 454.333 M 107.202 430.657 C 103.339 430.657 91.012 436.785 85.332 439.848 M 107.202 430.657 L 106.828 412.433 M 81.502 454.333 L 107.202 522.245 M 81.502 454.333 L 85.332 439.848 M 107.202 522.245 L 155.644 570.998 M 155.644 570.998 L 221.064 599.036 M 155.644 570.998 L 140.336 489.847 M 221.064 599.036 L 298.321 576.918 M 221.064 599.036 L 282.434 549.348 M 298.321 576.918 L 367.168 522.245 M 298.321 576.918 L 282.434 549.348 M 298.321 576.918 L 343.181 486.576 M 367.168 522.245 L 399.421 468.196 M 367.168 522.245 L 354.396 388.602 M 367.168 522.245 L 343.181 486.576 M 416.856 352.62 L 413.897 423.648 L 406.576 456.202 L 399.421 468.196 M 416.856 352.62 L 383.679 290.004 M 416.856 352.62 L 375.735 347.948 M 383.679 290.004 L 407.199 276.453 M 383.679 290.004 L 345.751 299.506 M 407.199 276.453 L 345.361 203.869 L 298.321 194.211 M 407.199 276.453 C 365.299 277.802 280.845 280.503 278.228 280.503 M 407.199 276.453 L 202.061 209.342 M 407.199 276.453 L 230.721 185.333 M 298.321 194.211 L 243.649 123.34 M 298.321 194.211 L 230.721 185.333 M 243.649 123.34 L 332.122 84.243 M 243.649 123.34 L 246.141 57.764 M 243.649 123.34 L 202.061 129.881 M 332.122 84.243 L 340.844 113.683 M 332.122 84.243 L 353.305 41.876 M 340.844 113.683 L 298.321 145.302 L 380.875 142.965 M 340.844 113.683 L 380.875 142.965 M 380.875 142.965 C 373.19 109.009 356.919 41.253 353.305 41.876 M 353.305 41.876 C 349.691 42.499 322.1 45.044 308.758 46.237 M 308.758 46.237 L 298.321 26.923 L 312.34 7.764 M 308.758 46.237 L 273.867 4.805 M 308.758 46.237 L 246.141 57.764 M 312.34 7.764 L 353.305 1.067 M 312.34 7.764 L 273.867 4.805 M 353.305 1.067 L 418.725 10.101 M 353.305 1.067 L 347.854 -36.783 M 418.725 10.101 L 398.164 -23.544 M 467.479 -27.282 L 516.388 7.179 M 467.479 -27.282 C 465.859 -27.282 420.594 -24.79 398.164 -23.544 M 524.512 12.905 L 516.388 7.179 M 398.164 -23.544 L 347.854 -36.783 M 347.854 -36.783 L 328.773 -90.054 M 347.854 -36.783 L 310.471 -21.83 M 328.773 -90.054 L 293.025 -90.054 M 310.471 -21.83 L 273.867 4.805 M 310.471 -21.83 L 271.842 -43.637 M 273.867 4.805 L 246.141 57.764 M 273.867 4.805 L 271.842 -43.637 M 246.141 57.764 L 222.621 21.627 M 230.721 185.333 L 202.061 129.881 M 230.721 185.333 L 202.061 209.342 M 202.061 129.881 L 190.378 84.243 M 190.378 84.243 L 222.621 21.627 M 190.378 84.243 L 142.373 148.729 M 222.621 21.627 L 134.305 57.764 M 222.621 21.627 L 174.18 -12.952 M 222.621 21.627 L 271.842 -43.637 M 134.305 57.764 C 134.305 55.521 160.888 9.685 174.18 -12.952 M 134.305 57.764 L 126.984 64.617 M 271.842 -43.637 L 293.025 -90.054 M 278.228 280.503 L 202.061 209.342 M 278.228 280.503 L 307.823 309.008 M 307.823 309.008 L 345.751 299.506 M 307.823 309.008 L 354.396 388.602 M 375.735 347.948 L 345.751 299.506 M 375.735 347.948 L 354.396 388.602 M 375.735 347.948 L 398.539 466.638 M 354.396 388.602 L 398.539 466.638 M 354.396 388.602 L 343.181 486.576 M 399.421 468.196 L 398.539 466.638 M 85.332 439.848 L 95.566 401.14 M 95.566 401.14 L 105.8 362.433 L 106.828 412.433 M 95.566 401.14 L 106.828 412.433 M 158.292 -119.804 L 254.553 -79.928 M 158.292 -119.804 L 163.588 -141.612 M 158.292 -119.804 L 162.61 -107.188 M 163.588 -141.612 L 189.925 -206.72 M 163.588 -141.612 L 187.419 -169.57 M 162.61 -107.188 L 151.283 -108.116 M 202.528 -237.875 L 208.135 -211.939 M 202.528 -237.875 L 189.925 -206.72 M 202.528 -237.875 C 181.838 -239.709 158.519 -241.713 144.274 -242.766 M 208.135 -211.939 L 211.251 -197.529 L 187.419 -169.57 M 189.925 -206.72 C 183.842 -206.588 176.782 -206.436 169.195 -206.273 M 121.844 -205.259 L 144.274 -242.766 M 121.844 -205.259 C 137.374 -205.59 154.298 -205.952 169.195 -206.273 M 121.844 -205.259 L 33.994 -206.72 L 100.192 -239.118 C 109.227 -240.364 128.043 -242.981 131.034 -243.479 C 131.822 -243.611 136.798 -243.319 144.274 -242.766 M 121.844 -205.259 C 121.844 -205.259 121.383 -204.736 121.088 -204.401 M 144.274 -242.766 L 169.195 -206.273" stroke="black" stroke-opacity="0.8" stroke-width="11" style=""/>
</svg>