<svg width="32" height="32" viewBox="0 0 32 32" fill="none" xmlns="http://www.w3.org/2000/svg">
<g clip-path="url(#clip0_1395_2684)">
<path d="M16 32C24.8365 32 32 24.8365 32 16C32 7.16344 24.8365 0 16 0C7.16344 0 0 7.16344 0 16C0 24.8365 7.16344 32 16 32Z" fill="#11171D"/>
<path d="M16.5195 5V10.457L21.2575 7.732L16.5195 5Z" fill="#1BD1AF"/>
<path opacity="0.9" d="M21.2578 7.73193V13.189L25.9947 10.4569L21.2578 7.73193Z" fill="#1BD1AF"/>
<path opacity="0.8" d="M16.5195 10.457V15.9141L21.2575 13.189L16.5195 10.457ZM21.2575 13.189V18.6461L25.9946 15.9141L21.2575 13.189Z" fill="#1BD1AF"/>
<path opacity="0.8" d="M16.5195 15.9141V21.3712L21.2575 18.6462L16.5195 15.9141Z" fill="#1BD1AF"/>
<path d="M21.2578 18.646V24.1031L25.9947 21.3711L21.2578 18.646Z" fill="#1BD1AF"/>
<path opacity="0.4" d="M4.27344 10.2729V15.73L9.01144 12.998L4.27344 10.2729Z" fill="#1BD1AF"/>
<path opacity="0.2" d="M10.25 12.3018V17.7588L14.98 15.0338L10.25 12.3018Z" fill="#1BD1AF"/>
<path opacity="0.3" d="M6.73828 15.7529V21.2098L11.4753 18.4778L6.73828 15.7529Z" fill="#1BD1AF"/>
<path opacity="0.9" d="M9.85938 19.8711V25.3281L14.5894 22.5961L9.85938 19.8711Z" fill="#1BD1AF"/>
<path opacity="0.7" d="M16.4805 22.2202V27.6783L21.2105 24.9451L16.4805 22.2202Z" fill="#1BD1AF"/>
<path opacity="0.9" d="M11.0391 9.60693V15.065L15.769 12.3399L11.0391 9.60693Z" fill="#1BD1AF"/>
<path opacity="0.8" d="M16.5193 5V10.457L11.7812 7.732L16.5193 5Z" fill="#1BD1AF"/>
<path opacity="0.6" d="M11.0398 7.31982V12.7758L6.30078 10.0438L11.0398 7.31982Z" fill="#1BD1AF"/>
<path opacity="0.6" d="M15.777 10.02V15.4781L11.0391 12.745L15.777 10.02Z" fill="#1BD1AF"/>
<path opacity="0.95" d="M10.2302 12.3018V17.7588L5.49219 15.0338L10.2302 12.3018Z" fill="#1BD1AF"/>
<path opacity="0.6" d="M16.5191 15.9141V21.3712L11.7891 18.6462L16.5191 15.9141Z" fill="#1BD1AF"/>
<path opacity="0.55" d="M6.738 17.1851V22.6421L2 19.9091L6.738 17.1851Z" fill="#1BD1AF"/>
<path d="M25.9947 10.457V15.9141L21.2578 13.189L25.9947 10.457Z" fill="#1BD1AF"/>
<path opacity="0.95" d="M21.2575 13.1899V18.6459L16.5195 15.9139L21.2575 13.1899Z" fill="#1BD1AF"/>
<path opacity="0.9" d="M25.9947 15.9141V21.3712L21.2578 18.6462L25.9947 15.9141Z" fill="#1BD1AF"/>
<path opacity="0.7" d="M21.2575 18.646V24.1031L16.5195 21.3711L21.2575 18.646Z" fill="#1BD1AF"/>
<path opacity="0.4" d="M15.4714 20.9199V26.3768L10.7344 23.6519L15.4714 20.9199Z" fill="#1BD1AF"/>
<path d="M21.2575 7.73193V13.189L16.5195 10.4569L21.2575 7.73193Z" fill="#1BD1AF"/>
</g>
<defs>
<clipPath id="clip0_1395_2684">
<rect width="32" height="32" fill="white"/>
</clipPath>
</defs>
</svg>
