<svg width="32" height="32" viewBox="0 0 32 32" fill="none" xmlns="http://www.w3.org/2000/svg">
<g clip-path="url(#clip0_1501_2902)">
<path d="M32 16C32 7.16344 24.8366 0 16 0C7.16344 0 0 7.16344 0 16C0 24.8366 7.16344 32 16 32C24.8366 32 32 24.8366 32 16Z" fill="#FF443F"/>
<path d="M25.1219 25.057C24.8744 25.0847 24.7246 25.1151 24.575 25.1151C23.4926 25.1151 22.41 25.1317 21.3296 25.105C21.1041 25.0924 20.8929 24.9927 20.7422 24.8279C18.5208 22.0029 16.3182 19.1613 14.1044 16.3317C13.8578 16.0186 13.8615 15.8201 14.1129 15.5006C16.3155 12.7015 18.4916 9.88113 20.6942 7.08201C20.8569 6.88951 21.09 6.76746 21.3436 6.74215C22.4553 6.70706 23.5697 6.72369 24.6824 6.72738C24.8276 6.74191 24.9715 6.76785 25.1124 6.80495C25.0014 6.98042 24.9328 7.1097 24.8443 7.22422C22.7107 9.99964 20.5756 12.7726 18.4388 15.5431C18.2187 15.8275 18.2216 16.0141 18.4388 16.2994C20.5838 19.0644 22.7198 21.8349 24.847 24.6109C24.9328 24.7292 24.9948 24.8509 25.1219 25.057Z" fill="white"/>
<path d="M12.3078 15.9419C12.3078 18.8029 12.2966 21.6583 12.3181 24.5164C12.3181 24.9908 12.1643 25.1348 11.7076 25.1191C10.949 25.0914 10.1876 25.0997 9.42708 25.1098C9.10274 25.1098 8.95549 25.025 8.96109 24.666C8.96916 18.8426 8.96916 13.0186 8.96109 7.19395C8.96109 6.84972 9.09623 6.73251 9.42708 6.73251C10.2025 6.74081 10.9797 6.75281 11.757 6.72143C12.223 6.70297 12.3237 6.89401 12.3209 7.31854C12.306 10.1924 12.3134 13.0662 12.3134 15.9401L12.3078 15.9419Z" fill="white"/>
</g>
<defs>
<clipPath id="clip0_1501_2902">
<rect width="32" height="32" fill="white"/>
</clipPath>
</defs>
</svg>
