<svg width="32" height="32" viewBox="0 0 32 32" fill="none" xmlns="http://www.w3.org/2000/svg">
<g clip-path="url(#clip0_1395_2709)">
<path d="M16 32C24.8366 32 32 24.8366 32 16C32 7.16344 24.8366 0 16 0C7.16344 0 0 7.16344 0 16C0 24.8366 7.16344 32 16 32Z" fill="#12192C"/>
<path d="M27.2155 14.4322L26.5755 13.3602L23.0715 7.47216H23.0555L22.9435 7.26416H21.6635L16.6875 16.0162L21.7435 24.7202H23.0235L23.0555 24.6722L27.2315 17.5202H24.6555L22.4315 21.4722L19.2635 16.0002L22.3675 10.5282L24.6235 14.4162L27.2155 14.4322Z" fill="#41E6AF"/>
<path d="M7.74462 13.0081L10.0806 9.02412L9.29662 7.76012L8.75262 6.86412L4.75263 13.9201L4.64062 14.1121L5.28062 15.2321H15.3447L20.4167 6.54412L19.7127 5.32812L12.6727 5.34412H12.5607L11.4407 5.32812L12.0327 6.44813L12.6247 7.56813L17.2327 7.55212L14.0647 13.0081H7.74462Z" fill="#41E6AF"/>
<path d="M12.7206 8.3999C12.5446 8.3999 12.3526 8.4319 12.1606 8.4959C11.9526 8.5599 11.7446 8.6559 11.5526 8.7679C11.0085 9.1039 10.6245 9.5839 10.5605 10.0319C10.5285 10.2399 10.5765 10.4159 10.6885 10.5439C10.7045 10.5759 10.7365 10.5919 10.7525 10.6239C10.7685 10.6399 10.7845 10.6399 10.8005 10.6559C10.8165 10.6719 10.8165 10.6719 10.8325 10.6879C10.8645 10.7039 10.8805 10.7199 10.9125 10.7359C11.2485 10.8959 11.7766 10.8639 12.2886 10.6239L12.3046 10.6079C12.3526 10.5919 12.4006 10.5599 12.4486 10.5439C12.4966 10.5279 12.5286 10.4959 12.5766 10.4639C12.6246 10.4319 12.6726 10.3999 12.7206 10.3679C12.7686 10.3359 12.8006 10.3039 12.8486 10.2719L12.8806 10.2559C12.9126 10.2239 12.9446 10.2079 12.9766 10.1759C12.9926 10.1599 12.9926 10.1599 13.0086 10.1439C13.0406 10.1279 13.0566 10.0959 13.0726 10.0799C13.0886 10.0639 13.1046 10.0479 13.1206 10.0159C13.1366 9.98389 13.1686 9.96789 13.1846 9.93589C13.2006 9.91989 13.2006 9.91989 13.2166 9.90389C13.2326 9.87189 13.2646 9.85589 13.2806 9.8239L13.3126 9.79189C13.3286 9.75989 13.3446 9.74389 13.3606 9.71189C13.3606 9.71189 13.3606 9.71189 13.3606 9.69589L13.3766 9.6639C13.4086 9.6319 13.4246 9.5839 13.4406 9.5519C13.4566 9.5199 13.4726 9.47189 13.4886 9.4399L13.5046 9.4239C13.5046 9.4079 13.5206 9.3919 13.5206 9.3919C13.5206 9.3759 13.5206 9.3759 13.5366 9.3599C13.5366 9.3279 13.5526 9.3119 13.5526 9.2799C13.5526 9.2479 13.5686 9.2479 13.5686 9.2319C13.5686 9.2159 13.5686 9.1999 13.5686 9.1999C13.5686 9.1679 13.5686 9.15189 13.5686 9.13589V9.1039C13.5686 9.0719 13.5686 9.0559 13.5686 9.0239C13.5686 9.0079 13.5686 9.0079 13.5686 8.9919C13.5686 8.9759 13.5686 8.9599 13.5686 8.9599C13.5686 8.9439 13.5686 8.9439 13.5686 8.9279V8.9119C13.5686 8.8799 13.5526 8.8639 13.5366 8.8319C13.5206 8.7999 13.5046 8.7839 13.4886 8.7519C13.3766 8.5119 13.0726 8.3999 12.7206 8.3999Z" fill="#41E6AF"/>
<path d="M13.8871 9.56809C13.8871 9.60009 13.8711 9.61609 13.8551 9.64809C13.8551 9.66409 13.8551 9.66409 13.8391 9.68009C13.8231 9.72809 13.8071 9.76009 13.7751 9.80809C13.5991 10.1441 13.3111 10.4641 12.9591 10.7201C12.9111 10.7521 12.8631 10.7841 12.8151 10.8161C12.7671 10.8481 12.7191 10.8801 12.6711 10.8961H12.6551C12.6391 10.9121 12.6231 10.9121 12.6071 10.9281C12.5751 10.9441 12.5591 10.9601 12.5271 10.9761H12.5111C12.4951 10.9761 12.4791 10.9921 12.4631 10.9921C12.4311 11.0081 12.3991 11.0241 12.3671 11.0241L12.3351 11.0401C12.3351 11.0401 12.3351 11.0401 12.3191 11.0401C12.3031 11.0401 12.2871 11.0561 12.2711 11.0561C12.2391 11.0721 12.2071 11.0721 12.1751 11.0881L12.1431 11.1041H12.1271C12.0951 11.1201 12.0631 11.1201 12.0311 11.1361C12.0151 11.1361 11.9991 11.1521 11.9671 11.1521H11.9511C11.9191 11.1521 11.8871 11.1681 11.8711 11.1681C11.8551 11.1681 11.8231 11.1681 11.8071 11.1841H11.7911C11.7751 11.1841 11.7591 11.1841 11.7431 11.2001C11.7271 11.2001 11.7111 11.2001 11.6951 11.2001C11.6471 11.2001 11.5831 11.2161 11.5351 11.2161H11.5191C11.4711 11.2161 11.4231 11.2161 11.3751 11.2161C11.3591 11.2161 11.3431 11.2161 11.3431 11.2161H11.3271C11.2951 11.2161 11.2631 11.2161 11.2311 11.2001C11.2151 11.2001 11.1991 11.2001 11.1831 11.1841C11.1511 11.1841 11.1191 11.1681 11.0871 11.1681C11.0711 11.1681 11.0551 11.1521 11.0391 11.1521L11.9191 12.5761L13.8071 12.5601L14.7831 10.8321L13.9031 9.39209C13.9031 9.40809 13.9031 9.42409 13.8871 9.44009C13.8871 9.45609 13.8871 9.45609 13.8871 9.47209C13.8871 9.48809 13.8711 9.50409 13.8711 9.53609C13.8871 9.55209 13.8871 9.56809 13.8871 9.56809Z" fill="#41E6AF"/>
<path d="M23.9187 14.768C24.0147 14.912 24.0787 15.088 24.1267 15.296C24.1747 15.504 24.2067 15.728 24.2067 15.952C24.2067 16.592 23.9987 17.168 23.6467 17.456C23.4867 17.584 23.3107 17.648 23.1347 17.616C23.1027 17.616 23.0707 17.6 23.0387 17.6C23.0227 17.6 23.0067 17.584 22.9907 17.584C22.9747 17.584 22.9587 17.568 22.9427 17.568C22.9107 17.552 22.8787 17.536 22.8627 17.52C22.5427 17.312 22.3027 16.848 22.2387 16.288V16.272C22.2387 16.224 22.2227 16.176 22.2227 16.112C22.2227 16.064 22.2227 16.016 22.2227 15.968C22.2227 15.904 22.2227 15.856 22.2227 15.792C22.2227 15.744 22.2227 15.696 22.2387 15.648V15.616C22.2387 15.584 22.2547 15.536 22.2547 15.504C22.2547 15.488 22.2547 15.472 22.2547 15.456C22.2547 15.424 22.2707 15.392 22.2707 15.36C22.2707 15.328 22.2867 15.312 22.2867 15.28C22.3027 15.248 22.3027 15.216 22.3187 15.184C22.3187 15.168 22.3347 15.152 22.3347 15.136C22.3507 15.104 22.3507 15.072 22.3667 15.04L22.3827 14.992C22.3987 14.96 22.4147 14.944 22.4147 14.912C22.4147 14.912 22.4147 14.912 22.4147 14.896L22.4307 14.864C22.4467 14.816 22.4787 14.784 22.4947 14.752C22.5107 14.72 22.5427 14.688 22.5587 14.656L22.5747 14.64C22.5907 14.624 22.5907 14.624 22.6067 14.608C22.6227 14.592 22.6227 14.592 22.6227 14.576C22.6387 14.56 22.6547 14.544 22.6707 14.528C22.6867 14.512 22.7027 14.496 22.7027 14.496C22.7187 14.48 22.7187 14.48 22.7347 14.464C22.7507 14.448 22.7667 14.432 22.7827 14.416L22.8147 14.4C22.8307 14.384 22.8627 14.368 22.8787 14.352C22.8947 14.352 22.8947 14.352 22.9107 14.336C22.9267 14.336 22.9427 14.32 22.9427 14.32C22.9427 14.32 22.9587 14.32 22.9587 14.304H22.9747C23.0067 14.304 23.0227 14.288 23.0547 14.288C23.0867 14.288 23.1187 14.288 23.1507 14.288C23.4867 14.272 23.7267 14.464 23.9187 14.768Z" fill="#41E6AF"/>
<path d="M22.3014 14.384C22.2854 14.4 22.2694 14.432 22.2534 14.448C22.2534 14.464 22.2374 14.464 22.2374 14.48C22.2054 14.512 22.1894 14.56 22.1574 14.592C21.9494 14.912 21.8374 15.328 21.8054 15.76C21.8054 15.824 21.8054 15.872 21.8054 15.936C21.8054 15.984 21.8054 16.048 21.8054 16.096V16.112C21.8054 16.128 21.8054 16.16 21.8054 16.176C21.8054 16.208 21.8054 16.24 21.8214 16.272V16.288C21.8214 16.304 21.8214 16.32 21.8214 16.336C21.8214 16.368 21.8374 16.4 21.8374 16.432V16.464C21.8374 16.464 21.8374 16.464 21.8374 16.48C21.8374 16.496 21.8374 16.512 21.8534 16.528C21.8534 16.56 21.8694 16.592 21.8694 16.624L21.8854 16.656V16.672C21.8854 16.704 21.9014 16.736 21.9174 16.768C21.9174 16.784 21.9334 16.8 21.9334 16.816V16.832C21.9494 16.864 21.9494 16.88 21.9654 16.912C21.9654 16.928 21.9814 16.944 21.9974 16.976V16.992C21.9974 17.008 22.0134 17.024 22.0134 17.04C22.0294 17.056 22.0294 17.072 22.0294 17.072C22.0454 17.12 22.0774 17.168 22.1094 17.216L22.1254 17.232C22.1574 17.28 22.1734 17.312 22.2054 17.344C22.2054 17.36 22.2214 17.36 22.2214 17.376L22.2374 17.392C22.2534 17.424 22.2854 17.44 22.3014 17.472C22.3174 17.488 22.3174 17.504 22.3334 17.504C22.3654 17.536 22.3814 17.552 22.3974 17.584C22.4134 17.6 22.4294 17.6 22.4294 17.616H20.7494L19.7734 16L20.7334 14.272H22.4134C22.3974 14.288 22.3974 14.288 22.3814 14.304L22.3654 14.32C22.3494 14.336 22.3334 14.352 22.3014 14.384Z" fill="#41E6AF"/>
<path d="M12.7206 23.5838C12.5446 23.5838 12.3526 23.5518 12.1606 23.4878C11.9526 23.4238 11.7446 23.3278 11.5526 23.2158C11.0085 22.8798 10.6245 22.3998 10.5605 21.9518C10.5285 21.7438 10.5765 21.5678 10.6885 21.4398C10.7045 21.4078 10.7365 21.3918 10.7525 21.3598C10.7685 21.3438 10.7845 21.3438 10.8005 21.3278C10.8165 21.3118 10.8165 21.3118 10.8325 21.2958C10.8645 21.2798 10.8805 21.2638 10.9125 21.2478C11.2485 21.0878 11.7766 21.1198 12.2886 21.3598L12.3046 21.3758C12.3526 21.3918 12.4006 21.4238 12.4486 21.4398C12.4966 21.4558 12.5286 21.4878 12.5766 21.5198C12.6246 21.5518 12.6726 21.5838 12.7206 21.6158C12.7686 21.6478 12.8006 21.6798 12.8486 21.7118L12.8806 21.7278C12.9126 21.7598 12.9446 21.7758 12.9766 21.8078C12.9926 21.8238 12.9926 21.8238 13.0086 21.8398C13.0406 21.8558 13.0566 21.8878 13.0726 21.9038C13.0886 21.9198 13.1046 21.9358 13.1206 21.9678C13.1366 21.9998 13.1686 22.0158 13.1846 22.0478C13.2006 22.0638 13.2006 22.0638 13.2166 22.0798C13.2326 22.1118 13.2646 22.1278 13.2806 22.1598L13.3126 22.1918C13.3286 22.2238 13.3446 22.2398 13.3606 22.2718V22.2878L13.3766 22.3198C13.4086 22.3518 13.4246 22.3998 13.4406 22.4318C13.4566 22.4638 13.4726 22.5118 13.4886 22.5438L13.5046 22.5598C13.5046 22.5758 13.5206 22.5918 13.5206 22.5918C13.5206 22.6078 13.5206 22.6078 13.5366 22.6238C13.5366 22.6558 13.5526 22.6718 13.5526 22.7038C13.5526 22.7358 13.5686 22.7358 13.5686 22.7518C13.5686 22.7678 13.5686 22.7838 13.5686 22.7838C13.5686 22.8158 13.5686 22.8318 13.5686 22.8478V22.8798C13.5686 22.9118 13.5686 22.9278 13.5686 22.9598C13.5686 22.9758 13.5686 22.9758 13.5686 22.9918C13.5686 23.0078 13.5686 23.0238 13.5686 23.0238C13.5686 23.0398 13.5686 23.0398 13.5686 23.0558V23.0718C13.5686 23.1038 13.5526 23.1198 13.5366 23.1518C13.5206 23.1838 13.5046 23.1998 13.4886 23.2318C13.3766 23.4718 13.0726 23.5998 12.7206 23.5838Z" fill="#41E6AF"/>
<path d="M13.8871 22.4162C13.8871 22.3842 13.8711 22.3682 13.8551 22.3362C13.8551 22.3202 13.8551 22.3202 13.8391 22.3042C13.8231 22.2562 13.8071 22.2242 13.7751 22.1762C13.5991 21.8402 13.3111 21.5202 12.9591 21.2642C12.9111 21.2322 12.8631 21.2002 12.8151 21.1682C12.7671 21.1362 12.7191 21.1042 12.6711 21.0882H12.6551C12.6391 21.0722 12.6231 21.0722 12.6071 21.0562C12.5751 21.0402 12.5591 21.0242 12.5271 21.0082H12.5111C12.4951 21.0082 12.4791 20.9922 12.4631 20.9922C12.4311 20.9762 12.3991 20.9602 12.3671 20.9602L12.3351 20.9442C12.3351 20.9442 12.3351 20.9442 12.3191 20.9442C12.3031 20.9442 12.2871 20.9282 12.2711 20.9282C12.2391 20.9122 12.2071 20.9122 12.1751 20.8962L12.1431 20.8802H12.1271C12.0951 20.8642 12.0631 20.8642 12.0311 20.8482C12.0151 20.8482 11.9991 20.8322 11.9671 20.8322H11.9511C11.9191 20.8322 11.8871 20.8162 11.8711 20.8162C11.8551 20.8162 11.8231 20.8162 11.8071 20.8002H11.7911C11.7751 20.8002 11.7591 20.8002 11.7431 20.7842C11.7271 20.7842 11.7111 20.7842 11.6951 20.7842C11.6471 20.7842 11.5831 20.7682 11.5351 20.7682H11.5191C11.4711 20.7682 11.4231 20.7682 11.3751 20.7682C11.3591 20.7682 11.3431 20.7682 11.3431 20.7682H11.3271C11.2951 20.7682 11.2631 20.7682 11.2311 20.7842C11.2151 20.7842 11.1991 20.7842 11.1831 20.8002C11.1511 20.8002 11.1191 20.8162 11.0871 20.8162C11.0711 20.8162 11.0551 20.8322 11.0391 20.8322L11.9191 19.4082L13.8071 19.4242L14.7831 21.1522L13.9031 22.5922C13.9031 22.5762 13.9031 22.5602 13.8871 22.5442C13.8871 22.5282 13.8871 22.5282 13.8871 22.5122C13.8871 22.4962 13.8711 22.4802 13.8711 22.4482C13.8871 22.4322 13.8871 22.4162 13.8871 22.4162Z" fill="#41E6AF"/>
<path d="M17.2327 24.432L12.6247 24.416L11.9207 25.744L11.4407 26.656L12.6727 26.64V26.656L19.7127 26.672L20.4167 25.456L15.3447 16.768L5.28062 16.752L4.64062 17.872L4.76862 18.08H4.75263L8.75262 25.12L10.0806 22.96L7.74462 18.992H14.0647L17.2327 24.432Z" fill="#41E6AF"/>
</g>
<defs>
<clipPath id="clip0_1395_2709">
<rect width="32" height="32" fill="white"/>
</clipPath>
</defs>
</svg>
