<svg width="32" height="32" viewBox="0 0 32 32" fill="none" xmlns="http://www.w3.org/2000/svg">
<g clip-path="url(#clip0_1395_2449)">
<path d="M16 32C24.8366 32 32 24.8366 32 16C32 7.16344 24.8366 0 16 0C7.16344 0 0 7.16344 0 16C0 24.8366 7.16344 32 16 32Z" fill="white"/>
<path d="M9.58594 20.5864L16.5341 2.30005C17.8852 2.18973 21.3979 2.66413 24.6403 5.44432C20.8685 9.21744 13.0325 17.1112 9.58594 20.5864Z" fill="url(#paint0_linear_1395_2449)"/>
<path d="M12.8964 4.61719L2.30868 15.2085C2.17082 17.1943 2.57337 21.8445 5.28647 24.5585C6.9408 19.991 11.0491 9.36118 12.8964 4.61719Z" fill="url(#paint1_linear_1395_2449)"/>
<path d="M24.81 26.4616C17.6633 32.3529 10.0865 28.9163 7.19141 26.4616L15.9594 17.7734C17.9445 19.7593 22.4939 24.2771 24.81 26.4616Z" fill="url(#paint2_linear_1395_2449)"/>
<path d="M26.4625 24.6411C28.9164 21.745 32.352 14.1657 26.4625 7.0166C24.2788 9.33344 19.7625 13.8843 17.7773 15.8702L26.4625 24.6411Z" fill="url(#paint3_linear_1395_2449)"/>
<mask id="mask0_1395_2449" style="mask-type:alpha" maskUnits="userSpaceOnUse" x="2" y="2" width="28" height="28">
<path d="M9.58594 20.5864L16.5341 2.30005C17.8852 2.18973 21.3979 2.66413 24.6403 5.44432C20.8685 9.21744 13.0325 17.1112 9.58594 20.5864Z" fill="url(#paint4_linear_1395_2449)"/>
<path d="M12.8964 4.6167L2.30868 15.208C2.17082 17.1938 2.57337 21.844 5.28647 24.558C6.9408 19.9905 11.0491 9.36069 12.8964 4.6167Z" fill="url(#paint5_linear_1395_2449)"/>
<path d="M24.8061 26.4616C17.6594 32.3529 10.0826 28.9163 7.1875 26.4616L15.9555 17.7734C17.9406 19.7593 22.49 24.2771 24.8061 26.4616Z" fill="url(#paint6_linear_1395_2449)"/>
<path d="M26.4625 24.6411C28.9164 21.745 32.352 14.1657 26.4625 7.0166C24.2788 9.33344 19.7625 13.8843 17.7773 15.8702L26.4625 24.6411Z" fill="url(#paint7_linear_1395_2449)"/>
</mask>
<g mask="url(#mask0_1395_2449)">
<g filter="url(#filter0_f_1395_2449)">
<path d="M17.6572 19.9759C15.048 22.6588 15.1071 26.9495 17.7891 29.5595C20.471 32.1695 24.7603 32.1105 27.3695 29.4276C29.9786 26.7447 29.9196 22.454 27.2376 19.844C24.5556 17.234 20.2663 17.293 17.6572 19.9759Z" fill="url(#paint8_linear_1395_2449)"/>
</g>
</g>
</g>
<defs>
<filter id="filter0_f_1395_2449" x="14.1875" y="16.3735" width="16.6523" height="16.6562" filterUnits="userSpaceOnUse" color-interpolation-filters="sRGB">
<feFlood flood-opacity="0" result="BackgroundImageFix"/>
<feBlend mode="normal" in="SourceGraphic" in2="BackgroundImageFix" result="shape"/>
<feGaussianBlur stdDeviation="0.775385" result="effect1_foregroundBlur_1395_2449"/>
</filter>
<linearGradient id="paint0_linear_1395_2449" x1="24.6377" y1="5.0285" x2="11.4058" y2="25.9504" gradientUnits="userSpaceOnUse">
<stop stop-color="#FB8C05"/>
<stop offset="0.479167" stop-color="#FE3400"/>
<stop offset="1" stop-color="#B6022F"/>
</linearGradient>
<linearGradient id="paint1_linear_1395_2449" x1="24.6394" y1="5.02881" x2="11.4076" y2="25.9508" gradientUnits="userSpaceOnUse">
<stop stop-color="#FB8C05"/>
<stop offset="0.479167" stop-color="#FE3400"/>
<stop offset="1" stop-color="#B6022F"/>
</linearGradient>
<linearGradient id="paint2_linear_1395_2449" x1="24.6419" y1="5.02875" x2="11.41" y2="25.9507" gradientUnits="userSpaceOnUse">
<stop stop-color="#FB8C05"/>
<stop offset="0.479167" stop-color="#FE3400"/>
<stop offset="1" stop-color="#B6022F"/>
</linearGradient>
<linearGradient id="paint3_linear_1395_2449" x1="24.6401" y1="5.02865" x2="11.4082" y2="25.9506" gradientUnits="userSpaceOnUse">
<stop stop-color="#FB8C05"/>
<stop offset="0.479167" stop-color="#FE3400"/>
<stop offset="1" stop-color="#B6022F"/>
</linearGradient>
<linearGradient id="paint4_linear_1395_2449" x1="24.6377" y1="5.0285" x2="11.4058" y2="25.9504" gradientUnits="userSpaceOnUse">
<stop stop-color="#FB8C05"/>
<stop offset="0.479167" stop-color="#FE3400"/>
<stop offset="1" stop-color="#B6022F"/>
</linearGradient>
<linearGradient id="paint5_linear_1395_2449" x1="24.6394" y1="5.02832" x2="11.4076" y2="25.9503" gradientUnits="userSpaceOnUse">
<stop stop-color="#FB8C05"/>
<stop offset="0.479167" stop-color="#FE3400"/>
<stop offset="1" stop-color="#B6022F"/>
</linearGradient>
<linearGradient id="paint6_linear_1395_2449" x1="24.638" y1="5.02875" x2="11.4061" y2="25.9507" gradientUnits="userSpaceOnUse">
<stop stop-color="#FB8C05"/>
<stop offset="0.479167" stop-color="#FE3400"/>
<stop offset="1" stop-color="#B6022F"/>
</linearGradient>
<linearGradient id="paint7_linear_1395_2449" x1="24.6401" y1="5.02865" x2="11.4082" y2="25.9506" gradientUnits="userSpaceOnUse">
<stop stop-color="#FB8C05"/>
<stop offset="0.479167" stop-color="#FE3400"/>
<stop offset="1" stop-color="#B6022F"/>
</linearGradient>
<linearGradient id="paint8_linear_1395_2449" x1="18.5401" y1="20.8352" x2="8.90435" y2="27.6455" gradientUnits="userSpaceOnUse">
<stop stop-color="#D4016A" stop-opacity="0"/>
<stop offset="1" stop-color="#D4016A"/>
</linearGradient>
<clipPath id="clip0_1395_2449">
<rect width="32" height="32" fill="white"/>
</clipPath>
</defs>
</svg>
