<svg width="32" height="32" viewBox="0 0 32 32" fill="none" xmlns="http://www.w3.org/2000/svg">
<g clip-path="url(#clip0_1501_3351)">
<path d="M32 16C32 7.16344 24.8366 0 16 0C7.16344 0 0 7.16344 0 16C0 24.8366 7.16344 32 16 32C24.8366 32 32 24.8366 32 16Z" fill="black"/>
<path d="M21.9424 25.8865H6.23828V9.17578H9.8314V22.6479H21.9424V25.8848V25.8865Z" fill="white"/>
<path d="M21.9433 12.4132C23.7135 12.4132 25.1485 10.964 25.1485 9.17629C25.1485 7.38864 23.7135 5.93945 21.9433 5.93945C20.1733 5.93945 18.7383 7.38864 18.7383 9.17629C18.7383 10.964 20.1733 12.4132 21.9433 12.4132Z" fill="white"/>
</g>
<defs>
<clipPath id="clip0_1501_3351">
<rect width="32" height="32" fill="white"/>
</clipPath>
</defs>
</svg>
