<svg width="32" height="32" viewBox="0 0 32 32" fill="none" xmlns="http://www.w3.org/2000/svg">
<g clip-path="url(#clip0_1501_3442)">
<path d="M32 16C32 7.16344 24.8366 0 16 0C7.16344 0 0 7.16344 0 16C0 24.8366 7.16344 32 16 32C24.8366 32 32 24.8366 32 16Z" fill="#A5FFBE"/>
<path d="M5.28125 12.6985V12.1602H8.55946V12.6985L7.61361 12.8131C7.60644 13.2866 7.59927 13.7677 7.59212 14.2564C7.59212 14.7375 7.59212 15.2224 7.59212 15.7112V16.41C7.59212 16.8147 7.59212 17.25 7.59212 17.7157C7.59927 18.1816 7.60644 18.655 7.61361 19.1362H9.78475L10.0858 17.5554H10.838L10.7305 19.7547H5.28125V19.2163L6.1841 19.1132C6.19843 18.6321 6.2056 18.1587 6.2056 17.6928C6.2056 17.2194 6.2056 16.7651 6.2056 16.3298V15.7112C6.2056 15.2148 6.2056 14.7261 6.2056 14.2449C6.2056 13.7562 6.19843 13.2751 6.1841 12.8016L5.28125 12.6985Z" fill="#303B33"/>
<path d="M14.1802 19.9151C13.6928 19.9151 13.2522 19.8004 12.8581 19.5713C12.4711 19.3422 12.163 19.0102 11.9337 18.5749C11.7044 18.1396 11.5898 17.6202 11.5898 17.017C11.5898 16.4061 11.708 15.8829 11.9445 15.4476C12.1881 15.0123 12.507 14.6802 12.9011 14.4511C13.2952 14.222 13.7215 14.1074 14.1802 14.1074C14.6387 14.1074 15.065 14.222 15.4592 14.4511C15.8533 14.6802 16.1722 15.0123 16.4158 15.4476C16.6594 15.8753 16.7812 16.3984 16.7812 17.017C16.7812 17.6279 16.663 18.151 16.4265 18.5863C16.1972 19.0139 15.8855 19.3422 15.4913 19.5713C15.1045 19.8004 14.6674 19.9151 14.1802 19.9151ZM14.1802 19.3538C14.567 19.3538 14.8609 19.1629 15.0614 18.7811C15.2693 18.3992 15.3731 17.8149 15.3731 17.0284C15.3731 15.4553 14.9755 14.6687 14.1802 14.6687C13.3919 14.6687 12.9978 15.4553 12.9978 17.0284C12.9978 17.8149 13.0981 18.3992 13.2988 18.7811C13.4994 19.1629 13.7932 19.3538 14.1802 19.3538Z" fill="#303B33"/>
<path d="M20.1997 19.9151C19.7124 19.9151 19.2717 19.8004 18.8777 19.5713C18.4907 19.3422 18.1826 19.0102 17.9534 18.5749C17.724 18.1396 17.6094 17.6202 17.6094 17.017C17.6094 16.4061 17.7276 15.8829 17.964 15.4476C18.2078 15.0123 18.5265 14.6802 18.9207 14.4511C19.3148 14.222 19.7411 14.1074 20.1997 14.1074C20.6583 14.1074 21.0846 14.222 21.4788 14.4511C21.8728 14.6802 22.1917 15.0123 22.4353 15.4476C22.6789 15.8753 22.8007 16.3984 22.8007 17.017C22.8007 17.6279 22.6825 18.151 22.4461 18.5863C22.2168 19.0139 21.9051 19.3422 21.511 19.5713C21.124 19.8004 20.687 19.9151 20.1997 19.9151ZM20.1997 19.3538C20.5866 19.3538 20.8804 19.1629 21.081 18.7811C21.2889 18.3992 21.3927 17.8149 21.3927 17.0284C21.3927 15.4553 20.9951 14.6687 20.1997 14.6687C19.4115 14.6687 19.0175 15.4553 19.0175 17.0284C19.0175 17.8149 19.1177 18.3992 19.3184 18.7811C19.5191 19.1629 19.8128 19.3538 20.1997 19.3538Z" fill="#303B33"/>
<path d="M25.4025 19.9155C24.9726 19.9155 24.6358 19.8009 24.3922 19.5718C24.1486 19.3427 24.0268 18.9762 24.0268 18.4723C24.0268 18.2966 24.0268 18.1324 24.0268 17.9797C24.0339 17.8192 24.0375 17.6284 24.0375 17.4069V14.967H23.2422V14.3714L24.1128 14.2568L24.5212 12.6875H25.3918L25.3488 14.2683H26.6386V14.967H25.3381V18.3463C25.3381 18.6288 25.3882 18.8349 25.4886 18.9647C25.596 19.0946 25.7358 19.1595 25.9077 19.1595C26.1012 19.1595 26.3197 19.064 26.5633 18.8731L26.8213 19.1595C26.6851 19.3962 26.4988 19.5833 26.2624 19.7208C26.0259 19.8507 25.7394 19.9155 25.4025 19.9155Z" fill="#303B33"/>
</g>
<defs>
<clipPath id="clip0_1501_3442">
<rect width="32" height="32" fill="white"/>
</clipPath>
</defs>
</svg>
