<svg width="32" height="32" viewBox="0 0 32 32" fill="none" xmlns="http://www.w3.org/2000/svg">
<g clip-path="url(#clip0_1501_3368)">
<path d="M32 16C32 7.16344 24.8366 0 16 0C7.16344 0 0 7.16344 0 16C0 24.8366 7.16344 32 16 32C24.8366 32 32 24.8366 32 16Z" fill="white"/>
<path d="M27.2337 9.45649C27.2533 9.46798 27.2696 9.48433 27.281 9.50393C27.2923 9.52354 27.2983 9.54571 27.2983 9.56826V22.3691C27.2983 22.4035 27.2891 22.4374 27.2716 22.4674C27.2541 22.4974 27.229 22.5225 27.1987 22.5401L16.2697 28.8476C16.212 28.8808 16.1465 28.8983 16.0801 28.8983C16.0138 28.8983 15.9486 28.8808 15.8913 28.8476L4.9205 22.5186C4.89723 22.5054 4.87787 22.4863 4.86438 22.4631C4.85089 22.4399 4.84377 22.4135 4.84375 22.3866V9.56287C4.84372 9.54199 4.8493 9.52141 4.85994 9.50321C4.87058 9.485 4.8859 9.46982 4.90434 9.45918L15.9789 3.06686C16.0107 3.04842 16.047 3.03883 16.0838 3.03907C16.1207 3.0393 16.157 3.04936 16.1888 3.0682L27.2337 9.45649ZM26.9644 9.62616L16.1122 3.36984C16.0946 3.35968 16.0745 3.35433 16.0542 3.35433C16.0338 3.35433 16.014 3.35968 15.9964 3.36984L5.17367 9.62212C5.15526 9.63228 5.13992 9.64726 5.12926 9.66551C5.1186 9.68375 5.11301 9.70458 5.11307 9.72581V22.2304C5.113 22.2574 5.12007 22.2839 5.13354 22.3073C5.14702 22.3307 5.16643 22.3502 5.18982 22.3637L16.0043 28.6106C16.022 28.6208 16.042 28.6261 16.0624 28.6261C16.0827 28.6261 16.1026 28.6208 16.1202 28.6106L26.9495 22.3597C26.9737 22.3457 26.9937 22.3256 27.0076 22.3012C27.0216 22.2769 27.0289 22.2492 27.029 22.221V9.73793C27.029 9.71504 27.0231 9.69262 27.0117 9.67298C27.0004 9.65334 26.984 9.63718 26.9644 9.62616Z" fill="#192646"/>
<path d="M19.5544 10.0987L19.4058 10.1847C19.3575 10.213 19.3213 10.2467 19.3024 10.2808L16.1266 15.9656L9.25781 16.0238L12.6289 10.0784C12.6505 10.0403 12.6822 10.0087 12.7205 9.9867C12.7589 9.96471 12.8026 9.95312 12.8473 9.95313C15.082 9.95313 17.2672 9.95313 19.4029 9.95313C19.4825 9.95313 19.533 10.0017 19.5544 10.0987Z" fill="#26408B"/>
<path d="M19.5489 10.0977L22.8573 15.8961C22.868 15.9152 22.8737 15.9369 22.8737 15.9591C22.8737 15.9812 22.868 16.0031 22.8573 16.0228C21.7633 18.0002 20.6479 19.9656 19.5111 21.9187C19.4858 21.9634 19.4553 21.9901 19.4193 21.9988C19.3776 22.0105 19.3339 22.0095 19.2883 21.9959C19.363 21.8804 19.3538 21.7459 19.2606 21.5926C18.4306 20.2112 17.3841 18.3351 16.1211 15.9645L19.297 10.2797C19.3159 10.2456 19.3521 10.212 19.4004 10.1836L19.5489 10.0977Z" fill="#1C3166"/>
<path d="M16.1266 15.9648C17.3895 18.3355 18.436 20.2115 19.266 21.5929C19.3592 21.7463 19.3684 21.8807 19.2937 21.9963L12.8196 22.0021C12.782 22.002 12.7449 21.992 12.7122 21.9731C12.6795 21.9542 12.6523 21.9271 12.6332 21.8943L9.25781 16.0231L16.1266 15.9648Z" fill="#142142"/>
</g>
<defs>
<clipPath id="clip0_1501_3368">
<rect width="32" height="32" fill="white"/>
</clipPath>
</defs>
</svg>
