<svg width="32" height="32" viewBox="0 0 32 32" fill="none" xmlns="http://www.w3.org/2000/svg">
<g clip-path="url(#clip0_1501_3361)">
<path d="M32 16C32 7.16344 24.8366 0 16 0C7.16344 0 0 7.16344 0 16C0 24.8366 7.16344 32 16 32C24.8366 32 32 24.8366 32 16Z" fill="black"/>
<path d="M16.0312 27.5531L16.0328 23.5999C15.6345 23.5999 15.2331 23.5681 14.8402 23.5053L14.2269 27.4105C14.8217 27.5051 15.4279 27.5531 16.0312 27.5531ZM17.8357 27.4121C18.432 27.3175 19.0245 27.1756 19.5977 26.9888L18.3881 23.2278C18.0106 23.351 17.6192 23.4448 17.2255 23.5069L17.8357 27.4121ZM12.4641 26.9865L13.6768 23.2262C13.2985 23.103 12.9279 22.948 12.5743 22.7666L10.7884 26.2881C11.3253 26.564 11.8893 26.7989 12.4641 26.9865ZM21.2726 26.2927C21.8104 26.0175 22.3305 25.6967 22.819 25.3393L20.5069 22.1426C20.1856 22.3782 19.8435 22.5891 19.4899 22.7697L21.2726 26.2927ZM9.24276 25.3331L11.5573 22.1379C11.2375 21.9038 10.9324 21.6403 10.6489 21.3558L7.86828 24.1494L7.87058 24.1518C8.29741 24.5812 8.75893 24.9789 9.24276 25.3331ZM24.175 24.1758L24.1989 24.151C24.6242 23.7231 25.0187 23.2596 25.3715 22.7735L22.1965 20.4442C21.9638 20.7651 21.7026 21.0721 21.4206 21.3566L21.3814 21.3969L22.7173 22.6658L24.175 24.1758ZM6.69256 22.7658L9.86914 20.4388C9.63494 20.1156 9.42537 19.7714 9.24507 19.4156L5.74413 21.2101C6.01764 21.7504 6.33661 22.2744 6.69256 22.7658ZM26.3215 21.2178C26.5958 20.6775 26.8291 20.1101 27.0163 19.5319L23.2789 18.311C23.1565 18.6916 23.0023 19.0644 22.8221 19.4202L26.3215 21.2178ZM5.05149 19.5233L8.78975 18.3056C8.66723 17.9258 8.57401 17.532 8.51159 17.1359L4.63005 17.7514C4.72404 18.3513 4.86581 18.9466 5.05149 19.5233ZM27.4387 17.7599C27.5326 17.1615 27.5804 16.5506 27.5812 15.9445L23.6518 15.9422C23.6518 16.3429 23.6203 16.7467 23.5578 17.1429L27.4387 17.7599ZM8.41837 15.936C8.41837 15.5352 8.44997 15.1306 8.51159 14.7352L4.63005 14.1198C4.53605 14.7182 4.48906 15.329 4.48828 15.9352H8.41762L8.41837 15.936ZM23.5594 14.7414L27.441 14.1283C27.3477 13.5283 27.206 12.9322 27.0211 12.3555L23.2821 13.571C23.4046 13.9516 23.4978 14.3453 23.5594 14.7414ZM8.78975 13.5663C8.91224 13.1857 9.06632 12.8121 9.24585 12.4563L5.7449 10.6611C5.47139 11.2013 5.23794 11.7687 5.05149 12.347L8.78975 13.5663ZM22.8267 12.4617L26.3292 10.6696C26.0557 10.1285 25.7367 9.60529 25.3815 9.11385L22.2034 11.4393C22.4368 11.7625 22.6464 12.1059 22.8267 12.4617ZM9.87069 11.4331C10.1042 11.1106 10.3661 10.8021 10.6497 10.5177L10.6574 10.5099L7.87905 7.7147L7.87136 7.72245C7.44453 8.15189 7.04851 8.61776 6.69487 9.10532L9.87069 11.4331ZM21.4345 10.5316L22.2735 9.67041L24.205 7.72786L24.1989 7.72167C23.7744 7.29456 23.3144 6.89847 22.8321 6.54422L20.5161 9.73783C20.8351 9.97195 21.1394 10.2339 21.4206 10.5177L21.4345 10.5316ZM11.5665 9.72931C11.8878 9.49444 12.2299 9.28359 12.5835 9.10299L10.803 5.57916C10.2652 5.85434 9.7451 6.17447 9.25665 6.53182L11.5665 9.72931ZM19.4999 9.10918L21.2881 5.58923C20.7511 5.31328 20.1879 5.07763 19.6131 4.89005L18.3981 8.64953C18.7764 8.77354 19.147 8.9278 19.5006 9.10996L19.4999 9.10918ZM13.6868 8.64489C14.0651 8.5224 14.4565 8.4286 14.8494 8.36659L14.2415 4.46062C13.646 4.55441 13.0527 4.69626 12.4795 4.88307L13.6868 8.64489ZM17.2355 8.36893L17.8503 4.46371C17.2556 4.36915 16.6484 4.32031 16.0459 4.32031L16.0421 8.27357C16.4404 8.27357 16.8418 8.30614 17.2355 8.36893Z" fill="white"/>
<path d="M16.036 23.7754V19.8022C15.7041 19.8022 15.3729 19.7586 15.0527 19.6737L14.0274 23.5121C14.6818 23.6866 15.3573 23.7754 16.036 23.7754ZM18.0446 23.5121C18.7014 23.3368 19.3333 23.0758 19.9207 22.7362L17.9324 19.2959C17.6464 19.461 17.3395 19.588 17.02 19.6729L18.0446 23.5121ZM12.1504 22.7354L14.1395 19.2959C13.8544 19.1307 13.5903 18.9274 13.3534 18.6913L13.3168 18.6555L12.0616 19.9767L10.5213 21.478L10.5438 21.4998C11.0253 21.9813 11.5653 22.3965 12.1504 22.7354ZM21.5281 21.5014C22.0088 21.0191 22.4249 20.4792 22.763 19.8949L19.3239 17.9052C19.1587 18.1904 18.9554 18.4545 18.7193 18.6905L21.5281 21.5014ZM9.30424 19.8864L12.7465 17.9013C12.5813 17.6154 12.4551 17.3085 12.3701 16.9883L8.52978 18.0096C8.7043 18.6664 8.9653 19.2982 9.30424 19.8864ZM23.5406 18.0198C23.7151 17.3653 23.804 16.6899 23.8047 16.0113L19.8312 16.0098C19.8312 16.3425 19.7875 16.6735 19.7018 16.9937L23.5406 18.0198ZM12.2423 16.0051C12.2423 15.6725 12.286 15.3413 12.3725 15.0212L8.53444 13.9928C8.35914 14.6472 8.26953 15.3227 8.26953 16.0012L12.2423 16.0051ZM19.7026 15.0258L23.5422 14.0029C23.3669 13.3462 23.1058 12.7144 22.7669 12.127L19.3255 14.1136C19.4907 14.3995 19.6177 14.7064 19.7026 15.0258ZM12.7503 14.1089C12.9132 13.8276 13.1142 13.5667 13.3464 13.3329L13.3565 13.3228L11.9354 11.9018L10.5688 10.4925L10.5438 10.5166C10.0639 10.9965 9.64938 11.5349 9.31202 12.1176L12.7503 14.1089ZM18.7217 13.3275L20.1288 11.9205L21.5647 10.5525L21.5289 10.5159C21.0489 10.036 20.509 9.62072 19.9254 9.28261L17.9347 12.7214C18.216 12.8842 18.4778 13.0852 18.7115 13.3173L18.7217 13.3275ZM14.1419 12.719C14.4271 12.5539 14.734 12.4277 15.0542 12.342L14.032 8.5028C13.3744 8.67807 12.7433 8.93828 12.1551 9.27794L14.1419 12.719ZM17.0224 12.3435L18.05 8.50513C17.3956 8.32983 16.72 8.24101 16.0414 8.24023L16.0391 12.2134C16.3718 12.2134 16.7022 12.2578 17.0224 12.3435Z" fill="white"/>
</g>
<defs>
<clipPath id="clip0_1501_3361">
<rect width="32" height="32" fill="white"/>
</clipPath>
</defs>
</svg>
