<svg width="32" height="32" viewBox="0 0 32 32" fill="none" xmlns="http://www.w3.org/2000/svg">
<g clip-path="url(#clip0_1501_3175)">
<path d="M32 16C32 7.16344 24.8366 0 16 0C7.16344 0 0 7.16344 0 16C0 24.8366 7.16344 32 16 32C24.8366 32 32 24.8366 32 16Z" fill="white"/>
<path fill-rule="evenodd" clip-rule="evenodd" d="M28.204 14.4792C28.2612 14.9614 28.293 15.453 28.293 15.9526C28.293 22.7296 22.7925 28.225 16.0059 28.225C11.0643 28.225 6.80562 25.3115 4.85408 21.1103L6.81991 20.1222C8.40779 23.6066 11.9234 26.0284 16.0059 26.0284C21.5762 26.0284 26.0937 21.5179 26.0937 15.9526C26.0937 15.8495 26.0921 15.7464 26.089 15.6433L28.204 14.4792ZM16.0059 3.68018C21.1808 3.68018 25.6094 6.87597 27.4196 11.4008L25.3172 12.0701C23.7961 8.43338 20.1995 5.87679 16.0059 5.87679C10.4355 5.87679 5.918 10.3873 5.918 15.9526C5.918 16.0208 5.91956 16.0906 5.92115 16.1588L3.86325 17.8399C3.76798 17.2246 3.71875 16.5949 3.71875 15.9526C3.72034 9.17407 9.22081 3.68018 16.0059 3.68018Z" fill="#010F36"/>
<path fill-rule="evenodd" clip-rule="evenodd" d="M2.32031 20.8593L14.3375 11.042L13.8389 15.1243L20.8526 11.1546L20.4969 15.0307L29.6972 12.1046L17.2195 18.9688L18.1516 15.0625L10.9426 19.2828L11.4189 16.2869L2.32031 20.8593Z" fill="#010F36"/>
</g>
<defs>
<clipPath id="clip0_1501_3175">
<rect width="32" height="32" fill="white"/>
</clipPath>
</defs>
</svg>
