<svg width="32" height="32" viewBox="0 0 32 32" fill="none" xmlns="http://www.w3.org/2000/svg">
<g clip-path="url(#clip0_1351_461)">
<g clip-path="url(#clip1_1351_461)">
<path d="M16 32C24.8366 32 32 24.8366 32 16C32 7.16344 24.8366 0 16 0C7.16344 0 0 7.16344 0 16C0 24.8366 7.16344 32 16 32Z" fill="#0062F9"/>
<path d="M15.0944 7.04277C15.5862 6.79564 16.3346 6.79564 16.8264 7.04277L21.8449 9.56448C22.1449 9.71523 22.3079 9.94082 22.334 10.1729H22.3377V22.9042C22.3253 23.1511 22.1604 23.3946 21.8449 23.5546L16.8264 26.099C16.3346 26.3483 15.5862 26.3483 15.0944 26.099L10.076 23.5546C9.75523 23.392 9.60131 23.1399 9.59369 22.889L9.59439 22.9042H9.59307V10.1729H9.59509C9.61422 9.93811 9.76959 9.71839 10.0759 9.56448L15.0944 7.04277ZM10.355 17.2666V22.8494L15.0944 25.2396C15.368 25.3799 15.6523 25.5167 15.9296 25.5271L15.9604 25.5277C16.2116 25.5285 16.4562 25.4193 16.7029 25.3035L16.7918 25.2617L21.5758 22.8291V17.316L16.8826 19.6687C16.3988 19.9112 15.6672 19.9157 15.1742 19.6821L15.1466 19.6687L10.355 17.2666ZM8.79145 22.639C8.79145 23.1235 8.8509 23.4419 8.96892 23.6662C9.06675 23.8521 9.21353 23.9942 9.48154 24.1671L9.49684 24.1769C9.55565 24.2145 9.62044 24.2538 9.69931 24.3001L9.79232 24.354L10.0779 24.5173L9.66829 25.1587L9.34863 24.9759L9.2949 24.9446C9.20247 24.8906 9.12587 24.8442 9.05441 24.7985C8.29058 24.3108 8.00571 23.779 8.00009 22.6727L8 22.639H8.79145ZM16.3811 13.8898V19.0547C16.4289 19.0408 16.4733 19.024 16.5128 19.0042L21.5432 16.4824C21.5485 16.4798 21.5535 16.4772 21.5583 16.4746L21.5625 16.4722L21.5546 16.468L21.5432 16.462L16.5128 13.9403C16.4733 13.9205 16.4289 13.9037 16.3811 13.8898ZM15.619 13.8988C15.5822 13.9107 15.5478 13.9246 15.5163 13.9403L10.486 16.462C10.4807 16.4647 10.4757 16.4673 10.4709 16.4699L10.4666 16.4722L10.4745 16.4765L10.486 16.4824L15.5163 19.0042C15.5478 19.0199 15.5822 19.0338 15.619 19.0457V13.8988ZM10.355 11.0541V15.6777L14.9612 13.3686L10.355 11.0541ZM21.5758 11.0491L17.0135 13.3415L21.5758 15.6285V11.0491ZM16.4575 7.70728C16.1965 7.57614 15.7243 7.57614 15.4633 7.70728L10.4448 10.229C10.4396 10.2316 10.4345 10.2343 10.4298 10.2368L10.4255 10.2392L10.4334 10.2435L10.4448 10.2494L15.4633 12.7711C15.7243 12.9022 16.1965 12.9022 16.4575 12.7711L21.4759 10.2494C21.4812 10.2467 21.4862 10.2441 21.491 10.2415L21.4953 10.2392L21.4874 10.2349L21.4759 10.229L16.4575 7.70728ZM22.3317 7.98468L22.6514 8.16754L22.7051 8.19879C22.7975 8.25283 22.8741 8.29926 22.9456 8.34489C23.7094 8.83266 23.9943 9.36445 23.9999 10.4707L24 10.5044H23.2085C23.2085 10.02 23.1491 9.70154 23.0311 9.47722C22.9333 9.29129 22.7865 9.1492 22.5185 8.9763L22.5032 8.96648C22.4443 8.92892 22.3796 8.88957 22.3007 8.84333L22.2077 8.78938L21.9221 8.62612L22.3317 7.98468Z" fill="white"/>
<g clip-path="url(#clip2_1351_461)">
<path d="M16 32C24.8366 32 32 24.8366 32 16C32 7.16344 24.8366 0 16 0C7.16344 0 0 7.16344 0 16C0 24.8366 7.16344 32 16 32Z" fill="#313042"/>
<path d="M12.6999 23.5199C12.8655 23.1503 13.0487 22.7943 13.1759 22.4199C13.2135 22.3095 13.1255 22.1223 13.0415 22.0087C12.3695 21.1023 12.1231 20.1007 12.3335 18.9895C12.3514 18.898 12.3766 18.8082 12.4087 18.7207C12.4379 18.6608 12.472 18.6033 12.5103 18.5487C13.3431 19.3535 13.5623 20.3503 13.6439 21.4407C13.9071 20.9607 14.1839 20.4807 14.4199 19.9823C14.4599 19.8983 14.3471 19.7199 14.2727 19.6063C13.5935 18.5663 13.4447 17.4695 13.8839 16.2079C14.7079 17.0343 14.8919 18.0087 14.9583 19.0807C15.2487 18.6463 15.5495 18.2183 15.8207 17.7719C15.8639 17.7007 15.7895 17.5471 15.7495 17.4383C15.3623 16.3775 15.4111 15.3471 15.9551 14.3495C16.0159 14.2375 16.0999 14.1383 16.2039 13.9879C16.7247 14.8879 16.7143 15.7863 16.5159 16.7079L16.6343 16.7631C16.8207 16.4431 17.0687 16.1503 17.1815 15.8095C17.5927 14.5607 18.3663 13.6495 19.5583 13.0991C19.7415 13.029 19.9285 12.9692 20.1183 12.9199C20.096 13.1056 20.0621 13.2897 20.0167 13.4711C19.6287 14.6631 18.8751 15.5559 17.7279 16.0519C17.2319 16.2671 16.9655 16.6383 16.6879 17.0671C17.6079 16.6671 18.5351 16.4119 19.6119 16.7767C19.4087 16.9647 19.2631 17.1327 19.0871 17.2567C18.2879 17.8399 17.3895 18.0799 16.4087 17.9119C16.1199 17.8623 15.9671 17.9423 15.8247 18.1751C15.5847 18.5711 15.3207 18.9535 15.0887 19.3943C16.1191 18.9671 17.1439 18.7543 18.3223 19.2487C17.9983 19.4711 17.7623 19.6759 17.4919 19.8087C16.7242 20.2031 15.8382 20.3008 15.0031 20.0831C14.7703 20.0239 14.6367 20.0463 14.5231 20.2719C14.2831 20.7583 14.0143 21.2319 13.7799 21.7655C14.8023 21.2671 15.8319 20.9831 16.9287 21.3807L17.0623 21.5519C16.9223 21.6204 16.7864 21.6968 16.6551 21.7807C15.7959 22.3879 14.8519 22.6311 13.8151 22.4207C13.5327 22.3623 13.4007 22.4407 13.3015 22.6951C12.9535 23.5895 12.6015 24.4823 12.2303 25.3671C12.0767 25.7343 11.8687 26.0783 11.6919 26.4367C11.5607 26.7015 11.4023 26.7567 11.1207 26.6135C8.02147 25.0559 5.91427 22.6463 5.01267 19.2895C3.40147 13.2895 6.75027 7.2095 12.6975 5.4159C19.6087 3.3295 26.2815 7.9391 27.2799 14.6031C28.0799 19.9575 25.0399 25.1119 20.0191 26.9735C19.7327 27.0791 19.4591 27.2191 19.1799 26.9167C18.9007 26.6143 18.9807 26.3279 19.0999 25.9943C19.4999 24.8535 19.8999 23.7095 20.2631 22.5543C20.4855 21.8503 20.6871 21.6607 21.4383 21.5943C22.1159 21.5359 22.7935 21.4759 23.4655 21.3799C24.0767 21.2927 24.2607 21.0551 24.2655 20.4407C24.2782 20.2799 24.2659 20.1179 24.2295 19.9607C24.1431 19.6823 24.2231 19.4663 24.4103 19.2695C24.5975 19.0727 24.6359 18.9055 24.4215 18.6847C24.3527 18.6135 24.3535 18.3559 24.4215 18.2903C24.6751 18.0503 24.6407 17.8183 24.4703 17.5783C24.2895 17.3239 24.3431 17.1495 24.5951 16.9879C24.7729 16.8689 24.9405 16.7351 25.0959 16.5879C25.3959 16.3111 25.3695 16.1335 25.0487 15.8855C24.5351 15.4855 24.0263 15.0855 23.5335 14.6599C23.2135 14.3871 23.1167 14.0199 23.2215 13.6071C23.3919 12.9383 23.1935 12.3591 22.8447 11.7855C22.5522 11.2972 22.2966 10.7878 22.0799 10.2615C21.7399 9.4455 21.1999 8.8519 20.3311 8.6447C19.5167 8.4511 18.6879 8.3159 17.8623 8.1751C17.3023 8.0783 16.7279 8.0287 16.1639 7.9351C14.6327 7.6863 13.3015 8.1055 12.1103 9.0783C11.757 9.35971 11.3752 9.60317 10.9711 9.8047C10.6456 9.95544 10.3828 10.2148 10.2279 10.5383C10.0794 10.83 9.85918 11.0792 9.58787 11.2623C8.98387 11.6623 8.38787 12.0391 7.97987 12.6719C7.84627 12.8807 7.57507 13.0079 7.35427 13.1519C6.71987 13.5695 6.50147 14.0735 6.73827 14.7999C6.89253 15.2529 6.91774 15.7399 6.81107 16.2063C6.74012 16.5844 6.73065 16.9715 6.78307 17.3527C6.83907 17.8535 7.14467 18.2135 7.61667 18.3927C7.97187 18.5263 8.14787 18.7575 8.19907 19.1255C8.26947 19.6311 8.52307 20.0175 8.89667 20.3855C9.24381 20.7476 9.52245 21.1696 9.71907 21.6311C9.96547 22.1775 10.2943 22.5543 10.8751 22.7567C11.4255 22.9479 11.9447 23.2303 12.4751 23.4695C12.5486 23.4921 12.6238 23.509 12.6999 23.5199Z" fill="#00DACC"/>
</g>
</g>
</g>
<defs>
<clipPath id="clip0_1351_461">
<rect width="32" height="32" fill="white"/>
</clipPath>
<clipPath id="clip1_1351_461">
<rect width="32" height="32" fill="white"/>
</clipPath>
<clipPath id="clip2_1351_461">
<rect width="32" height="32" fill="white"/>
</clipPath>
</defs>
</svg>
