<svg width="32" height="32" viewBox="0 0 32 32" fill="none" xmlns="http://www.w3.org/2000/svg">
<g clip-path="url(#clip0_1501_2906)">
<path d="M32 16C32 7.16344 24.8366 0 16 0C7.16344 0 0 7.16344 0 16C0 24.8366 7.16344 32 16 32C24.8366 32 32 24.8366 32 16Z" fill="black"/>
<path d="M26.9436 13.6445L28.7215 16.7443L19.3596 22.1909C19.3596 22.1909 13.6294 25.6822 9.50781 18.48L12.4228 16.784C12.4228 16.784 14.3162 21.0029 17.6001 19.0872C20.8839 17.1717 26.9436 13.6445 26.9436 13.6445Z" fill="white"/>
<path d="M5.21539 18.4628L3.4375 15.3632L12.9991 9.80676C12.9991 9.80676 18.7318 6.31546 22.8534 13.511L19.9372 15.2031C19.9372 15.2031 18.0438 10.9842 14.7599 12.8998C11.4759 14.8155 5.21539 18.4628 5.21539 18.4628Z" fill="white"/>
<path d="M16.2616 18.3875C16.724 18.3878 17.1761 18.2499 17.5606 17.9912C17.9453 17.7324 18.2449 17.3648 18.4221 16.9344C18.599 16.5041 18.6454 16.0305 18.5553 15.5735C18.4653 15.1166 18.2425 14.6969 17.9157 14.3675C17.5888 14.038 17.1721 13.8137 16.7185 13.7229C16.2651 13.6321 15.7951 13.6789 15.368 13.8573C14.9408 14.0356 14.5758 14.3377 14.3191 14.7251C14.0624 15.1126 13.9255 15.5681 13.9258 16.0339C13.9261 16.658 14.1723 17.2564 14.6103 17.6977C15.0483 18.139 15.6423 18.3872 16.2616 18.3875Z" fill="#FF931E"/>
<path d="M8.01021 22.0616C8.25141 22.0613 8.48711 21.989 8.68754 21.8538C8.88796 21.7186 9.04412 21.5266 9.13623 21.3019C9.22836 21.0775 9.25233 20.8303 9.20511 20.592C9.15791 20.3536 9.04162 20.1347 8.87097 19.9631C8.70031 19.7912 8.48298 19.6744 8.24639 19.6271C8.0098 19.5797 7.7646 19.6042 7.5418 19.6971C7.31897 19.7903 7.12852 19.9479 6.99455 20.1499C6.8606 20.352 6.78906 20.5895 6.78906 20.8325C6.7889 20.9941 6.82036 21.1541 6.88169 21.3034C6.94302 21.4527 7.03298 21.5883 7.14642 21.7024C7.25988 21.8167 7.39457 21.9072 7.54279 21.9688C7.69102 22.0304 7.84986 22.0619 8.01021 22.0616Z" fill="white"/>
<path d="M24.298 12.5876C24.5396 12.5879 24.7757 12.516 24.9768 12.381C25.1778 12.2459 25.3344 12.0538 25.4271 11.8291C25.5197 11.6043 25.544 11.3568 25.4972 11.1181C25.4501 10.8793 25.334 10.66 25.1632 10.4878C24.9925 10.3156 24.7749 10.1983 24.5381 10.1507C24.3012 10.1031 24.0556 10.1274 23.8324 10.2205C23.6092 10.3136 23.4183 10.4713 23.284 10.6736C23.1498 10.876 23.0781 11.1139 23.0781 11.3573C23.078 11.5188 23.1095 11.6788 23.1706 11.828C23.2319 11.9773 23.3218 12.113 23.4351 12.2272C23.5484 12.3415 23.6828 12.4321 23.8309 12.494C23.9789 12.5558 24.1376 12.5876 24.298 12.5876Z" fill="white"/>
</g>
<defs>
<clipPath id="clip0_1501_2906">
<rect width="32" height="32" fill="white"/>
</clipPath>
</defs>
</svg>
