<svg width="32" height="32" viewBox="0 0 32 32" fill="none" xmlns="http://www.w3.org/2000/svg">
<g clip-path="url(#clip0_1351_585)">
<path d="M16 32C24.8366 32 32 24.8366 32 16C32 7.16344 24.8366 0 16 0C7.16344 0 0 7.16344 0 16C0 24.8366 7.16344 32 16 32Z" fill="url(#paint0_linear_1351_585)"/>
<path d="M5.23271 17.2168C5.25957 17.1764 5.28418 17.1351 5.31328 17.0964C5.34544 17.0511 5.3867 17.0129 5.43442 16.9843C5.48215 16.9558 5.5353 16.9374 5.59049 16.9304C5.64569 16.9234 5.70173 16.9281 5.75505 16.944C5.80837 16.9599 5.85779 16.9866 5.90021 17.0226C5.94303 17.0585 5.97811 17.1026 6.00333 17.1524C6.02854 17.2024 6.04334 17.2568 6.04685 17.3126C6.05035 17.3682 6.04249 17.4241 6.02373 17.4768C6.00496 17.5294 5.97569 17.5776 5.9377 17.6185C5.89818 17.6604 5.85021 17.6936 5.79695 17.7156C5.7437 17.7378 5.68637 17.7483 5.62873 17.7466C5.57111 17.7449 5.51449 17.7311 5.46262 17.7059C5.41075 17.6807 5.36481 17.6448 5.32783 17.6006C5.29257 17.5592 5.26291 17.5122 5.23047 17.468L5.23271 17.2168Z" fill="#E0157B"/>
<path d="M17.9854 13.9002H11.7916C11.3803 13.9002 11.288 13.8073 11.2975 13.3928C11.3535 10.2192 13.7035 7.47139 16.8306 6.96111C19.1878 6.57672 21.2217 7.25765 22.8734 8.97817C23.979 10.1291 24.5715 11.5296 24.6683 13.1303C24.6767 13.2624 24.6963 13.395 24.6918 13.5265C24.6834 13.7592 24.557 13.8817 24.3247 13.8991C24.2689 13.903 24.2129 13.8991 24.157 13.8991L17.9854 13.9002Z" fill="#53CAC7"/>
<path d="M17.9875 15.8945H10.4503C10.3803 15.8945 10.3104 15.8945 10.241 15.8945C10.0055 15.8793 9.84543 15.716 9.84376 15.4933C9.84208 15.2706 10.0043 15.1016 10.2354 15.0848C10.3048 15.0788 10.3747 15.0821 10.4447 15.0821H25.536C25.6196 15.0786 25.7034 15.081 25.7867 15.0894C25.8833 15.1048 25.9709 15.1546 26.0337 15.2297C26.0963 15.3048 26.1298 15.4 26.1277 15.4978C26.1257 15.5957 26.0883 15.6894 26.0226 15.7617C25.9568 15.8342 25.8671 15.8804 25.7699 15.8917C25.7002 15.8968 25.6304 15.8983 25.5607 15.8961L17.9875 15.8945Z" fill="#E0147B"/>
<path d="M17.0767 18.7723H23.7485C23.8181 18.7694 23.8878 18.7713 23.9572 18.7779C24.0512 18.7915 24.1378 18.8369 24.2024 18.9067C24.267 18.9764 24.3056 19.0664 24.3119 19.1612C24.3141 19.256 24.2844 19.3488 24.2276 19.4246C24.1708 19.5005 24.0901 19.5552 23.9985 19.5797C23.9165 19.5953 23.8329 19.6012 23.7495 19.5977C19.3006 19.5977 14.8519 19.5977 10.4034 19.5977C10.3407 19.6002 10.2779 19.5989 10.2154 19.5937C10.1104 19.5809 10.0139 19.5296 9.94451 19.4497C9.87516 19.3697 9.83789 19.2669 9.83992 19.1612C9.84668 19.0594 9.89067 18.9635 9.96352 18.8921C10.0364 18.8205 10.133 18.7784 10.2349 18.7734C10.2971 18.7684 10.3603 18.7734 10.4229 18.7734L17.0767 18.7723Z" fill="#E0147B"/>
<path d="M12.77 16.9253C14.6261 16.9253 16.482 16.9253 18.3378 16.9253C18.7049 16.9253 18.9163 17.1871 18.7949 17.4848C18.769 17.554 18.7245 17.6147 18.6663 17.6602C18.608 17.7055 18.5383 17.734 18.4648 17.7422C18.3955 17.7495 18.3258 17.7517 18.2561 17.749C14.5931 17.749 10.93 17.749 7.26662 17.749C7.17635 17.7522 7.08599 17.7447 6.99749 17.7266C6.9061 17.7021 6.82605 17.6467 6.77109 17.5696C6.71613 17.4926 6.68968 17.3989 6.69631 17.3045C6.70293 17.2101 6.74219 17.121 6.80735 17.0524C6.87252 16.9838 6.95954 16.94 7.05344 16.9286C7.12304 16.923 7.19293 16.9214 7.2627 16.9242L12.77 16.9253Z" fill="#E0147B"/>
<path d="M20.6223 20.6199H26.1056C26.1543 20.6199 26.2036 20.6171 26.2522 20.6199C26.4878 20.6384 26.6556 20.8007 26.6634 21.0155C26.6712 21.2304 26.4905 21.4178 26.2556 21.4402C26.1934 21.4464 26.1302 21.443 26.0676 21.443H15.0193C14.7183 21.4385 14.5224 21.2695 14.5274 21.0194C14.5326 20.7694 14.716 20.6194 15.0154 20.6194C16.8853 20.619 18.7543 20.6192 20.6223 20.6199Z" fill="#E0147B"/>
<path d="M20.6825 23.287C19.545 23.287 18.4075 23.287 17.2695 23.287C17.0882 23.287 16.9371 23.2361 16.838 23.0817C16.8045 23.0283 16.7842 22.9677 16.7788 22.9049C16.7733 22.8421 16.7831 22.7789 16.8071 22.7206C16.8311 22.6623 16.8687 22.6105 16.9167 22.5697C16.9647 22.5288 17.0217 22.5001 17.0832 22.4858C17.1722 22.4694 17.2628 22.4629 17.3533 22.4662H24.0116C24.053 22.4662 24.0951 22.4662 24.137 22.4662C24.3988 22.4824 24.5735 22.6525 24.5667 22.8831C24.56 23.1136 24.3697 23.2831 24.1157 23.2837C23.1595 23.287 22.2039 23.2837 21.2476 23.2837L20.6825 23.287Z" fill="#E0147B"/>
<path d="M16.413 24.3185H19.8008C20.1181 24.3185 20.2994 24.4669 20.2988 24.7231C20.2988 24.9681 20.0946 25.1416 19.7981 25.1416C17.5398 25.1416 15.2814 25.1416 13.0228 25.1416C12.9468 25.1465 12.8704 25.1353 12.799 25.1086C12.5932 25.0191 12.4862 24.8439 12.5227 24.6464C12.559 24.4489 12.7123 24.3197 12.9434 24.3191C13.8146 24.3163 14.6863 24.3191 15.5574 24.3191L16.413 24.3185Z" fill="#E0147B"/>
<path d="M10.6137 20.6198C11.4653 20.6198 12.3165 20.6198 13.1674 20.6198C13.244 20.6186 13.3205 20.6242 13.3962 20.6366C13.5864 20.6706 13.6849 20.7987 13.709 20.9811C13.722 21.0613 13.7088 21.1433 13.6711 21.2152C13.6335 21.2871 13.5735 21.3447 13.5003 21.3795C13.4067 21.427 13.3024 21.4491 13.1976 21.4439H8.02762C7.92264 21.4513 7.81759 21.4306 7.72324 21.384C7.5621 21.2934 7.47537 21.1552 7.50615 20.9689C7.5148 20.8846 7.55156 20.8056 7.61053 20.7447C7.66949 20.6838 7.74723 20.6446 7.83123 20.6331C7.90009 20.6227 7.96975 20.6184 8.03937 20.6203L10.6137 20.6198Z" fill="#E0147B"/>
<path d="M8.78171 19.5972C8.70009 19.596 8.62064 19.5708 8.55343 19.5244C8.48621 19.4781 8.43424 19.413 8.40411 19.3371C8.37399 19.2612 8.36705 19.1781 8.38419 19.0983C8.40133 19.0184 8.44176 18.9455 8.50038 18.8887C8.55899 18.8319 8.63314 18.7938 8.71345 18.7791C8.79375 18.7645 8.87659 18.7741 8.95147 18.8066C9.02635 18.839 9.08991 18.893 9.1341 18.9616C9.17829 19.0302 9.2011 19.1104 9.19967 19.192C9.19522 19.3003 9.14937 19.4027 9.07159 19.4781C8.99381 19.5535 8.89003 19.5962 8.78171 19.5972Z" fill="#E0167C"/>
<path d="M9.20199 15.4967C9.19651 15.6044 9.14902 15.7056 9.06971 15.7788C8.99041 15.8518 8.88561 15.8908 8.77784 15.8875C8.67007 15.884 8.56792 15.8386 8.49333 15.7607C8.41874 15.6829 8.37767 15.5788 8.37893 15.471C8.38441 15.3634 8.43191 15.2621 8.51121 15.1891C8.59051 15.1159 8.69531 15.077 8.80308 15.0803C8.91085 15.0837 9.013 15.1292 9.08759 15.207C9.16218 15.285 9.20324 15.389 9.20199 15.4967Z" fill="#E0157C"/>
<path d="M16.135 22.8788C16.1344 22.9323 16.1232 22.9851 16.1022 23.0344C16.0811 23.0835 16.0506 23.1281 16.0123 23.1655C15.9741 23.2028 15.9288 23.2323 15.8792 23.2522C15.8295 23.2721 15.7765 23.282 15.723 23.2813C15.6695 23.2808 15.6166 23.2696 15.5674 23.2485C15.5183 23.2275 15.4737 23.197 15.4363 23.1587C15.399 23.1204 15.3695 23.0752 15.3496 23.0256C15.3297 22.9759 15.3198 22.9228 15.3203 22.8693C15.3235 22.7637 15.3671 22.6634 15.4421 22.5891C15.517 22.5147 15.6177 22.4721 15.7232 22.4698C15.7774 22.4688 15.8312 22.4786 15.8814 22.4987C15.9317 22.5188 15.9774 22.5489 16.0158 22.5871C16.0542 22.6252 16.0846 22.6707 16.105 22.7209C16.1255 22.7709 16.1357 22.8247 16.135 22.8788Z" fill="#E0157B"/>
<path d="M11.8749 24.7232C11.8749 24.777 11.8644 24.8304 11.8437 24.8801C11.8231 24.9299 11.7929 24.975 11.7548 25.0131C11.7167 25.0513 11.6716 25.0814 11.6217 25.102C11.572 25.1227 11.5187 25.1332 11.4648 25.1332C11.4109 25.1332 11.3576 25.1227 11.3079 25.102C11.2581 25.0814 11.2129 25.0513 11.1748 25.0131C11.1367 24.975 11.1065 24.9299 11.0859 24.8801C11.0653 24.8304 11.0547 24.777 11.0547 24.7232C11.0547 24.6144 11.0979 24.51 11.1748 24.4331C11.2517 24.3562 11.356 24.313 11.4648 24.313C11.5736 24.313 11.6779 24.3562 11.7548 24.4331C11.8317 24.51 11.8749 24.6144 11.8749 24.7232Z" fill="#E0157B"/>
<path d="M6.85709 21.0316C6.85463 21.1406 6.80991 21.2445 6.73235 21.3212C6.65479 21.3979 6.55046 21.4415 6.44138 21.4428C6.3326 21.4428 6.22828 21.3996 6.15136 21.3227C6.07446 21.2458 6.03125 21.1414 6.03125 21.0326C6.03125 20.9239 6.07446 20.8196 6.15136 20.7427C6.22828 20.6658 6.3326 20.6226 6.44138 20.6226C6.55039 20.6228 6.65496 20.6658 6.73267 20.7422C6.81038 20.8187 6.85504 20.9226 6.85709 21.0316Z" fill="#E0167C"/>
</g>
<defs>
<linearGradient id="paint0_linear_1351_585" x1="16" y1="0" x2="16" y2="32" gradientUnits="userSpaceOnUse">
<stop stop-color="#1D2549"/>
<stop offset="1" stop-color="#0F1126"/>
</linearGradient>
<clipPath id="clip0_1351_585">
<rect width="32" height="32" fill="white"/>
</clipPath>
</defs>
</svg>
