<svg width="32" height="32" viewBox="0 0 32 32" fill="none" xmlns="http://www.w3.org/2000/svg">
<g clip-path="url(#clip0_1351_442)">
<path d="M16 32C24.8366 32 32 24.8366 32 16C32 7.16344 24.8366 0 16 0C7.16344 0 0 7.16344 0 16C0 24.8366 7.16344 32 16 32Z" fill="#0E122F"/>
<path d="M8.379 15.8259C8.18531 14.3824 8.25395 12.9879 8.81732 11.6423C9.79932 9.2978 11.503 7.74359 13.9529 7.10751C17.6641 6.14318 21.4345 8.0365 22.9023 11.6002C23.4582 12.9492 23.5466 14.3389 23.359 15.7613C23.3285 15.9008 23.2486 16.0246 23.134 16.1099C21.7911 17.1028 20.3015 17.3012 18.6985 16.9411C17.747 16.7283 17.0069 16.1541 16.2465 15.6118C15.5418 15.1095 14.8153 14.6502 13.959 14.4768C12.2709 14.1371 10.6583 14.2893 9.20197 15.3046C8.9614 15.4723 8.71924 15.6381 8.47549 15.8021C8.44443 15.814 8.41202 15.8219 8.379 15.8259Z" fill="#F2B705"/>
<path d="M19.8794 19.0628C18.8114 19.0215 17.7783 18.6716 16.9048 18.0556C16.2898 17.616 15.6816 17.1369 15.0021 16.8202C13.2072 15.9823 11.4179 16.042 9.70129 17.088C9.36151 17.2919 9.04958 17.5364 8.71862 17.7519C8.44679 17.9259 8.20758 17.8879 8.07234 17.6581C7.9269 17.4074 8.01118 17.2055 8.23205 17.0417C9.25753 16.284 10.3211 15.6187 11.6299 15.4617C13.1454 15.2796 14.5793 15.4773 15.8848 16.3139C16.4081 16.6489 16.9158 17.0077 17.4267 17.3611C18.985 18.4383 21.2202 18.4613 22.8009 17.4135C22.9701 17.3013 23.1352 17.1817 23.3065 17.0737C23.5383 16.9249 23.7679 16.9215 23.9263 17.1688C24.0758 17.404 24.0078 17.6153 23.7863 17.7892C22.7085 18.6333 21.4893 19.0689 19.8794 19.0628Z" fill="#57C8C4"/>
<path d="M12.5991 22.2437C12.5991 20.8289 12.5991 19.4138 12.5991 17.9984C12.5991 17.874 12.5658 17.7192 12.6256 17.6328C12.7241 17.4888 12.8811 17.3039 13.0232 17.293C13.1651 17.2821 13.3575 17.4432 13.4527 17.5804C13.5321 17.6953 13.5206 17.8856 13.5206 18.0426C13.5206 20.8388 13.5182 23.6353 13.5131 26.432C13.5131 26.6107 13.5288 26.8208 13.4451 26.9594C13.3616 27.098 13.1529 27.2427 13.0123 27.2312C12.8716 27.2196 12.7268 27.0307 12.6283 26.8914C12.5739 26.8139 12.6066 26.6719 12.6066 26.5591C12.6066 25.1211 12.6066 23.6832 12.6066 22.2451L12.5991 22.2437Z" fill="#57C8C4"/>
<path d="M19.1135 22.6294C19.1135 23.3531 19.1135 24.0769 19.1135 24.8041C19.1135 25.1927 18.953 25.3878 18.6547 25.3851C18.3829 25.3851 18.2001 25.1771 18.1994 24.8244C18.1939 23.3655 18.1939 21.9063 18.1994 20.4466C18.1994 19.9933 18.5487 19.733 18.8695 19.9518C18.9986 20.0402 19.0985 20.2617 19.1039 20.4275C19.1278 21.1581 19.1135 21.8941 19.1135 22.6294Z" fill="#57C8C4"/>
<path d="M10.7161 20.0802C10.7161 19.435 10.7161 18.7904 10.7161 18.1461C10.7125 18.0325 10.7182 17.9189 10.7331 17.8062C10.7766 17.544 10.9275 17.3509 11.1993 17.355C11.4609 17.3592 11.5785 17.5691 11.6295 17.8069C11.641 17.8742 11.6454 17.9426 11.6424 18.0108C11.6424 19.4129 11.6465 20.8155 11.6424 22.2181C11.6424 22.5973 11.4671 22.8298 11.2027 22.8352C10.9207 22.84 10.7216 22.5994 10.7182 22.2168C10.7107 21.5045 10.7182 20.7897 10.7182 20.0795L10.7161 20.0802Z" fill="#57C8C4"/>
<path d="M20.0658 22.4259C20.0658 21.8143 20.0658 21.2026 20.0658 20.5951C20.0658 20.2553 20.2575 20.0453 20.5341 20.0514C20.7985 20.0589 20.9752 20.2553 20.9765 20.5869C20.9819 21.8523 20.9819 23.1181 20.9765 24.3844C20.9765 24.6868 20.7985 24.8602 20.5225 24.8649C20.2466 24.8697 20.0699 24.693 20.0658 24.3892C20.0584 23.7341 20.0658 23.0783 20.0658 22.4225V22.4259Z" fill="#57C8C4"/>
<path d="M15.3795 20.1502C15.3795 20.6367 15.3842 21.1233 15.3795 21.6099C15.374 21.985 15.198 22.2079 14.9214 22.212C14.6564 22.2161 14.4599 21.9857 14.4573 21.6119C14.45 20.6152 14.4523 19.6185 14.4641 18.6218C14.4689 18.229 14.6523 18.0251 14.933 18.0387C15.2137 18.0523 15.374 18.2718 15.3788 18.6503C15.3835 19.1539 15.3795 19.652 15.3795 20.1502Z" fill="#57C8C4"/>
<path d="M9.76361 20.4229C9.76361 20.9326 9.76973 21.4422 9.76361 21.9519C9.75749 22.3032 9.58013 22.5147 9.31101 22.5228C9.0419 22.5309 8.85773 22.3339 8.85365 21.9662C8.84414 20.9359 8.84595 19.9055 8.85909 18.8748C8.86317 18.5269 9.03646 18.3502 9.31168 18.3576C9.56993 18.3644 9.73642 18.5615 9.76157 18.8946C9.76157 18.9285 9.76157 18.9624 9.76157 18.9965C9.76361 19.4722 9.76293 19.9471 9.76361 20.4229Z" fill="#57C8C4"/>
<path d="M22.8795 20.9073C22.8795 21.1669 22.8869 21.4265 22.8795 21.6855C22.868 21.9791 22.6567 22.2088 22.4127 22.2128C22.1687 22.2169 21.9648 22.0028 21.9601 21.6903C21.9532 21.1602 21.9601 20.63 21.9601 20.1007C21.9601 19.8051 22.1075 19.625 22.4085 19.625C22.7096 19.625 22.8578 19.8098 22.87 20.1007C22.8816 20.3725 22.87 20.6443 22.87 20.9121L22.8795 20.9073Z" fill="#57C8C4"/>
<path d="M17.2208 20.0478C17.2208 20.194 17.2317 20.3407 17.2208 20.4862C17.2192 20.5403 17.207 20.5935 17.1848 20.6429C17.1627 20.6923 17.131 20.7367 17.0916 20.7739C17.0523 20.811 17.0059 20.8399 16.9553 20.8591C16.9047 20.8783 16.8509 20.8875 16.7967 20.8857C16.5467 20.8933 16.3619 20.7438 16.3441 20.478C16.3213 20.1641 16.3229 19.8491 16.3489 19.5355C16.3707 19.2976 16.5317 19.1535 16.7852 19.1583C17.0387 19.163 17.1929 19.2942 17.2188 19.5403C17.2291 19.7093 17.2297 19.8788 17.2208 20.0478Z" fill="#57C8C4"/>
</g>
<defs>
<clipPath id="clip0_1351_442">
<rect width="32" height="32" fill="white"/>
</clipPath>
</defs>
</svg>
