<svg width="32" height="32" viewBox="0 0 32 32" fill="none" xmlns="http://www.w3.org/2000/svg">
<g clip-path="url(#clip0_1501_2811)">
<path d="M32 16C32 7.16344 24.8366 0 16 0C7.16344 0 0 7.16344 0 16C0 24.8366 7.16344 32 16 32C24.8366 32 32 24.8366 32 16Z" fill="white"/>
<path d="M12.4734 8.16064H10.3633C10.2176 8.16064 10.0875 8.25186 10.0375 8.38884L4.49111 23.6076C4.44987 23.7209 4.53362 23.8406 4.654 23.8406H6.76411C6.90984 23.8406 7.03991 23.7494 7.0899 23.6126L12.6363 8.39368C12.6776 8.28045 12.5938 8.16064 12.4734 8.16064ZM15.04 14.5374C14.9846 14.3853 14.7697 14.3853 14.7142 14.5374L13.6202 17.5395C13.5922 17.6163 13.5922 17.7006 13.6202 17.7774L15.7468 23.6125C15.7967 23.7494 15.9268 23.8405 16.0726 23.8405H18.1827C18.3031 23.8405 18.3868 23.7207 18.3456 23.6075L15.04 14.5374ZM20.4192 17.4758C20.4746 17.6279 20.6895 17.6279 20.7449 17.4758L24.0547 8.39368C24.096 8.28045 24.0122 8.16064 23.8919 8.16064H21.7818C21.636 8.16064 21.5059 8.25174 21.456 8.38884L19.3251 14.2358C19.2971 14.3126 19.2971 14.3967 19.3251 14.4735L20.4192 17.4758ZM16.2586 8.38723C16.2092 8.25116 16.08 8.16064 15.9354 8.16064H13.8182C13.6726 8.16064 13.5425 8.25174 13.4924 8.38872L7.94618 23.6076C7.90494 23.7209 7.98868 23.8406 8.10907 23.8406H10.2193C10.365 23.8406 10.4951 23.7495 10.5451 23.6126L14.7915 11.9602C14.8194 11.8837 14.9274 11.8837 14.9552 11.9602L19.2017 23.6126C19.2516 23.7495 19.3818 23.8406 19.5275 23.8406H21.6378C21.7582 23.8406 21.8419 23.7208 21.8007 23.6077L16.2586 8.38723ZM27.347 8.16064H25.2366C25.091 8.16064 24.9608 8.25174 24.911 8.38872L21.0526 18.9759C21.0246 19.0527 21.0246 19.137 21.0526 19.2138L22.1467 22.2161C22.2022 22.3681 22.417 22.3681 22.4723 22.2161L26.2919 11.7357L27.5098 8.39357C27.5511 8.28045 27.4673 8.16064 27.347 8.16064Z" fill="#EF8220"/>
</g>
<defs>
<clipPath id="clip0_1501_2811">
<rect width="32" height="32" fill="white"/>
</clipPath>
</defs>
</svg>
