<svg width="32" height="32" viewBox="0 0 32 32" fill="none" xmlns="http://www.w3.org/2000/svg">
<g clip-path="url(#clip0_1501_3436)">
<path d="M16 32C24.8366 32 32 24.8366 32 16C32 7.16344 24.8366 0 16 0C7.16344 0 0 7.16344 0 16C0 24.8366 7.16344 32 16 32Z" fill="#17181D"/>
<path d="M8.79281 15.9987L8.80435 20.2295L12.3992 22.3449V24.8218L6.7005 21.4795V14.7615L8.79281 15.9987ZM8.79281 11.7679V14.2333L6.69922 12.9949V10.5295L8.79281 9.29102L10.8966 10.5295L8.79281 11.7679ZM13.9005 10.5295L15.994 9.29102L18.0979 10.5295L15.994 11.7679L13.9005 10.5295Z" fill="#F1B90C"/>
<path d="M10.3086 19.3526V16.8756L12.4022 18.1141V20.5795L10.3086 19.3526ZM13.9035 23.232L15.9971 24.4705L18.1009 23.232V25.6974L15.9971 26.9359L13.9035 25.6974V23.232ZM21.1035 10.5295L23.1971 9.29102L25.3009 10.5295V12.9949L23.1971 14.2333V11.7679L21.1035 10.5295ZM23.1971 20.2295L23.2086 15.9987L25.3022 14.7602V21.4782L19.6035 24.8205V22.3436L23.1971 20.2295Z" fill="#F1B90C"/>
<path d="M21.6952 19.3539L19.6016 20.5808V18.1154L21.6952 16.877V19.3539Z" fill="#F1B90C"/>
<path d="M21.6958 12.6458L21.7073 15.1228L18.1022 17.2381V21.4792L16.0086 22.7061L13.915 21.4792V17.2381L10.3099 15.1228V12.6458L12.4124 11.4074L15.9958 13.533L19.6009 11.4074L21.7047 12.6458H21.6958ZM10.3086 8.41635L15.9971 5.0625L21.6958 8.41635L19.6022 9.65481L15.9971 7.52917L12.4022 9.65481L10.3086 8.41635Z" fill="#F1B90C"/>
</g>
<defs>
<clipPath id="clip0_1501_3436">
<rect width="32" height="32" fill="white"/>
</clipPath>
</defs>
</svg>
