<svg width="32" height="32" viewBox="0 0 32 32" fill="none" xmlns="http://www.w3.org/2000/svg">
<g clip-path="url(#clip0_1351_410)">
<path d="M16 32C24.8366 32 32 24.8366 32 16C32 7.16344 24.8366 0 16 0C7.16344 0 0 7.16344 0 16C0 24.8366 7.16344 32 16 32Z" fill="white"/>
<mask id="mask0_1351_410" style="mask-type:alpha" maskUnits="userSpaceOnUse" x="0" y="0" width="32" height="32">
<path d="M16 32C24.8366 32 32 24.8366 32 16C32 7.16344 24.8366 0 16 0C7.16344 0 0 7.16344 0 16C0 24.8366 7.16344 32 16 32Z" fill="white"/>
</mask>
<g mask="url(#mask0_1351_410)">
<path d="M11.5588 12.679C11.2801 12.7058 10.9827 12.7889 10.7429 12.9054C9.89487 13.3194 9.29202 14.3282 9.0549 15.7268C8.94774 16.3619 8.90754 17.1563 8.96113 17.5796C9.06965 18.4465 9.4635 18.9663 10.1387 19.1311C10.4307 19.2022 10.8568 19.2048 11.1756 19.1364C12.2593 18.9074 13.0284 17.9132 13.3405 16.3364C13.3887 16.0899 13.4503 15.6371 13.4838 15.278C13.5173 14.9016 13.5147 14.3938 13.4758 14.154C13.4075 13.7226 13.2601 13.385 13.0337 13.1385C12.8221 12.9067 12.5421 12.7594 12.1991 12.6991C12.0558 12.6736 11.7236 12.663 11.5588 12.679Z" fill="#FE0420"/>
<path d="M19.6988 13.9771C19.8285 13.2762 19.93 12.7274 19.9336 12.7152C19.9404 12.6938 19.9992 12.6924 20.9343 12.6924C21.5774 12.6924 21.9712 12.6978 22.0489 12.7071C22.3678 12.746 22.6532 12.8813 22.8326 13.077C22.9667 13.223 23.0537 13.3824 23.1086 13.5834C23.1435 13.7079 23.1488 14.0576 23.1207 14.2412C23.0028 14.9955 22.4615 15.5272 21.6457 15.692C21.3912 15.743 21.2384 15.7484 20.2832 15.739L19.375 15.7296L19.3817 15.6948C19.3857 15.676 19.5103 15.0021 19.6576 14.1996L19.6988 13.9771Z" fill="#FE0420"/>
<path fill-rule="evenodd" clip-rule="evenodd" d="M15.4586 -4.56872C14.3225 -4.52986 13.3607 -4.43207 12.3371 -4.24852C8.77095 -3.60947 5.41108 -2.0152 2.65138 0.345395C2.19723 0.733916 1.97619 0.938893 1.45774 1.45736C0.822739 2.09374 0.439595 2.51709 -0.0534 3.13336C-2.65771 6.38353 -4.20903 10.3143 -4.51447 14.4406C-4.57074 15.2003 -4.58682 16.3364 -4.55198 16.9928C-4.44883 18.8685 -4.15277 20.5216 -3.6169 22.2191C-2.87071 24.5851 -1.65162 26.8719 -0.104308 28.8065C0.719585 29.8381 1.68146 30.8309 2.67147 31.6763C5.97642 34.495 10.116 36.1977 14.4404 36.518C15.0178 36.5608 15.3219 36.5716 15.9944 36.5716C16.6709 36.5716 17.0045 36.5594 17.5618 36.518C21.692 36.2085 25.6079 34.6664 28.8472 32.0755C29.4688 31.5784 29.9028 31.1872 30.5445 30.5455C31.1795 29.9092 31.5626 29.4857 32.0556 28.8695C34.66 25.6193 36.2113 21.6886 36.5167 17.5622C36.573 16.8025 36.589 15.6665 36.5543 15.0101C36.4511 13.1344 36.1549 11.4812 35.6192 9.78376C34.8729 7.41781 33.6538 5.13089 32.1065 3.19633C31.2826 2.16474 30.3208 1.172 29.3307 0.326638C26.9703 -1.68697 24.1409 -3.1553 21.1387 -3.92699C19.7937 -4.27264 18.5023 -4.46824 17.0259 -4.54996C16.7674 -4.5647 15.7024 -4.57675 15.4586 -4.56872ZM12.4644 11.0913C13.212 11.1798 13.8255 11.4249 14.348 11.8456C14.9401 12.3212 15.3715 13.0888 15.5443 13.9691C15.7385 14.9605 15.6193 16.2184 15.2227 17.3412C14.6306 19.0144 13.374 20.2256 11.8147 20.6235C11.3699 20.7374 11.0631 20.7749 10.5688 20.7749C10.1763 20.7763 9.96594 20.7574 9.64575 20.6958C8.18954 20.4118 7.21159 19.407 6.90481 17.8771C6.83246 17.518 6.81773 17.3398 6.81773 16.8454C6.81907 16.3577 6.83113 16.2037 6.90481 15.763C7.05083 14.8975 7.32814 14.1191 7.72066 13.472C8.59814 12.0252 9.92843 11.1918 11.5507 11.0712C11.7665 11.0552 12.246 11.0659 12.4644 11.0913ZM22.2775 11.0913C23.2072 11.1798 23.9225 11.4893 24.4691 12.0385C24.8629 12.4337 25.0907 12.8905 25.1872 13.476C25.2193 13.6771 25.2193 14.1552 25.1872 14.3937C25.0827 15.1427 24.792 15.7281 24.2748 16.2252C23.7068 16.7718 22.9567 17.1308 22.0698 17.2796C21.6023 17.3585 21.5407 17.3613 20.2586 17.3585C19.5579 17.3559 19.0824 17.3599 19.0824 17.3679C19.0824 17.3787 18.4929 20.5752 18.4648 20.7133L18.4514 20.7843H16.3869L16.3949 20.74C16.3963 20.7325 16.4404 20.4918 16.5162 20.0783L16.5184 20.0668C16.6733 19.2212 16.9584 17.6667 17.2805 15.9077C17.7627 13.2737 18.1607 11.1034 18.1647 11.086L18.1727 11.0538L20.1245 11.0632C21.6559 11.0699 22.1194 11.0766 22.2775 11.0913Z" fill="#FE0420"/>
</g>
</g>
<defs>
<clipPath id="clip0_1351_410">
<rect width="32" height="32" fill="white"/>
</clipPath>
</defs>
</svg>
