<svg width="32" height="32" viewBox="0 0 32 32" fill="none" xmlns="http://www.w3.org/2000/svg">
<g clip-path="url(#clip0_1395_2427)">
<path d="M16 32C24.8366 32 32 24.8366 32 16C32 7.16344 24.8366 0 16 0C7.16344 0 0 7.16344 0 16C0 24.8366 7.16344 32 16 32Z" fill="black"/>
<path d="M15.1496 16.064C13.8329 15.8992 12.5002 15.7472 11.1572 15.7013C10.239 15.6707 9.32156 15.6036 8.40756 15.5204C7.76452 15.4618 7.2693 15.1451 7.07987 14.5013C6.89469 13.8779 7.07053 13.3319 7.58189 12.9039C7.99727 12.5565 8.69637 12.514 9.25191 12.8665C9.80744 13.2189 10.3477 13.6231 10.893 14.0003C11.113 14.154 11.3237 14.3238 11.5522 14.4639C11.903 14.6788 12.2955 14.588 12.4764 14.2694C12.6463 13.9764 12.5274 13.5901 12.1748 13.4074C11.3322 12.9684 10.4827 12.5547 9.63755 12.1208C9.09645 11.8397 8.52903 11.6189 8.02361 11.2707C7.71415 11.0683 7.46026 10.7917 7.28504 10.4661C7.10983 10.1405 7.01885 9.77625 7.0204 9.40653C7.0204 9.19422 7.0204 8.9819 7.0204 8.76959C7.02635 7.99505 7.491 7.2978 8.14337 7.08378C8.8688 6.84004 9.77177 7.14408 10.2194 7.78868C11.4944 9.62395 12.8612 11.3913 14.1855 13.1917C14.5032 13.6249 14.8191 14.0605 15.1437 14.4885C15.215 14.5828 15.2643 14.7204 15.4546 14.7195C15.5029 14.4954 15.3374 14.3578 15.2363 14.21C14.3588 12.9438 13.4609 11.6885 12.5962 10.4112C11.9463 9.45239 12.1171 8.27701 12.9708 7.53134C13.6181 6.96573 14.6603 6.83664 15.3951 7.23241C16.2446 7.68931 16.71 8.52159 16.5843 9.43541C16.4611 10.3169 16.2998 11.1934 16.1596 12.0724C16.1349 12.2227 16.1129 12.3739 16.0814 12.5777C16.276 12.4749 16.27 12.3229 16.3032 12.2032C16.597 11.1552 16.9029 10.1097 17.1747 9.05493C17.4703 7.8838 18.6493 6.97253 19.8266 7.02009C20.9429 7.06595 22.065 7.07104 23.1803 7.02009C24.1079 6.97508 25.0661 7.8252 25.3107 8.56151C25.6012 9.43541 25.3489 10.4953 24.6175 11.0686C23.1395 12.2278 21.6377 13.3684 20.1486 14.5132C19.4325 15.0661 18.7172 15.6173 18.0114 16.1871C17.8993 16.272 17.6418 16.3807 17.7973 16.5617C17.9231 16.7085 18.0649 16.4971 18.1788 16.407C19.6024 15.2877 21.0159 14.1608 22.448 13.0482C22.7513 12.7992 23.1274 12.6554 23.5194 12.6388C23.9115 12.6221 24.2984 12.7333 24.6217 12.9556C25.2589 13.3802 25.5562 14.1794 25.3727 14.9761C25.2181 15.6444 24.5088 16.2346 23.7273 16.3111C22.5033 16.4308 21.2775 16.5319 20.0526 16.6406C19.9958 16.6407 19.9391 16.6447 19.8828 16.6525C19.7842 16.6754 19.616 16.6312 19.6372 16.8011C19.6525 16.9226 19.7978 16.8962 19.8921 16.892C20.7254 16.8547 21.5612 16.8394 22.392 16.7637C23.9584 16.6211 25.3973 17.8873 25.4067 19.4636C25.4152 20.9073 25.4109 22.3511 25.4067 23.7949C25.4067 24.5736 24.8843 25.2505 24.2013 25.3821C23.3518 25.546 22.6392 25.1758 22.2883 24.4047C21.8729 23.4908 21.439 22.5838 21.0278 21.6683C20.8579 21.2963 20.598 21.0636 20.1826 21.078C19.8546 21.0899 19.5744 21.2292 19.4469 21.5604C19.2941 21.9613 19.4036 22.3052 19.6925 22.6084C19.9473 22.8734 20.2251 23.1137 20.3636 23.473C20.7305 24.4259 20.09 25.3652 19.074 25.4187C17.4525 25.5036 16.795 25.0645 16.6107 23.2225C16.4458 21.5493 16.1859 19.8848 15.9676 18.2168C15.9566 18.1277 15.9847 18.0156 15.8597 17.9391C15.7807 18.1132 15.8649 18.2729 15.8844 18.4283C16.0467 19.7337 16.2191 21.0373 16.3813 22.3426C16.5767 23.9146 15.2838 25.4 13.6945 25.4076C12.2649 25.4169 10.8353 25.4076 9.4048 25.3992C8.33195 25.3898 7.35254 24.5787 7.07901 23.5027C6.79615 22.3885 7.29308 21.157 8.24446 20.6432C9.41585 20.0114 10.6815 19.5893 11.8886 19.0347C12.6472 18.6865 13.4244 18.3791 14.1897 18.047C14.3673 17.9697 14.6145 17.8839 14.4964 17.6325C14.3783 17.3812 14.1566 17.5238 13.9782 17.6037C12.6298 18.2265 11.2829 18.8527 9.9374 19.4823C8.83313 19.9918 7.6439 19.6096 7.18945 18.5948C6.58549 17.2512 7.50544 15.7922 9.00641 15.8024C10.4904 15.8125 11.9735 15.9162 13.4566 15.9807C14.0216 16.0054 14.5856 16.0359 15.1496 16.064Z" fill="#4D286D"/>
<mask id="mask0_1395_2427" style="mask-type:alpha" maskUnits="userSpaceOnUse" x="7" y="7" width="19" height="19">
<path d="M15.1496 16.064C13.8329 15.8992 12.5002 15.7472 11.1572 15.7013C10.239 15.6707 9.32156 15.6036 8.40756 15.5204C7.76452 15.4618 7.2693 15.1451 7.07987 14.5013C6.89469 13.8779 7.07053 13.3319 7.58189 12.9039C7.99727 12.5565 8.69637 12.514 9.25191 12.8665C9.80744 13.2189 10.3477 13.6231 10.893 14.0003C11.113 14.154 11.3237 14.3238 11.5522 14.4639C11.903 14.6788 12.2955 14.588 12.4764 14.2694C12.6463 13.9764 12.5274 13.5901 12.1748 13.4074C11.3322 12.9684 10.4827 12.5547 9.63755 12.1208C9.09645 11.8397 8.52903 11.6189 8.02361 11.2707C7.71415 11.0683 7.46026 10.7917 7.28504 10.4661C7.10983 10.1405 7.01885 9.77625 7.0204 9.40653C7.0204 9.19422 7.0204 8.9819 7.0204 8.76959C7.02635 7.99505 7.491 7.2978 8.14337 7.08378C8.8688 6.84004 9.77177 7.14408 10.2194 7.78868C11.4944 9.62395 12.8612 11.3913 14.1855 13.1917C14.5032 13.6249 14.8191 14.0605 15.1437 14.4885C15.215 14.5828 15.2643 14.7204 15.4546 14.7195C15.5029 14.4954 15.3374 14.3578 15.2363 14.21C14.3588 12.9438 13.4609 11.6885 12.5962 10.4112C11.9463 9.45239 12.1171 8.27701 12.9708 7.53134C13.6181 6.96573 14.6603 6.83664 15.3951 7.23241C16.2446 7.68931 16.71 8.52159 16.5843 9.43541C16.4611 10.3169 16.2998 11.1934 16.1596 12.0724C16.1349 12.2227 16.1129 12.3739 16.0814 12.5777C16.276 12.4749 16.27 12.3229 16.3032 12.2032C16.597 11.1552 16.9029 10.1097 17.1747 9.05493C17.4703 7.8838 18.6493 6.97253 19.8266 7.02009C20.9429 7.06595 22.065 7.07104 23.1803 7.02009C24.1079 6.97508 25.0661 7.8252 25.3107 8.56151C25.6012 9.43541 25.3489 10.4953 24.6175 11.0686C23.1395 12.2278 21.6377 13.3684 20.1486 14.5132C19.4325 15.0661 18.7172 15.6173 18.0114 16.1871C17.8993 16.272 17.6418 16.3807 17.7973 16.5617C17.9231 16.7085 18.0649 16.4971 18.1788 16.407C19.6024 15.2877 21.0159 14.1608 22.448 13.0482C22.7513 12.7992 23.1274 12.6554 23.5194 12.6388C23.9115 12.6221 24.2984 12.7333 24.6217 12.9556C25.2589 13.3802 25.5562 14.1794 25.3727 14.9761C25.2181 15.6444 24.5088 16.2346 23.7273 16.3111C22.5033 16.4308 21.2775 16.5319 20.0526 16.6406C19.9958 16.6407 19.9391 16.6447 19.8828 16.6525C19.7842 16.6754 19.616 16.6312 19.6372 16.8011C19.6525 16.9226 19.7978 16.8962 19.8921 16.892C20.7254 16.8547 21.5612 16.8394 22.392 16.7637C23.9584 16.6211 25.3973 17.8873 25.4067 19.4636C25.4152 20.9073 25.4109 22.3511 25.4067 23.7949C25.4067 24.5736 24.8843 25.2505 24.2013 25.3821C23.3518 25.546 22.6392 25.1758 22.2883 24.4047C21.8729 23.4908 21.439 22.5838 21.0278 21.6683C20.8579 21.2963 20.598 21.0636 20.1826 21.078C19.8546 21.0899 19.5744 21.2292 19.4469 21.5604C19.2941 21.9613 19.4036 22.3052 19.6925 22.6084C19.9473 22.8734 20.2251 23.1137 20.3636 23.473C20.7305 24.4259 20.09 25.3652 19.074 25.4187C17.4525 25.5036 16.795 25.0645 16.6107 23.2225C16.4458 21.5493 16.1859 19.8848 15.9676 18.2168C15.9566 18.1277 15.9847 18.0156 15.8597 17.9391C15.7807 18.1132 15.8649 18.2729 15.8844 18.4283C16.0467 19.7337 16.2191 21.0373 16.3813 22.3426C16.5767 23.9146 15.2838 25.4 13.6945 25.4076C12.2649 25.4169 10.8353 25.4076 9.4048 25.3992C8.33195 25.3898 7.35254 24.5787 7.07901 23.5027C6.79615 22.3885 7.29308 21.157 8.24446 20.6432C9.41585 20.0114 10.6815 19.5893 11.8886 19.0347C12.6472 18.6865 13.4244 18.3791 14.1897 18.047C14.3673 17.9697 14.6145 17.8839 14.4964 17.6325C14.3783 17.3812 14.1566 17.5238 13.9782 17.6037C12.6298 18.2265 11.2829 18.8527 9.9374 19.4823C8.83313 19.9918 7.6439 19.6096 7.18945 18.5948C6.58549 17.2512 7.50544 15.7922 9.00641 15.8024C10.4904 15.8125 11.9735 15.9162 13.4566 15.9807C14.0216 16.0054 14.5856 16.0359 15.1496 16.064Z" fill="#4D286D"/>
</mask>
<g mask="url(#mask0_1395_2427)">
<path d="M13.2678 1.10303H6.44922V32.4316H13.2678V1.10303Z" fill="url(#paint0_radial_1395_2427)"/>
<path d="M13.2678 1.10303H6.44922V32.4316H13.2678V1.10303Z" fill="url(#paint1_radial_1395_2427)"/>
<path d="M24.8772 1.10303H18.0586V18.0573H24.8772V1.10303Z" fill="url(#paint2_radial_1395_2427)"/>
<path opacity="0.4" d="M26.9045 6.26318H20.0859V27.5482H26.9045V6.26318Z" fill="url(#paint3_radial_1395_2427)"/>
</g>
</g>
<defs>
<radialGradient id="paint0_radial_1395_2427" cx="0" cy="0" r="1" gradientUnits="userSpaceOnUse" gradientTransform="translate(9.90396 16.2605) rotate(90.1327) scale(19.6265 2.98675)">
<stop stop-color="#FFE600"/>
<stop offset="1" stop-color="#FFE600" stop-opacity="0"/>
</radialGradient>
<radialGradient id="paint1_radial_1395_2427" cx="0" cy="0" r="1" gradientUnits="userSpaceOnUse" gradientTransform="translate(9.90396 16.2605) rotate(90.1327) scale(19.6265 2.98675)">
<stop stop-color="#FFC700"/>
<stop offset="1" stop-color="#FFE600" stop-opacity="0"/>
</radialGradient>
<radialGradient id="paint2_radial_1395_2427" cx="0" cy="0" r="1" gradientUnits="userSpaceOnUse" gradientTransform="translate(21.4679 7.32265) rotate(90) scale(10.4121 2.92787)">
<stop stop-color="#FFC700"/>
<stop offset="1" stop-color="#FFE600" stop-opacity="0"/>
</radialGradient>
<radialGradient id="paint3_radial_1395_2427" cx="0" cy="0" r="1" gradientUnits="userSpaceOnUse" gradientTransform="translate(23.4952 14.0715) rotate(90) scale(13.0717 2.92787)">
<stop stop-color="#FFC700"/>
<stop offset="1" stop-color="#FFE600" stop-opacity="0"/>
</radialGradient>
<clipPath id="clip0_1395_2427">
<rect width="32" height="32" fill="white"/>
</clipPath>
</defs>
</svg>
