<svg width="32" height="32" viewBox="0 0 32 32" fill="none" xmlns="http://www.w3.org/2000/svg">
<g clip-path="url(#clip0_1501_3043)">
<mask id="mask0_1501_3043" style="mask-type:luminance" maskUnits="userSpaceOnUse" x="0" y="0" width="32" height="32">
<path d="M32 0H0V32H32V0Z" fill="white"/>
</mask>
<g mask="url(#mask0_1501_3043)">
<path d="M16 32C24.8365 32 32 24.8365 32 16C32 7.16344 24.8365 0 16 0C7.16344 0 0 7.16344 0 16C0 24.8365 7.16344 32 16 32Z" fill="url(#paint0_linear_1501_3043)"/>
<path d="M12.1392 10.3154C11.3266 10.3154 10.668 10.9624 10.668 11.7605V13.928H12.1392V11.7605H13.9781V13.928H15.4493V11.7605C15.4493 10.9624 14.7906 10.3154 13.9781 10.3154H12.1392Z" fill="white"/>
<path d="M18.022 10.3154C17.2095 10.3154 16.5508 10.9624 16.5508 11.7605V13.928H18.022V11.7605H19.8609V13.928H21.3321V11.7605C21.3321 10.9624 20.6735 10.3154 19.8609 10.3154H18.022Z" fill="white"/>
<path d="M10.668 19.7076C10.668 20.5056 11.3266 21.1526 12.1392 21.1526H13.9781C14.7906 21.1526 15.4493 20.5056 15.4493 19.7076V17.54H13.9781V19.7076H12.1392V17.54H10.668V19.7076Z" fill="white"/>
<path d="M16.5508 19.7076C16.5508 20.5056 17.2095 21.1526 18.022 21.1526H19.8609C20.6735 21.1526 21.3321 20.5056 21.3321 19.7076V17.54H19.8609V19.7076H18.022V17.54H16.5508V19.7076Z" fill="white"/>
<path fill-rule="evenodd" clip-rule="evenodd" d="M17.1042 5.4105C16.4215 5.02332 15.5802 5.02332 14.8975 5.4105L7.29088 9.72408C6.60811 10.1113 6.1875 10.8268 6.1875 11.6012V20.2284C6.1875 21.0027 6.60811 21.7183 7.29088 22.1055L14.8975 26.4191C15.5802 26.8063 16.4215 26.8063 17.1042 26.4191L24.7108 22.1055C25.3935 21.7183 25.8142 21.0027 25.8142 20.2284V11.6012C25.8142 10.8268 25.3935 10.1113 24.7108 9.72408L17.1042 5.4105ZM15.6331 6.66191C15.8606 6.53285 16.141 6.53285 16.3686 6.66191L23.9752 10.9755C24.2029 11.1046 24.343 11.3431 24.343 11.6012V13.6037C24.3134 13.6425 24.2735 13.6934 24.224 13.7529C24.0998 13.9019 23.9206 14.0995 23.7005 14.2951C23.2377 14.7064 22.7031 15.0116 22.1826 15.0116H9.70592C8.88299 15.0116 8.17959 15.386 7.65867 15.784V11.6012C7.65867 11.3431 7.79887 11.1046 8.02645 10.9755L15.6331 6.66191ZM7.65867 17.8604V20.2284C7.65867 20.4864 7.79887 20.725 8.02645 20.8541L15.6331 25.1677C15.8606 25.2968 16.141 25.2968 16.3686 25.1677L23.9752 20.8541C24.2029 20.725 24.343 20.4864 24.343 20.2284V15.6496C23.7973 16.0616 23.053 16.4566 22.1826 16.4566H9.70592C9.22808 16.4566 8.72538 16.7505 8.2794 17.1632C8.06884 17.358 7.8972 17.5552 7.77818 17.7041C7.72766 17.7674 7.68749 17.8209 7.65867 17.8604Z" fill="white"/>
</g>
</g>
<defs>
<linearGradient id="paint0_linear_1501_3043" x1="16" y1="0" x2="16" y2="32" gradientUnits="userSpaceOnUse">
<stop stop-color="#7F3CE0"/>
<stop offset="1" stop-color="#49189C"/>
</linearGradient>
<clipPath id="clip0_1501_3043">
<rect width="32" height="32" fill="white"/>
</clipPath>
</defs>
</svg>
