<svg width="32" height="32" viewBox="0 0 32 32" fill="none" xmlns="http://www.w3.org/2000/svg">
<g clip-path="url(#clip0_1501_3241)">
<path d="M32 16C32 7.16344 24.8366 0 16 0C7.16344 0 0 7.16344 0 16C0 24.8366 7.16344 32 16 32C24.8366 32 32 24.8366 32 16Z" fill="white"/>
<path fill-rule="evenodd" clip-rule="evenodd" d="M27.3608 17.2193C27.3608 17.3274 27.336 17.4302 27.289 17.5194L22.4509 25.98C22.2457 26.3389 21.8665 26.5599 21.4562 26.5599H10.7054C10.295 26.5599 9.91584 26.3389 9.71065 25.98L4.87214 17.5186C4.82526 17.4295 4.80078 17.3272 4.80078 17.2193C4.80078 16.8691 5.08195 16.5852 5.42879 16.5852H10.7371L12.0823 18.8923L12.0906 18.906C12.2701 19.1971 12.6478 19.2919 12.9421 19.117L12.9573 19.1076C13.093 19.0217 13.1913 18.8864 13.2315 18.7294L14.9456 12.0389L16.4175 22.8102L16.4197 22.8252C16.4741 23.164 16.7868 23.3988 17.1254 23.3516L17.1408 23.3493C17.386 23.3089 17.5851 23.1261 17.6476 22.8823L19.7138 14.8179L20.5621 16.2728L20.5705 16.2868C20.685 16.4721 20.8863 16.5852 21.1033 16.5852H26.7328C27.0796 16.5852 27.3608 16.8691 27.3608 17.2193ZM21.4562 5.43994C21.8665 5.43994 22.2457 5.66098 22.4509 6.0198L27.2893 14.4808C27.3361 14.5699 27.3608 14.6726 27.3608 14.7805C27.3608 15.1307 27.0796 15.4146 26.7328 15.4146H21.4071L20.0619 13.1076L20.0526 13.0922C19.9675 12.9552 19.8335 12.856 19.678 12.8154L19.6634 12.8117C19.3323 12.7336 18.9983 12.9363 18.9127 13.2704L17.1985 19.9609L15.7267 9.18967L15.7244 9.17414C15.6844 8.92662 15.5033 8.72552 15.2619 8.66247C14.9261 8.57477 14.5834 8.77851 14.4966 9.11753L12.4304 17.1819L11.5821 15.727L11.5736 15.713C11.4592 15.5277 11.2579 15.4146 11.0409 15.4146H5.42879C5.08195 15.4146 4.80078 15.1307 4.80078 14.7805C4.80078 14.6735 4.8246 14.5722 4.87062 14.4837L9.71065 6.0198C9.91584 5.66098 10.295 5.43994 10.7054 5.43994H21.4562Z" fill="url(#paint0_linear_1501_3241)"/>
</g>
<defs>
<linearGradient id="paint0_linear_1501_3241" x1="21.9258" y1="5.80928" x2="9.53209" y2="26.9761" gradientUnits="userSpaceOnUse">
<stop stop-color="#00DAFF"/>
<stop offset="0.326385" stop-color="#354AFF"/>
<stop offset="0.680558" stop-color="#DE18E7"/>
<stop offset="1" stop-color="#F9073A"/>
</linearGradient>
<clipPath id="clip0_1501_3241">
<rect width="32" height="32" fill="white"/>
</clipPath>
</defs>
</svg>
