<svg width="32" height="32" viewBox="0 0 32 32" fill="none" xmlns="http://www.w3.org/2000/svg">
<g clip-path="url(#clip0_1501_3247)">
<path d="M32 16C32 7.16344 24.8366 0 16 0C7.16344 0 0 7.16344 0 16C0 24.8366 7.16344 32 16 32C24.8366 32 32 24.8366 32 16Z" fill="#1273EA"/>
<path fill-rule="evenodd" clip-rule="evenodd" d="M7.83984 7.67999V21.7957C7.84 22.0593 7.89954 22.3196 8.01406 22.5572C8.12858 22.7948 8.29514 23.0038 8.50146 23.1685L15.1728 28.5103C15.4075 28.6978 15.6992 28.7999 15.9998 28.7999C16.3004 28.7999 16.5921 28.6978 16.8268 28.5103L23.4982 23.1685C23.7045 23.0038 23.8711 22.7948 23.9856 22.5572C24.1001 22.3196 24.1596 22.0593 24.1598 21.7957V7.67999C24.1598 7.21319 23.9739 6.7655 23.6431 6.43543C23.3122 6.10535 22.8634 5.91992 22.3955 5.91992H9.60416C9.13623 5.91992 8.68747 6.10535 8.3566 6.43543C8.02572 6.7655 7.83984 7.21319 7.83984 7.67999Z" fill="white"/>
<path d="M21.4392 13.7931V10.251C21.4392 9.78131 21.2559 9.33084 20.9295 8.99871C20.6031 8.66657 20.1605 8.47998 19.6989 8.47998H12.3028C11.8412 8.47998 11.3986 8.66657 11.0722 8.99871C10.7458 9.33084 10.5625 9.78131 10.5625 10.251V20.5286C10.5627 20.7939 10.6214 21.0558 10.7343 21.2949C10.8473 21.534 11.0116 21.7442 11.2151 21.91L13.9082 24.1105C13.9401 24.1369 13.9788 24.1535 14.0197 24.1585C14.0606 24.1634 14.102 24.1564 14.1391 24.1383C14.1763 24.1202 14.2076 24.0918 14.2295 24.0563C14.2513 24.0208 14.2629 23.9798 14.2628 23.9378V16.6711C14.2628 16.6123 14.2857 16.5561 14.3265 16.5145C14.3673 16.473 14.4226 16.4497 14.4803 16.4497H16.4381C16.7842 16.4497 17.1162 16.5896 17.361 16.8387C17.6058 17.0878 17.7433 17.4257 17.7433 17.778V23.9378C17.7433 23.9796 17.7549 24.0204 17.7768 24.0557C17.7986 24.0909 17.8298 24.1193 17.8667 24.1373C17.9037 24.1553 17.9448 24.1624 17.9855 24.1576C18.0263 24.1529 18.0648 24.1366 18.0968 24.1105L20.7899 21.91C20.9934 21.7442 21.1577 21.534 21.2706 21.2949C21.3836 21.0558 21.4423 20.7939 21.4425 20.5286V17.3352C21.4425 16.8655 21.2591 16.415 20.9327 16.0829C20.6064 15.7507 20.1638 15.5641 19.7022 15.5641C20.1632 15.5633 20.605 15.3763 20.9307 15.0443C21.2563 14.7122 21.4392 14.2623 21.4392 13.7931ZM16.4359 14.6787H14.4781C14.4204 14.6787 14.3651 14.6553 14.3243 14.6138C14.2835 14.5723 14.2606 14.516 14.2606 14.4573V10.4724C14.2606 10.4137 14.2835 10.3574 14.3243 10.3159C14.3651 10.2744 14.4204 10.251 14.4781 10.251H17.5236C17.5813 10.251 17.6366 10.2744 17.6774 10.3159C17.7182 10.3574 17.7411 10.4137 17.7411 10.4724V13.3504C17.7411 13.7027 17.6036 14.0405 17.3588 14.2896C17.1141 14.5387 16.7821 14.6787 16.4359 14.6787Z" fill="#1273EA"/>
</g>
<defs>
<clipPath id="clip0_1501_3247">
<rect width="32" height="32" fill="white"/>
</clipPath>
</defs>
</svg>
