<svg width="32" height="32" viewBox="0 0 32 32" fill="none" xmlns="http://www.w3.org/2000/svg">
<g clip-path="url(#clip0_1395_2680)">
<path d="M32 16C32 7.16344 24.8366 0 16 0C7.16344 0 0 7.16344 0 16C0 24.8366 7.16344 32 16 32C24.8366 32 32 24.8366 32 16Z" fill="black"/>
<path d="M16.0669 10.9948C17.7908 10.9948 19.1885 9.60798 19.1885 7.89729C19.1885 6.1866 17.7908 4.7998 16.0669 4.7998C14.3429 4.7998 12.9453 6.1866 12.9453 7.89729C12.9453 9.60798 14.3429 10.9948 16.0669 10.9948Z" fill="#FD7F18"/>
<path d="M24.7452 17.4705C23.2524 16.6176 21.3409 17.1225 20.4814 18.604C20.1873 19.1089 20.0516 19.6702 20.063 20.2201C20.0969 21.5892 18.8528 22.2963 17.6764 21.5892C17.6313 21.5668 17.586 21.5331 17.5296 21.5107C16.342 20.8486 16.342 19.4457 17.5296 18.7948C18.5022 18.2673 19.1694 17.246 19.1694 16.0676C19.1694 16.0451 19.1694 16.0227 19.1694 16.0003C19.1355 14.6311 20.3796 13.9241 21.556 14.6311C22.4947 15.2035 23.7161 15.2484 24.7339 14.6648C26.2268 13.8119 26.7358 11.9152 25.8763 10.4338C25.0168 8.95239 23.1054 8.44737 21.6124 9.3003C20.5945 9.88388 20.0291 10.9613 20.0516 12.0499C20.0856 13.419 18.8414 14.1261 17.6764 13.419C17.2016 13.1273 16.6473 12.9589 16.048 12.9589C15.4484 12.9589 14.8943 13.1273 14.4192 13.4078C13.243 14.1036 12.0102 13.3966 12.0442 12.0386C12.0668 10.9388 11.5013 9.87266 10.4834 9.28908C8.99047 8.43615 7.07909 8.95239 6.21952 10.4338C5.35997 11.9152 5.88022 13.8119 7.37314 14.6648C8.39104 15.2484 9.61251 15.1922 10.5512 14.6311C11.7275 13.9241 12.9603 14.6311 12.9263 16.0003C12.9263 16.0227 12.9263 16.0451 12.9263 16.0676C12.9263 17.246 13.5823 18.2673 14.5663 18.7948C15.7538 19.4569 15.7538 20.8598 14.5663 21.5107C14.521 21.5331 14.4758 21.5668 14.4306 21.5892C13.2543 22.2851 12.0215 21.578 12.0555 20.2201C12.0668 19.6702 11.9311 19.1089 11.637 18.5928C10.7775 17.1113 8.86606 16.6064 7.37314 17.4593C5.88022 18.3347 5.37128 20.2313 6.23083 21.7128C7.09038 23.194 9.00178 23.6992 10.4947 22.8462C10.5173 22.835 10.5286 22.8238 10.5512 22.8124C11.7275 22.1054 12.9603 22.8124 12.9263 24.1817C12.9263 24.2041 12.9263 24.2265 12.9263 24.2603C12.9263 25.966 14.3288 27.3577 16.048 27.3577C17.767 27.3577 19.1694 25.966 19.1694 24.2603C19.1694 24.2379 19.1694 24.2153 19.1694 24.1929C19.1355 22.8238 20.3796 22.1168 21.556 22.8238C21.5785 22.835 21.6011 22.8462 21.6238 22.8686C23.1166 23.7216 25.0281 23.2166 25.8876 21.7352C26.7472 20.22 26.2382 18.3235 24.7452 17.4705Z" fill="#FD7F18"/>
</g>
<defs>
<clipPath id="clip0_1395_2680">
<rect width="32" height="32" fill="white"/>
</clipPath>
</defs>
</svg>
