<svg width="32" height="32" viewBox="0 0 32 32" fill="none" xmlns="http://www.w3.org/2000/svg">
<g clip-path="url(#clip0_1501_3448)">
<path d="M32 16C32 7.16344 24.8366 0 16 0C7.16344 0 0 7.16344 0 16C0 24.8366 7.16344 32 16 32C24.8366 32 32 24.8366 32 16Z" fill="#0B0D12"/>
<path d="M19.1704 16.0816L18.9023 15.1791L23.0028 15.1729C23.0346 15.1729 23.0618 15.1619 23.0846 15.1398L24.0223 14.2011C24.0464 14.1769 24.0757 14.1649 24.1102 14.1649H28.5243C28.5394 14.1648 28.5544 14.1614 28.568 14.1547C28.5816 14.1481 28.5936 14.1385 28.603 14.1266C28.821 13.8437 29.0873 13.7271 29.4019 13.7768C30.3603 13.9268 30.4007 15.2992 29.4475 15.4782C29.1087 15.5424 28.8265 15.4279 28.6009 15.1346C28.5809 15.1091 28.5547 15.0963 28.5222 15.0963H24.5242C24.4904 15.0963 24.4611 15.1084 24.4362 15.1325L23.5244 16.0443C23.5012 16.0675 23.4699 16.0806 23.4375 16.0806L19.1704 16.0816Z" fill="#6FBB3F"/>
<path d="M19.5357 17.9404L19.3867 17.0359H25.407C25.4249 17.0359 25.4425 17.0316 25.4584 17.0233C25.4742 17.015 25.4879 17.003 25.4981 16.9883C26.0538 16.1903 27.2627 16.6737 27.067 17.6134C26.9232 18.2996 26.0507 18.5376 25.5819 17.9808C25.5715 17.9685 25.5586 17.9586 25.5442 17.9518C25.5297 17.945 25.5139 17.9415 25.4981 17.9415L19.5357 17.9404Z" fill="#6FBB3F"/>
<path d="M19.5948 18.7422C19.6197 18.8302 23.4273 18.795 23.8268 18.7939C23.8428 18.7939 23.8587 18.7971 23.8735 18.8034C23.8882 18.8096 23.9016 18.8187 23.9127 18.8302L24.8503 19.7678C24.8745 19.792 24.9038 19.804 24.9383 19.804H27.1759C27.2083 19.804 27.2352 19.7916 27.2566 19.7668C28.1705 18.7018 29.4807 20.2149 28.4602 20.9435C28.058 21.2312 27.6578 21.1736 27.2597 20.7707C27.2369 20.7472 27.209 20.7355 27.1759 20.7355H24.5543C24.5178 20.7355 24.4864 20.7224 24.4602 20.6962L23.5059 19.743C23.4794 19.7165 23.4437 19.7016 23.4066 19.7016L19.4023 19.7006L19.5752 18.7815C19.5566 18.7643 19.5631 18.7512 19.5948 18.7422Z" fill="#6FBB3F"/>
<path d="M18.7068 14.3782C18.5524 14.1552 18.5241 13.9534 18.6291 13.6862C19.2923 12.0011 19.8273 9.87016 19.1641 8.13886C19.0914 7.94906 18.9451 7.86571 18.7543 7.82453C18.7219 7.81731 18.6877 7.81904 18.6553 7.82956C17.2199 8.28949 15.9631 9.61809 15.0354 10.7991C15.027 10.8095 15.0158 10.8171 15.0032 10.8211C14.9906 10.825 14.9772 10.8251 14.9648 10.8212C13.1646 10.3043 11.367 10.309 9.57222 10.8352C9.53655 10.8453 9.50728 10.8359 9.4844 10.8071C8.98236 10.1758 8.38038 9.54311 7.67847 8.90911C7.34636 8.60984 5.74031 7.39472 5.39507 8.0294C4.51785 9.64722 5.37993 12.5404 6.01185 14.0357C6.02531 14.0672 6.02498 14.0983 6.01084 14.1291C5.38296 15.5631 5.02157 17.0598 4.92668 18.619C4.96975 19.2008 5.12521 19.6922 5.39305 20.0932C6.89715 22.3518 9.869 24.2909 12.7258 24.062C15.2504 23.8601 17.6731 22.2855 19.1227 20.2158L20.1564 20.2248C20.1954 20.2248 20.2284 20.2385 20.2553 20.266L21.716 21.7181C21.7278 21.7302 21.7421 21.7398 21.7578 21.7463C21.7736 21.7529 21.7906 21.7563 21.8079 21.7563H24.7494C24.7851 21.7563 24.8141 21.7422 24.8363 21.7141C25.236 21.2079 26.0658 21.2833 26.2919 21.8747C26.6381 22.7836 25.4742 23.4634 24.8585 22.7012C24.8484 22.6884 24.8355 22.6781 24.8208 22.6709C24.8061 22.6638 24.79 22.6601 24.7737 22.6601H21.4091C21.3715 22.6601 21.3395 22.647 21.3132 22.6209C20.8415 22.1569 20.3721 21.691 19.9051 21.223C19.7718 21.0884 19.6517 21.0881 19.5447 21.222C18.0386 23.1093 16.1377 24.3097 13.8422 24.8232C10.4878 25.5733 7.07582 23.7396 5.0034 21.1336C4.43474 20.4186 4.10027 19.6531 4 18.8369V18.0115C4.17094 16.6584 4.50137 15.3482 4.99129 14.0809C5.0034 14.0501 5.00307 14.0193 4.99028 13.9885C4.52997 12.8316 4.23823 11.6363 4.11508 10.4024C4.00505 9.30176 4.17262 6.43166 6.12289 6.94081C7.58055 7.32041 8.89083 8.5998 9.82458 9.72755C9.83425 9.73929 9.84706 9.74807 9.86153 9.75287C9.876 9.75767 9.89154 9.75829 9.90635 9.75467C11.4724 9.39582 13.0404 9.38913 14.6104 9.73458C14.6272 9.73824 14.6447 9.73717 14.6611 9.73151C14.6775 9.72584 14.6921 9.71579 14.7033 9.70245C15.5714 8.65503 17.5883 6.61946 19.0712 6.91771C19.4898 7.00207 19.7987 7.25346 19.9979 7.67189C20.8055 9.36302 20.2997 11.724 19.7143 13.4221C19.7028 13.4549 19.7146 13.4713 19.7496 13.4713H20.3664C20.4 13.4713 20.4286 13.4596 20.4522 13.4362L21.9431 11.9529C21.955 11.9408 21.9692 11.9312 21.985 11.9247C22.0007 11.9181 22.0178 11.9148 22.035 11.9148H23.4382C23.4732 11.9148 23.5021 11.9014 23.525 11.8746C23.9813 11.3393 24.9039 11.487 25.0149 12.196C25.1532 13.0747 24.1226 13.5677 23.5199 12.8577C23.5095 12.8455 23.4965 12.8356 23.4819 12.8289C23.4672 12.8221 23.4513 12.8186 23.4351 12.8186H22.4136C22.3779 12.8186 22.3473 12.8313 22.3217 12.8567L20.8287 14.341C20.8176 14.3524 20.8041 14.3615 20.7892 14.3678C20.7743 14.374 20.7582 14.3772 20.7419 14.3772L18.7068 14.3782Z" fill="#6FBB3F"/>
<path d="M18.9563 14.2606L19.2523 15.0389L19.5203 15.9413L19.7335 16.8966L19.8825 17.8011L19.9446 18.6032C19.9129 18.6122 19.9064 18.6253 19.925 18.6426C18.1997 18.1479 16.6431 18.3062 15.3526 19.6009C15.3469 19.6066 15.3398 19.6108 15.332 19.6129C15.3242 19.6151 15.316 19.6152 15.3082 19.6132C15.3003 19.6112 15.2931 19.6072 15.2873 19.6016C15.2815 19.596 15.2772 19.589 15.2749 19.5813C14.3952 16.7445 10.3527 16.7621 9.45955 19.5688C9.45617 19.5791 9.4502 19.5884 9.44223 19.5957C9.43427 19.603 9.42456 19.6081 9.41411 19.6105C9.40366 19.6129 9.39279 19.6125 9.3826 19.6094C9.37242 19.6063 9.36326 19.6005 9.35604 19.5926C8.10996 18.271 6.50993 18.1986 4.82812 18.6312C4.92542 17.0242 5.29592 15.4818 5.93966 14.0039C5.95415 13.9722 5.9545 13.9401 5.9407 13.9077C5.29282 12.3666 4.40897 9.38491 5.30834 7.7176C5.6623 7.06351 7.30891 8.3158 7.64941 8.62422C8.36904 9.27762 8.98623 9.92964 9.50095 10.5803C9.52441 10.6099 9.55441 10.6196 9.59098 10.6093C11.4311 10.0669 13.274 10.0621 15.1197 10.5948C15.1324 10.5988 15.1462 10.5988 15.1591 10.5947C15.172 10.5906 15.1835 10.5827 15.1921 10.572C16.1433 9.3549 17.4318 7.98565 18.9035 7.51164C18.9367 7.50081 18.9717 7.49902 19.0049 7.50647C19.2005 7.5489 19.3506 7.6348 19.4251 7.83041C20.1051 9.61467 19.5565 11.8108 18.8766 13.5475C18.7689 13.8228 18.7979 14.0308 18.9563 14.2606ZM8.47738 10.6372C7.76223 9.79786 6.91252 8.94609 5.98417 8.42861C5.89033 8.37618 5.83513 8.40343 5.81857 8.51037C5.61158 9.88169 5.88067 11.2758 6.34123 12.5705C6.35296 12.6022 6.36848 12.6046 6.3878 12.5777C6.93495 11.8098 7.62423 11.2013 8.45564 10.7521C8.51015 10.7231 8.5174 10.6848 8.47738 10.6372ZM16.2292 10.6983C17.0768 11.1712 17.7588 11.7208 18.3084 12.4991C18.3256 12.5232 18.3394 12.5212 18.3498 12.4929C18.7562 11.371 18.9545 10.2139 18.9449 9.02164C18.9428 8.84052 18.8497 8.65113 18.8424 8.45138C18.8418 8.4378 18.8376 8.42463 18.8303 8.41317C18.823 8.40171 18.8128 8.39236 18.8008 8.38608C18.7887 8.37979 18.7752 8.37678 18.7617 8.37734C18.7481 8.3779 18.7349 8.38202 18.7234 8.38928C17.7637 8.99715 16.9281 9.74404 16.2167 10.63C16.194 10.6582 16.1981 10.681 16.2292 10.6983ZM10.9219 13.7597C10.3651 13.3602 8.98863 13.2598 8.98967 14.2575C8.98967 14.5234 9.14491 14.6311 9.38295 14.6818C9.78141 14.7656 10.716 15.0088 11.0254 14.7398C11.2831 14.5162 11.2076 13.9646 10.9219 13.7597ZM15.5792 13.7079C15.0628 13.3767 14.1758 13.3581 13.7712 13.8756C13.5134 14.2036 13.5642 14.9033 14.1479 14.8671C14.4925 14.8453 15.483 14.778 15.7231 14.5297C15.9332 14.3123 15.8193 13.8611 15.5792 13.7079ZM10.8288 16.7434C10.6777 16.0345 8.94724 15.2914 8.30557 15.0647C8.1586 15.0123 8.06649 15.062 8.02923 15.2138C7.95368 15.5222 7.81086 16.0893 8.14515 16.3036C8.54981 16.5623 10.54 17.4555 10.8195 16.8324C10.8319 16.8035 10.835 16.7738 10.8288 16.7434ZM16.6928 15.0709C16.3409 14.9892 15.2522 15.6122 14.9189 15.8027C14.5556 16.0107 13.9492 16.405 13.9699 16.8438C13.9712 16.8818 13.9892 16.9094 14.0237 16.9266C14.2362 17.0349 14.4877 17.0615 14.7782 17.0063C15.1952 16.9266 16.9164 16.4609 16.875 15.992C16.8501 15.7119 16.8198 15.4383 16.7839 15.1713C16.7806 15.1473 16.7701 15.1248 16.7538 15.1068C16.7376 15.0889 16.7163 15.0764 16.6928 15.0709Z" fill="#F68D36"/>
<path d="M5.98634 8.42822C6.91469 8.9457 7.76439 9.79746 8.47954 10.6368C8.51956 10.6844 8.51231 10.7227 8.45781 10.7517C7.62639 11.2009 6.93712 11.8094 6.38997 12.5773C6.37065 12.6043 6.35513 12.6018 6.3434 12.5701C5.88284 11.2754 5.61376 9.8813 5.82075 8.50998C5.83731 8.40304 5.8925 8.37578 5.98634 8.42822Z" fill="#E65D02"/>
<path d="M18.3092 12.4988C17.7596 11.7205 17.0776 11.1709 16.2299 10.6979C16.1989 10.6807 16.1948 10.6579 16.2175 10.6296C16.9289 9.74372 17.7644 8.99683 18.7242 8.38896C18.7357 8.3817 18.7489 8.37758 18.7624 8.37702C18.776 8.37646 18.7895 8.37947 18.8016 8.38576C18.8136 8.39204 18.8238 8.40138 18.8311 8.41284C18.8384 8.42431 18.8426 8.43748 18.8432 8.45106C18.8504 8.65081 18.9436 8.8402 18.9457 9.02132C18.9553 10.2136 18.757 11.3707 18.3506 12.4926C18.3402 12.5208 18.3264 12.5229 18.3092 12.4988Z" fill="#E65D02"/>
<path d="M10.9206 13.7586C11.2062 13.9635 11.2818 14.5151 11.0241 14.7387C10.7146 15.0078 9.78002 14.7646 9.38157 14.6807C9.14353 14.63 8.98828 14.5224 8.98828 14.2564C8.98725 13.2587 10.3638 13.3591 10.9206 13.7586Z" fill="white"/>
<path d="M15.581 13.7076C15.8211 13.8608 15.935 14.312 15.7249 14.5293C15.4848 14.7777 14.4943 14.845 14.1497 14.8667C13.566 14.903 13.5153 14.2033 13.773 13.8753C14.1776 13.3578 15.0646 13.3764 15.581 13.7076Z" fill="white"/>
<path d="M8.30582 15.0651C8.94749 15.2918 10.6779 16.0349 10.829 16.7438C10.8352 16.7742 10.8321 16.8038 10.8197 16.8328C10.5403 17.4559 8.55007 16.5627 8.1454 16.304C7.81112 16.0897 7.95394 15.5226 8.02949 15.2142C8.06675 15.0624 8.15886 15.0127 8.30582 15.0651Z" fill="#202740"/>
<path d="M16.6922 15.0699C16.7157 15.0753 16.737 15.0878 16.7532 15.1058C16.7695 15.1237 16.78 15.1462 16.7833 15.1702C16.8192 15.4373 16.8495 15.7108 16.8744 15.991C16.9158 16.4598 15.1947 16.9255 14.7776 17.0052C14.4871 17.0604 14.2356 17.0338 14.0231 16.9255C13.9886 16.9083 13.9706 16.8807 13.9693 16.8427C13.9486 16.4039 14.555 16.0096 14.9183 15.8016C15.2516 15.6111 16.3403 14.9881 16.6922 15.0699Z" fill="#202740"/>
<path d="M19.925 18.6214L19.7521 19.5404L19.3827 20.2555C17.8965 22.3886 15.4126 24.0114 12.8242 24.2194C9.89525 24.4554 6.84835 22.4569 5.30627 20.1293C5.03167 19.716 4.87229 19.2096 4.82812 18.61C6.50993 18.1774 8.10996 18.2498 9.35604 19.5714C9.36326 19.5793 9.37242 19.585 9.3826 19.5882C9.39279 19.5913 9.40366 19.5917 9.41411 19.5893C9.42456 19.5869 9.43427 19.5818 9.44223 19.5745C9.4502 19.5672 9.45617 19.5579 9.45955 19.5476C10.3527 16.7408 14.3952 16.7233 15.2749 19.5601C15.2772 19.5678 15.2815 19.5748 15.2873 19.5804C15.2931 19.586 15.3003 19.59 15.3082 19.592C15.316 19.594 15.3242 19.5939 15.332 19.5917C15.3398 19.5896 15.3469 19.5854 15.3526 19.5797C16.6431 18.285 18.1997 18.1266 19.925 18.6214ZM12.5975 21.04V20.5805C12.5975 20.5509 12.612 20.5336 12.641 20.5288C13.1419 20.4384 13.4503 20.1445 13.5662 19.647C13.6376 19.3417 13.6604 18.7456 13.2899 18.7424C12.7531 18.7376 12.2177 18.7362 11.6837 18.7383C11.3173 18.7404 11.1517 18.8501 11.1569 19.2268C11.1686 19.9416 11.488 20.3842 12.1152 20.5546C12.1435 20.5622 12.1577 20.5809 12.1577 20.6105V21.0152C12.1577 21.0545 12.1421 21.0863 12.1111 21.1104L11.8389 21.3226C11.8141 21.3419 11.7858 21.3516 11.754 21.3516H10.3713C10.3237 21.3516 10.3047 21.3747 10.3144 21.4209L10.421 21.9073C10.4251 21.928 10.4369 21.9425 10.4562 21.9508L10.5783 22.0057C10.6128 22.0208 10.637 22.0457 10.6508 22.0802L10.8619 22.6183C10.8757 22.6515 10.8967 22.6573 10.925 22.6359C11.1589 22.459 11.0575 22.0191 11.0689 21.7521C11.071 21.7107 11.0923 21.6928 11.1331 21.6983C11.9672 21.808 12.8004 21.8076 13.6325 21.6972C13.6711 21.6917 13.6932 21.7083 13.6987 21.7469C13.7432 22.046 13.6118 22.4362 13.8353 22.6349C13.8629 22.6597 13.8836 22.6549 13.8974 22.6204L14.1106 22.0709C14.1279 22.026 14.1599 22.0022 14.2069 21.9994C14.2241 21.9981 14.2407 21.9936 14.2565 21.986C14.291 21.9708 14.3135 21.9446 14.3238 21.9073L14.4604 21.425C14.4628 21.4164 14.4632 21.4074 14.4615 21.3986C14.4598 21.3898 14.4561 21.3815 14.4507 21.3744C14.4453 21.3673 14.4383 21.3616 14.4303 21.3576C14.4223 21.3536 14.4135 21.3516 14.4045 21.3516H12.9597C12.9225 21.3516 12.8945 21.3357 12.8759 21.304C12.8242 21.2149 12.7483 21.1515 12.6482 21.1135C12.6333 21.1077 12.6205 21.0976 12.6114 21.0845C12.6024 21.0714 12.5975 21.0559 12.5975 21.04ZM12.0376 22.3482L12.2208 22.6628C12.2374 22.6913 12.2612 22.715 12.2898 22.7313C12.3185 22.7476 12.3509 22.7561 12.3839 22.7559C12.4169 22.7557 12.4492 22.7468 12.4776 22.7301C12.506 22.7134 12.5295 22.6895 12.5458 22.6608L12.7207 22.3513C12.7254 22.343 12.7319 22.3358 12.7396 22.3301C12.7472 22.3244 12.756 22.3203 12.7654 22.3182C12.7747 22.316 12.7844 22.3159 12.7938 22.3176C12.8032 22.3194 12.8121 22.3231 12.82 22.3286C12.878 22.3693 12.9318 22.4134 12.9815 22.461C13.0132 22.4921 13.0501 22.5021 13.0922 22.491C13.2219 22.4579 13.2947 22.3724 13.3106 22.2344C13.3223 22.1288 13.2751 22.076 13.1688 22.076H11.5346C11.4953 22.076 11.4711 22.095 11.4622 22.133C11.4318 22.2668 11.468 22.3755 11.5708 22.459C11.5997 22.4822 11.6356 22.495 11.6726 22.4951C11.7096 22.4953 11.7456 22.4829 11.7747 22.46L11.9424 22.3296C11.9496 22.324 11.9579 22.32 11.9667 22.3179C11.9756 22.3158 11.9849 22.3156 11.9939 22.3173C12.0029 22.3191 12.0114 22.3228 12.019 22.3281C12.0265 22.3334 12.0329 22.3403 12.0376 22.3482Z" fill="white"/>
<path d="M12.6488 21.1125C12.7488 21.1504 12.8247 21.2139 12.8765 21.3029C12.8951 21.3346 12.923 21.3505 12.9603 21.3505H14.4051C14.414 21.3505 14.4228 21.3526 14.4308 21.3565C14.4389 21.3605 14.4458 21.3663 14.4513 21.3734C14.4567 21.3805 14.4604 21.3888 14.462 21.3976C14.4637 21.4063 14.4634 21.4154 14.461 21.424L14.3244 21.9063C14.314 21.9435 14.2916 21.9698 14.2571 21.9849C14.2412 21.9925 14.2247 21.997 14.2074 21.9984C14.1605 22.0012 14.1284 22.025 14.1112 22.0698L13.898 22.6194C13.8842 22.6539 13.8635 22.6587 13.8359 22.6339C13.6123 22.4351 13.7437 22.045 13.6992 21.7459C13.6937 21.7072 13.6716 21.6907 13.633 21.6962C12.8009 21.8066 11.9678 21.8069 11.1336 21.6972C11.0929 21.6917 11.0715 21.7096 11.0694 21.751C11.058 22.0181 11.1595 22.4579 10.9256 22.6349C10.8973 22.6563 10.8762 22.6504 10.8624 22.6173L10.6513 22.0791C10.6375 22.0446 10.6134 22.0198 10.5789 22.0046L10.4567 21.9498C10.4374 21.9415 10.4257 21.927 10.4215 21.9063L10.3149 21.4199C10.3053 21.3736 10.3243 21.3505 10.3719 21.3505H11.7546C11.7863 21.3505 11.8146 21.3409 11.8394 21.3215L12.1116 21.1094C12.1427 21.0852 12.1582 21.0535 12.1582 21.0142V20.6095C12.1582 20.5798 12.1441 20.5612 12.1158 20.5536C11.4886 20.3832 11.1691 19.9406 11.1574 19.2258C11.1522 18.849 11.3178 18.7393 11.6842 18.7373C12.2182 18.7352 12.7536 18.7366 13.2904 18.7414C13.6609 18.7445 13.6382 19.3406 13.5668 19.6459C13.4509 20.1434 13.1424 20.4373 12.6415 20.5277C12.6125 20.5326 12.598 20.5498 12.598 20.5795V21.039C12.5981 21.0548 12.6029 21.0703 12.612 21.0834C12.621 21.0965 12.6338 21.1067 12.6488 21.1125Z" fill="#202740"/>
<path d="M11.9437 22.3297L11.776 22.4601C11.7469 22.4831 11.7109 22.4955 11.6739 22.4953C11.6368 22.4951 11.601 22.4823 11.5721 22.4591C11.4693 22.3756 11.4331 22.2669 11.4635 22.1331C11.4724 22.0951 11.4966 22.0762 11.5359 22.0762H13.1701C13.2763 22.0762 13.3236 22.129 13.3119 22.2345C13.296 22.3725 13.2232 22.4581 13.0935 22.4912C13.0514 22.5022 13.0145 22.4922 12.9828 22.4612C12.9331 22.4136 12.8793 22.3694 12.8213 22.3287C12.8134 22.3233 12.8045 22.3196 12.7951 22.3178C12.7857 22.316 12.776 22.3162 12.7666 22.3183C12.7573 22.3205 12.7485 22.3245 12.7408 22.3302C12.7331 22.3359 12.7267 22.3432 12.722 22.3515L12.547 22.6609C12.5308 22.6896 12.5073 22.7135 12.4789 22.7302C12.4505 22.747 12.4181 22.7559 12.3852 22.7561C12.3522 22.7563 12.3197 22.7478 12.2911 22.7314C12.2625 22.7151 12.2387 22.6915 12.2221 22.663L12.0389 22.3484C12.0341 22.3404 12.0278 22.3336 12.0202 22.3282C12.0127 22.3229 12.0041 22.3193 11.9951 22.3175C11.9861 22.3157 11.9769 22.3159 11.968 22.318C11.9591 22.3201 11.9508 22.3241 11.9437 22.3297Z" fill="#202740"/>
</g>
<defs>
<clipPath id="clip0_1501_3448">
<rect width="32" height="32" fill="white"/>
</clipPath>
</defs>
</svg>
