<svg width="32" height="32" viewBox="0 0 32 32" fill="none" xmlns="http://www.w3.org/2000/svg">
<g clip-path="url(#clip0_1395_2438)">
<path d="M32 16C32 7.16344 24.8366 0 16 0C7.16344 0 0 7.16344 0 16C0 24.8366 7.16344 32 16 32C24.8366 32 32 24.8366 32 16Z" fill="white"/>
<path d="M22.1091 4.78857L22.6185 5.2583C21.2939 5.48223 20.0486 5.73622 18.851 6.16634C16.4205 7.03889 14.1675 8.21457 12.2735 10.017C10.0887 12.0898 10.0887 14.5751 11.7532 16.9128C11.9458 17.1858 12.2995 17.3715 12.2639 17.7771C11.1292 16.7503 10.1092 15.6592 9.77739 14.0767C9.42919 12.4121 10.0505 11.0466 11.0255 9.79718C12.5521 7.83224 14.6795 6.73166 16.9407 5.85911C18.2975 5.35306 19.6871 4.93974 21.1001 4.62198C21.4961 4.52912 21.8019 4.55233 22.1091 4.78857Z" fill="#BAA7DA"/>
<path d="M9.95056 27.1757L9.30469 26.579C10.4107 26.3059 11.4894 26.1775 12.5286 25.8238C15.1667 24.9227 17.6341 23.736 19.6646 21.7711C21.6951 19.8061 21.8903 17.2555 20.1903 14.986C19.9897 14.7128 19.7916 14.4398 19.5937 14.1763C19.5937 14.1763 19.6114 14.1285 19.6265 14.1244C19.6714 14.1151 19.7171 14.1096 19.7629 14.1079C20.5262 14.9109 21.3455 15.6783 21.8111 16.7133C22.6646 18.6249 22.1717 20.3577 20.97 21.9268C19.4461 23.919 17.2996 25.0359 15.0316 25.9413C13.5975 26.5015 12.1165 26.9329 10.606 27.2303C10.3534 27.2753 10.1568 27.304 9.95056 27.1757Z" fill="#BAA6DD"/>
<path d="M24.9241 7.20441C24.5663 8.35415 23.5586 8.42105 22.6123 8.6095C19.4211 9.24171 16.4963 10.4461 14.0207 12.6186C12.9173 13.5894 12.0967 14.735 12.109 16.4051C11.893 16.0954 11.7599 15.7355 11.722 15.3598C11.6843 14.9842 11.7432 14.6051 11.8932 14.2586C12.4107 12.9067 13.4089 11.9659 14.5177 11.1179C17.1531 9.09015 20.1831 7.9841 23.377 7.27541L24.6892 6.98047C24.8258 6.99549 24.9445 7.02689 24.9241 7.20441Z" fill="#764FBC"/>
<path d="M17.8611 18.4326C18.3854 17.9587 18.9057 17.422 19.09 16.6792C19.1211 16.6257 19.1403 16.5705 19.1522 16.5142C19.4241 15.7609 19.5177 15.0182 18.9412 14.3169C18.9662 14.7841 18.9203 15.2523 18.8046 15.7056L18.8113 15.7082C18.8106 15.7123 18.8098 15.7166 18.809 15.7207L18.2468 16.784C18.2429 16.7868 18.2391 16.7897 18.2353 16.7926C17.5498 17.6255 16.6772 18.2331 15.7883 18.819C14.0705 19.9523 12.2612 20.8562 10.2471 21.3178C10.137 21.3512 10.027 21.3895 9.91676 21.428C9.66598 21.5153 9.41364 21.6033 9.15472 21.6346C8.40643 21.7233 8.18112 22.2545 7.92578 22.8908C11.7164 22.3474 15.0454 20.9505 17.8611 18.4326Z" fill="#592CA7"/>
<path d="M15.8666 11.9532C14.6322 12.7929 13.3909 13.6546 12.8051 15.132C12.5048 15.9364 12.3477 16.7311 12.9499 17.4807L12.9594 16.5413C13.2712 15.5128 13.896 14.6073 14.7468 13.9509C17.1077 12.1662 19.6872 10.8103 22.6148 10.2354C23.3822 10.0852 23.7072 9.62642 23.9803 8.96962C23.8794 8.9626 23.778 8.9626 23.6771 8.96962C20.8588 9.40112 18.2303 10.3474 15.8666 11.9532Z" fill="#582CA7"/>
<path d="M13.6319 9.74121C12.6023 10.6192 11.6259 11.5887 11.1658 12.9296C10.9091 13.6656 10.9323 14.4767 11.2259 14.9356C11.327 14.7887 11.3214 14.6221 11.3158 14.4575C11.3145 14.42 11.3133 14.3826 11.3133 14.3456C11.3117 14.3431 11.3101 14.3406 11.3085 14.3381L11.3105 14.3401C11.9578 12.5733 13.1171 11.1995 14.6587 10.1495C16.3833 8.9779 18.2704 8.14768 20.2572 7.53321C21.5284 7.13859 22.8188 6.8095 24.1147 6.51729C24.1071 6.35622 24.009 6.28265 23.916 6.21287C23.8418 6.15723 23.7708 6.10398 23.7515 6.0107L23.4469 5.77173C23.3641 5.77173 23.2803 5.76641 23.1965 5.7611C23.0292 5.75048 22.862 5.73988 22.7028 5.77173C19.3943 6.43945 16.2453 7.51273 13.6319 9.74121Z" fill="#774EBD"/>
<path d="M20.8139 18.7017C20.5967 19.6221 19.985 20.3034 19.3801 20.9738C17.2076 23.3785 14.407 24.6935 11.3428 25.5345C10.9496 25.6424 10.5372 25.6889 10.1548 25.8227C9.30415 26.1176 8.49441 26.2078 7.77344 25.525C7.79119 25.0581 8.1981 25.1959 8.43297 25.1426C10.6901 24.621 12.9009 23.9752 14.9941 22.9579C17.4425 21.7727 19.518 20.2064 20.5749 17.5806C20.9886 17.8905 20.7005 18.3358 20.8139 18.7017Z" fill="#774EBD"/>
<path d="M20.8144 18.7018C20.6259 18.3522 20.8348 17.9192 20.5781 17.5847C20.6108 17.3799 20.5125 17.1437 20.7678 16.9307C20.9478 17.5052 20.9638 18.1186 20.8144 18.7018Z" fill="#774EBD"/>
<path d="M20.1683 16.5334C20.1848 16.147 20.0482 15.8192 19.8106 15.4697C19.7826 15.7033 19.7578 15.9141 19.7342 16.1156C19.7179 16.2546 19.7021 16.3893 19.6861 16.524L19.685 16.5252C19.4494 17.2628 19.064 17.9438 18.553 18.5256C17.6463 19.5416 16.543 20.3008 15.3905 20.9836C13.2153 22.2807 10.8161 22.9949 8.34597 23.4046C7.54072 23.5404 7.33431 24.014 7.07407 24.6112C7.04393 24.6804 7.01307 24.7511 6.98047 24.8233C9.6623 24.3686 12.1694 23.6872 14.5166 22.491C16.2071 21.628 17.7897 20.6039 19.0446 19.1592C19.689 18.4177 20.1834 17.5752 20.1683 16.5334Z" fill="#764FBC"/>
</g>
<defs>
<clipPath id="clip0_1395_2438">
<rect width="32" height="32" fill="white"/>
</clipPath>
</defs>
</svg>
