<svg width="32" height="32" viewBox="0 0 32 32" fill="none" xmlns="http://www.w3.org/2000/svg">
<g clip-path="url(#clip0_1351_482)">
<path d="M16 32C24.8366 32 32 24.8366 32 16C32 7.16344 24.8366 0 16 0C7.16344 0 0 7.16344 0 16C0 24.8366 7.16344 32 16 32Z" fill="#0058E3"/>
<path d="M32 16C32 7.16344 24.8366 0 16 0C7.16344 0 0 7.16344 0 16C0 24.8366 7.16344 32 16 32C24.8366 32 32 24.8366 32 16Z" fill="black"/>
<path d="M19.0492 19.2799L12.9692 19.2863L12.8828 19.1911C12.8828 17.3243 12.8842 15.4577 12.8868 13.5911C12.8868 13.0783 12.9252 13.0391 13.4292 13.0391C15.1356 13.0391 16.842 13.0391 18.5492 13.0431C18.7188 13.0573 18.8869 13.0863 19.0516 13.1295L19.0388 13.1167C19.0796 13.1969 19.108 13.2829 19.1228 13.3719C19.1228 15.3271 19.1172 17.2825 19.106 19.2383C19.0881 19.2533 19.0691 19.2673 19.0492 19.2799Z" fill="white"/>
<path d="M9.82416 13.12C8.91936 13.12 8.01376 13.1128 7.10896 13.1256C6.83056 13.1296 6.72656 13.0128 6.72656 12.756C6.72656 10.9187 6.72656 9.08161 6.72656 7.24481C6.72656 6.90401 6.97216 6.88001 7.22576 6.88001H10.9802C11.4994 6.88001 12.0202 6.88721 12.5378 6.88001C12.8386 6.87521 12.9698 7.00241 12.969 7.30641C12.9642 9.13041 12.9642 10.9544 12.969 12.7784C12.969 13.0392 12.877 13.1288 12.6186 13.1256C11.6866 13.1136 10.7562 13.12 9.82416 13.12Z" fill="white"/>
<path d="M19.0491 13.13C19.009 12.8993 18.9824 12.6662 18.9691 12.4324C18.9619 10.7812 18.9651 9.13 18.9691 7.47961C18.9691 6.97641 19.0627 6.88281 19.5723 6.88281C21.2635 6.88281 22.9545 6.88281 24.6451 6.88281C25.1531 6.88281 25.2179 6.95001 25.2179 7.45961C25.2179 9.20361 25.2123 10.9476 25.2227 12.6924C25.2227 13.0124 25.1171 13.15 24.7891 13.1468C22.8691 13.1316 20.9555 13.126 19.0387 13.118L19.0491 13.13Z" fill="white"/>
<path d="M12.8837 19.1914L12.9765 19.2842C12.9733 21.1509 12.9703 23.0176 12.9677 24.8842C12.9677 25.3642 12.8949 25.4442 12.4189 25.4442C10.7122 25.4442 9.00552 25.4442 7.29884 25.4442C6.79884 25.4442 6.72684 25.3642 6.72684 24.8698C6.72684 23.1498 6.73724 21.4298 6.71884 19.7106C6.71484 19.3106 6.84044 19.189 7.24444 19.193C9.12364 19.2066 11.0004 19.193 12.8837 19.1914Z" fill="white"/>
<path d="M19.0505 19.2798C19.0687 19.2681 19.0861 19.2552 19.1025 19.2414C19.2197 19.2225 19.3377 19.21 19.4561 19.2038C21.2289 19.2038 23.0025 19.2094 24.7753 19.1958C25.1033 19.1958 25.2209 19.2886 25.2185 19.6238C25.2073 21.4104 25.2073 23.1972 25.2185 24.9838C25.2185 25.3342 25.0729 25.4486 24.7385 25.447C22.9913 25.439 21.2447 25.439 19.4985 25.447C19.1417 25.447 18.9593 25.3118 18.9609 24.939C18.9649 23.1654 18.9609 21.3918 18.9665 19.619C18.9811 19.503 19.0093 19.3892 19.0505 19.2798Z" fill="white"/>
<g clip-path="url(#clip1_1351_482)">
<path d="M0 16C0 7.16344 7.16344 0 16 0C24.8366 0 32 7.16344 32 16C32 24.8366 24.8366 32 16 32C7.16344 32 0 24.8366 0 16Z" fill="#061735"/>
<path fill-rule="evenodd" clip-rule="evenodd" d="M22.4244 14.3604C22.5166 14.4675 22.6148 14.569 22.713 14.6706C22.8581 14.8204 23.0031 14.9704 23.1289 15.1379C24.593 17.0942 24.1218 19.316 22.3796 20.7835C21.4906 21.5323 20.4391 21.8972 19.2679 21.9281C19.1838 21.9303 19.1084 21.949 19.0365 21.9766C18.9752 22 18.9167 22.0298 18.8577 22.0614C18.412 22.301 17.9657 22.5396 17.5193 22.7784C16.5208 23.3122 15.5223 23.8463 14.53 24.3911C13.666 24.8656 12.7554 25.1644 11.7639 25.1417C10.0572 25.1031 8.66841 24.4284 7.68158 23.0382C6.59486 21.5073 6.67572 19.6826 7.87514 18.2287C7.99479 18.0836 8.12338 17.9459 8.25188 17.8083L8.26109 17.7985C8.31613 17.7394 8.37117 17.6804 8.42541 17.6209C8.45626 17.511 8.54533 17.4513 8.63142 17.3934C8.64386 17.385 8.65623 17.3768 8.66841 17.3683C8.67654 17.3626 8.68456 17.3569 8.69241 17.3512C9.53234 16.7315 10.4707 16.3722 11.5269 16.3348C11.713 16.3258 11.8912 16.258 12.0351 16.1416C12.4796 15.9227 12.9164 15.689 13.3528 15.4554L13.3576 15.4528C13.5397 15.3553 13.7216 15.2579 13.9039 15.1616C14.0868 15.0654 14.2686 14.9674 14.4505 14.8696C14.7605 14.7027 15.0704 14.5359 15.3852 14.3772C15.5431 14.2937 15.6997 14.2072 15.8564 14.1206L15.8629 14.1171C16.5077 13.7608 17.1527 13.4043 17.8893 13.2459C19.4828 12.9028 20.9385 13.1899 22.2474 14.1626C22.2592 14.1716 22.2713 14.1803 22.2836 14.189C22.3446 14.2328 22.4071 14.2775 22.4244 14.3604ZM14.6638 21.1907C14.4261 21.3176 14.1919 21.4424 13.9575 21.567C13.484 21.818 13.0159 22.0796 12.5336 22.3139C11.4248 22.8521 10.0387 22.3199 9.6751 21.2262C9.40528 20.4187 9.91079 19.4802 10.8098 19.1336C11.398 18.906 11.9917 18.9124 12.5535 19.1959C13.2737 19.557 13.9864 19.9343 14.7182 20.3216L14.7222 20.3238L14.7588 20.3432C15.0064 20.474 15.2564 20.6064 15.5095 20.7394L14.6638 21.1907ZM17.697 16.349L15.436 17.5491C15.4589 17.5634 15.477 17.5759 15.493 17.5868C15.5133 17.6008 15.5301 17.6122 15.5482 17.6219C16.4806 18.1183 17.4046 18.63 18.348 19.1044C19.0295 19.447 19.7304 19.4257 20.399 19.0435C21.4602 18.4362 21.627 17.131 20.7519 16.3404C20.4287 16.0506 20.0237 15.8648 19.5905 15.8074C19.1574 15.7499 18.7167 15.8239 18.3273 16.0192C18.1129 16.1252 17.9064 16.238 17.697 16.349Z" fill="#74DC54"/>
<path fill-rule="evenodd" clip-rule="evenodd" d="M22.4268 14.3604C21.9002 13.9654 21.349 13.616 20.7082 13.4205C19.2483 12.9745 17.8516 13.1119 16.515 13.8453C16.3318 13.9454 16.1479 14.0432 15.9639 14.1404C15.7766 14.2393 15.5892 14.3376 15.402 14.4367C15.3787 14.4085 15.3516 14.3829 15.3217 14.3612C14.381 13.8657 13.443 13.3658 12.4969 12.8817C12.0377 12.6471 11.5433 12.6061 11.0401 12.723C10.2297 12.9109 9.57505 13.6151 9.53399 14.3348C9.49104 15.0868 10.0061 15.7919 10.8105 16.0876C11.2267 16.2402 11.6505 16.2354 12.079 16.1621C12.0127 16.2328 11.9326 16.2897 11.8434 16.3292C11.7533 16.3689 11.6559 16.3902 11.5571 16.3914C10.4677 16.4306 9.50205 16.7964 8.65057 17.4606C8.63162 17.4753 8.61231 17.4897 8.59282 17.5039C8.57622 17.5158 8.55952 17.5276 8.54274 17.5392L8.50403 17.566C8.47867 17.5836 8.45331 17.601 8.42832 17.6189C7.44474 16.7522 6.84042 15.6986 6.85983 14.3703C6.87463 13.379 7.27563 12.5197 7.92751 11.7772C8.86309 10.7068 10.0634 10.1554 11.4929 10.0799C11.5523 10.0756 11.611 10.0653 11.6679 10.0492C11.7357 10.03 11.801 10.0027 11.8625 9.96756C12.6587 9.54276 13.4545 9.11724 14.251 8.69324C14.9949 8.29714 15.7395 7.90247 16.4854 7.51098C18.4633 6.47008 20.6781 6.67391 22.3774 8.10602C23.3907 8.95669 23.9765 10.0635 23.9284 11.4055C23.8854 12.5992 23.3269 13.571 22.4268 14.3604ZM17.7795 9.95387C16.9829 10.3788 16.1819 10.7955 15.3419 11.2373C15.6605 11.4054 15.9749 11.5735 16.2869 11.7405C16.9769 12.1094 17.6557 12.4722 18.3441 12.8168C18.9803 13.1352 19.6381 13.0992 20.2702 12.7671C20.9179 12.4264 21.3402 11.7204 21.2533 11.0994C21.1157 10.1141 20.1639 9.41436 19.1086 9.47399C18.6278 9.50108 18.2197 9.71887 17.8095 9.93788L17.7795 9.95387Z" fill="#C6E251"/>
</g>
</g>
<defs>
<clipPath id="clip0_1351_482">
<rect width="32" height="32" fill="white"/>
</clipPath>
<clipPath id="clip1_1351_482">
<rect width="32" height="32" fill="white"/>
</clipPath>
</defs>
</svg>
