<svg width="32" height="32" viewBox="0 0 32 32" fill="none" xmlns="http://www.w3.org/2000/svg">
<g clip-path="url(#clip0_1501_2897)">
<path d="M32 16C32 7.16344 24.8366 0 16 0C7.16344 0 0 7.16344 0 16C0 24.8366 7.16344 32 16 32C24.8366 32 32 24.8366 32 16Z" fill="#F7CF3B"/>
<path fill-rule="evenodd" clip-rule="evenodd" d="M12.3032 6.23353C12.4394 6.13308 12.6042 6.0793 12.773 6.08009C12.8525 6.08053 12.9315 6.09308 13.0072 6.11729C13.0072 6.11729 14.7138 6.60012 15.1145 8.27489C15.3256 9.15569 15.8 9.51591 16.4253 9.76289C16.7702 9.89911 17.1451 9.9653 17.5021 10.0031V9.25449C17.5021 8.37756 18.2078 7.66729 19.0794 7.66729C19.9509 7.66729 20.6566 8.37756 20.6566 9.25449V10.8417C20.6566 11.0522 20.5736 11.254 20.4256 11.4028C20.2778 11.5516 20.0771 11.6353 19.868 11.6353C18.5557 11.871 18.2907 13.2907 18.2907 14.0161C18.2907 16.0524 19.8192 18.7716 22.1432 18.7716C22.2546 18.7585 22.3675 18.7695 22.4744 18.8039C23.1325 19.0159 22.8845 19.6849 23.2245 20.1215C24.1128 21.2623 25.3886 21.7948 25.3886 23.5393C25.3886 24.4897 24.7805 25.2618 24.0886 25.5745C23.3968 25.8869 22.6573 25.9201 21.9782 25.9201C19.2513 25.9201 17.4582 24.0479 16.6626 23.4028C13.8211 21.0977 11.5549 18.0106 8.83897 15.5661C6.71866 13.6576 6.46521 10.9238 6.46521 10.9238C6.44657 10.7442 6.48932 10.5634 6.58644 10.4115C6.68366 10.2596 6.82948 10.1456 6.9997 10.0884L9.01455 9.41258C9.15374 9.04601 9.39895 8.5298 9.96956 8.03773C10.6633 7.43956 12.3032 6.23353 12.3032 6.23353ZM13.5802 8.64689C13.4744 8.2045 13.1309 7.96018 12.8563 7.80677C12.4456 8.11348 11.445 8.85597 10.9955 9.24362C10.7977 9.4142 10.6428 9.67644 10.5333 9.89929L11.7595 11.457C12.4267 12.2609 11.1133 13.2358 10.5226 12.4413L9.36423 10.9688L8.1889 11.364C8.32818 12.0287 8.66974 13.2826 9.89098 14.3819C12.5847 16.8063 14.8352 19.8815 17.653 22.1676C18.5322 22.8804 19.6713 24.027 21.3221 24.2786C19.0302 22.6038 15.5481 18.8135 14.3474 16.3969C14.5484 16.6366 15.2416 17.053 15.4996 16.8681C15.7795 16.6665 15.8317 16.2911 15.6582 16.0094C15.4721 15.7131 15.1393 15.375 14.7926 15.0229C14.196 14.417 13.5586 13.7696 13.5586 13.2225C13.5586 12.6797 13.9056 12.4289 14.3474 12.4289C14.789 12.4289 15.1667 13.2163 15.9246 13.2163C16.2582 13.2163 16.7134 13.0082 16.7134 12.4289C16.7134 11.9661 16.4626 11.4186 15.9833 11.283C14.788 10.9449 13.8626 9.82527 13.5802 8.64689ZM21.983 21.1012C21.8298 20.9044 21.6941 20.6662 21.5963 20.3989C21.1096 20.4519 20.6566 20.6129 20.6566 21.1631C20.6566 22.7716 22.4466 23.6415 23.6142 24.0445C23.7693 23.9591 23.8113 23.8695 23.8113 23.5393C23.8113 22.4023 22.6034 21.8977 21.983 21.1012Z" fill="black"/>
<path d="M21.7422 12.4759C22.4705 12.7724 22.2668 13.7346 21.8763 14.2269C21.5505 14.6374 20.8744 14.9636 20.3526 14.7526C19.835 14.5433 19.695 13.8457 20.0929 13.451C20.2417 13.3033 20.4488 13.2196 20.6577 13.2225C20.6504 12.6732 21.2244 12.2651 21.7422 12.4759Z" fill="black"/>
<path d="M21.6696 15.0393C21.9733 14.7247 22.487 14.7234 22.7926 15.0305C23.2219 15.4616 22.9952 16.1915 22.6653 16.6075C22.4131 16.9251 21.9568 17.1902 21.4467 17.1902C21.1272 17.1949 20.8306 16.9978 20.708 16.703C20.4936 16.1875 20.8853 15.5951 21.4467 15.6031C21.444 15.3929 21.524 15.1901 21.6696 15.0393Z" fill="black"/>
</g>
<defs>
<clipPath id="clip0_1501_2897">
<rect width="32" height="32" fill="white"/>
</clipPath>
</defs>
</svg>
