<svg width="32" height="32" viewBox="0 0 32 32" fill="none" xmlns="http://www.w3.org/2000/svg">
<path d="M31.9981 16C31.9981 7.16344 25.0817 0 16.5498 0C8.01799 0 1.10156 7.16344 1.10156 16C1.10156 24.8366 8.01799 32 16.5498 32C25.0817 32 31.9981 24.8366 31.9981 16Z" fill="url(#paint0_linear_1791_611)"/>
<g filter="url(#filter0_f_1791_611)">
<path d="M15.7798 29.9206C23.2026 29.9206 29.2198 23.6884 29.2198 16.0006C29.2198 8.31276 23.2026 2.08057 15.7798 2.08057C8.35714 2.08057 2.33984 8.31276 2.33984 16.0006C2.33984 23.6884 8.35714 29.9206 15.7798 29.9206Z" fill="url(#paint1_linear_1791_611)"/>
</g>
<path d="M14.6902 7.99619C15.6171 8.01379 16.544 8.00579 17.4709 8.06019C18.0193 8.09219 18.197 7.66659 18.3592 7.31939C18.7207 6.54659 19.2861 6.33859 20.0585 6.41379C21.0318 6.50819 22.0081 6.55779 22.9829 6.62819C24.0349 6.70499 24.4659 7.39619 24.0998 8.43939C23.8542 9.13859 23.6132 9.84099 23.3274 10.5194C23.1374 10.961 23.2007 11.3194 23.4309 11.7146C24.245 13.1242 25.0236 14.5578 25.8424 15.9658C26.2548 16.6762 26.5344 17.3866 26.2749 18.2266C26.2182 18.4312 26.1784 18.6405 26.156 18.8522C25.7976 21.4698 25.2445 21.8922 22.9983 22.1386C22.4097 22.2026 22.1101 22.6042 21.7424 23.0314C20.3273 24.6746 18.4565 25.537 16.4544 26.1322C15.9153 26.2922 15.3731 26.417 14.8216 26.5578C14.0213 26.7434 13.2134 26.9002 12.424 27.121C10.8529 27.561 10.1748 26.7322 9.8179 25.513C9.30347 23.8074 8.75815 22.097 8.51098 20.3258C8.24372 18.4394 8.04753 16.5306 8.8323 14.6986C8.8729 14.6056 8.89491 14.5051 8.89703 14.4031C8.89916 14.3011 8.88134 14.1996 8.84466 14.105C8.7149 13.7306 8.64229 13.3434 8.51098 12.9706C7.91776 11.3866 8.18656 10.6314 9.47495 9.53859C9.51357 9.50499 9.57691 9.50019 9.60626 9.46179C10.717 8.00579 12.2432 7.89379 13.856 8.03139C14.1345 8.03855 14.4133 8.0268 14.6902 7.99619ZM14.0569 9.80419C13.1392 9.78979 12.2417 9.48419 11.3364 10.1354C9.98629 11.0954 9.68814 12.201 10.5332 13.6458C10.5455 13.6682 10.5486 13.697 10.5594 13.721C10.8375 14.2922 10.8298 14.8154 10.4312 15.353C10.167 15.7114 10.079 16.1674 10.0295 16.633C9.70667 19.6458 10.7402 22.393 11.5326 25.1978C11.6037 25.4506 11.7396 25.5498 11.9868 25.4682C13.2736 25.041 14.6362 24.9162 15.9091 24.4314C17.4771 24.1114 18.8227 23.3114 20.0894 22.3514C20.4084 22.1201 20.6532 21.7952 20.7923 21.4186C20.9468 20.9562 21.2558 20.7482 21.6883 20.6698C22.0405 20.6058 22.3912 20.5258 22.7434 20.4554C24.1894 20.1626 24.1554 20.1546 24.5153 18.6426C24.7115 17.817 24.6374 17.1258 24.16 16.4026C23.5128 15.4282 22.9906 14.3642 22.3696 13.3626C21.6512 12.209 21.1816 11.0858 21.8165 9.67299C22.4237 8.32099 22.3449 8.32739 20.9066 8.19939C20.1697 8.13379 19.6321 8.23619 19.2907 8.99939C18.9972 9.64899 18.4334 9.83139 17.7459 9.81379C16.5209 9.77859 15.2881 9.80259 14.0553 9.80419H14.0569Z" fill="#FDFDFE"/>
<defs>
<filter id="filter0_f_1791_611" x="0.659844" y="0.400566" width="30.2389" height="31.1998" filterUnits="userSpaceOnUse" color-interpolation-filters="sRGB">
<feFlood flood-opacity="0" result="BackgroundImageFix"/>
<feBlend mode="normal" in="SourceGraphic" in2="BackgroundImageFix" result="shape"/>
<feGaussianBlur stdDeviation="0.84" result="effect1_foregroundBlur_1791_611"/>
</filter>
<linearGradient id="paint0_linear_1791_611" x1="1.10156" y1="13.92" x2="31.9981" y2="13.92" gradientUnits="userSpaceOnUse">
<stop stop-color="#B179FF"/>
<stop offset="1" stop-color="#6D4AB7"/>
</linearGradient>
<linearGradient id="paint1_linear_1791_611" x1="29.2198" y1="16.0006" x2="3.09586" y2="16.0006" gradientUnits="userSpaceOnUse">
<stop stop-color="#36277A"/>
<stop offset="1" stop-color="#39297E" stop-opacity="0"/>
</linearGradient>
</defs>
</svg>
