<svg width="32" height="32" viewBox="0 0 32 32" fill="none" xmlns="http://www.w3.org/2000/svg">
<g clip-path="url(#clip0_1501_3365)">
<path d="M32 16C32 7.16344 24.8366 0 16 0C7.16344 0 0 7.16344 0 16C0 24.8366 7.16344 32 16 32C24.8366 32 32 24.8366 32 16Z" fill="black"/>
<path d="M26.0992 10.0379C25.4827 8.97101 24.3787 8.33204 23.1456 8.33204H16.3458C16.2578 8.32617 16.1697 8.32031 16.0816 8.32031C15.9936 8.32031 15.9054 8.32617 15.8174 8.33204H9.01759C7.78448 8.33204 6.68054 8.97101 6.06398 10.0379C5.44742 11.1048 5.44742 12.3769 6.06398 13.4438L13.128 25.6545C13.7446 26.7214 14.8486 27.3603 16.0816 27.3603C17.3147 27.3603 18.4187 26.7214 19.0353 25.6545L26.0992 13.4438C26.7158 12.3827 26.7158 11.1048 26.0992 10.0379ZM17.4028 24.7166C17.1268 25.1914 16.6336 25.4787 16.0816 25.4787C15.5296 25.4787 15.0365 25.1914 14.7604 24.7166L10.7851 17.8462L14.7604 10.9699C15.0071 10.542 15.424 10.2723 15.9054 10.2196H16.2578C16.7393 10.2723 17.1563 10.5478 17.4028 10.9699L21.3781 17.8403L17.4028 24.7166Z" fill="white"/>
</g>
<defs>
<clipPath id="clip0_1501_3365">
<rect width="32" height="32" fill="white"/>
</clipPath>
</defs>
</svg>
