<svg width="32" height="32" viewBox="0 0 32 32" fill="none" xmlns="http://www.w3.org/2000/svg">
<g clip-path="url(#clip0_1501_2989)">
<path d="M32 16C32 7.16344 24.8366 0 16 0C7.16344 0 0 7.16344 0 16C0 24.8366 7.16344 32 16 32C24.8366 32 32 24.8366 32 16Z" fill="white"/>
<path d="M9.80395 20.2352C9.88635 19.034 9.8628 17.7985 10.01 16.5687C10.0924 15.8996 10.2395 15.236 10.2984 14.5668C10.3749 13.6517 10.2807 12.7365 10.2572 11.8155C10.2513 11.5468 10.2219 11.2779 10.2925 11.0091C10.3278 10.8718 10.3808 10.7288 10.5279 10.7002C10.781 10.643 10.7104 10.5057 10.6574 10.357C10.5985 10.1911 10.5456 10.0252 10.4808 9.86508C10.1277 9.02431 10.4279 8.26927 10.8575 7.55999C11.2224 6.95373 11.6991 6.41033 12.1994 5.90125C12.7585 5.32925 13.453 5.04325 14.2711 5.03181C14.4241 5.03181 14.5772 5.02609 14.7361 5.01465C14.8126 5.00893 14.8891 5.00893 14.9715 5.00321C15.0421 4.99749 15.1186 5.00321 15.1892 4.99177C15.2128 4.98605 15.2363 4.98033 15.2599 4.97461C15.301 4.97461 15.3423 4.98605 15.3776 4.98605C15.4658 4.99749 15.5482 5.00893 15.6366 5.02609C15.8072 5.05469 15.9779 5.08329 16.1486 5.11761C16.4899 5.18053 16.8254 5.26061 17.1608 5.34641C17.3433 5.39217 17.5258 5.44365 17.6964 5.52945C18.0084 5.69533 18.2321 5.97561 18.5322 6.15865C18.7382 6.28449 18.9677 6.35885 19.1561 6.50757C19.3679 6.67345 19.5033 6.90797 19.6328 7.14249C19.774 7.39411 19.9153 7.64579 20.0095 7.92035C20.033 7.98899 20.0565 8.06335 20.0742 8.13199C20.1448 8.42371 20.1801 8.72115 20.2155 9.01859C20.2508 9.31031 20.2919 9.60768 20.392 9.88796C20.4155 9.9566 20.445 10.0252 20.4744 10.0939C20.4862 10.1225 20.5038 10.1511 20.5097 10.1797C20.5097 10.2197 20.5038 10.2598 20.5038 10.2998C20.4979 11.1635 20.4214 12.0215 20.4038 12.8852C20.3744 14.2808 20.2743 15.6765 20.1154 17.0664C20.086 17.3123 20.1213 17.5526 20.1801 17.7871C20.3508 18.4849 20.4038 19.1827 20.2979 19.9034C20.2095 20.5098 20.2095 21.1332 20.1684 21.7509C20.1507 22.0255 19.9977 22.1399 19.7211 22.1456C19.3974 22.1513 19.1031 22.0198 18.7794 22.0141C18.3262 22.0026 17.8907 22.1056 17.4492 22.1513C16.7077 22.22 15.9896 22.0884 15.2599 22.0026C15.1304 21.9912 15.0068 21.934 14.8773 21.9397C14.7419 21.9397 14.6124 21.9454 14.4771 21.9397C14.4124 21.934 14.3476 21.934 14.2829 21.9168C14.2417 21.9054 14.2122 21.8882 14.171 21.8825C13.9945 21.8653 13.8179 21.8653 13.6413 21.8539C13.4648 21.8482 13.2882 21.8367 13.1116 21.831C12.7585 21.8139 12.3995 21.8024 12.0464 21.791C11.6932 21.7795 11.3342 21.7681 10.9811 21.7567C10.8928 21.7567 10.8045 21.7509 10.7162 21.7509C10.6339 21.7509 10.5397 21.7338 10.4573 21.7452C10.4337 21.7509 10.4102 21.7624 10.3925 21.7681C10.3101 21.791 10.2101 21.7795 10.1277 21.7624C9.86869 21.6937 9.80395 21.4249 9.79806 21.1961C9.79217 21.0417 9.80983 20.8873 9.81572 20.7328C9.80395 20.5784 9.80395 20.424 9.80395 20.2352Z" fill="#6B00FA" stroke="#362745" stroke-width="0.5" stroke-miterlimit="10"/>
<path d="M20.664 25.0349C20.6169 25.3323 20.6581 25.6698 20.5698 25.9901C20.5345 26.1159 20.505 26.236 20.3638 26.2875C20.2285 26.3333 20.1343 26.2761 20.0696 26.1617C20.0225 26.0816 19.9401 26.0873 19.8577 26.0816C19.1926 26.0416 18.5276 26.0015 17.8684 25.9672C15.5966 25.8529 13.3306 25.7385 11.0588 25.6241C10.4232 25.5955 9.78761 25.5783 9.15198 25.544C8.9813 25.5325 8.63994 25.544 8.59874 25.3209C8.58697 25.2523 8.54577 25.1951 8.52811 25.1264C8.48692 24.9834 8.48103 24.829 8.48103 24.6803C8.46926 24.3371 8.46338 23.9881 8.4516 23.6449C8.4516 23.5877 8.4516 23.5306 8.44572 23.4734C8.44572 23.4334 8.43395 23.4105 8.41629 23.3819C8.37509 23.2961 8.41041 23.1988 8.46926 23.1302C8.54577 23.0387 8.65171 22.9986 8.76353 23.0444C9.12844 23.176 9.51099 23.1474 9.88178 23.1702C11.6238 23.2675 13.3718 23.3418 15.1198 23.4219C16.7089 23.4963 18.2921 23.5763 19.8812 23.6564C20.4285 23.685 20.6404 23.9023 20.6404 24.44C20.6404 24.6288 20.6522 24.8175 20.664 25.0349Z" fill="#4300BF" stroke="#362745" stroke-width="0.5" stroke-miterlimit="10"/>
<path d="M15.6003 21.9737C15.0648 21.9565 14.5233 21.9336 13.9936 21.8593C13.6523 21.8078 13.3226 21.7334 12.9812 21.6877C12.6163 21.6419 12.2397 21.6362 11.8748 21.6305C11.3157 21.619 10.7447 21.6133 10.2032 21.7449C9.66183 21.8764 9.13214 22.1681 8.84375 22.6371C9.35578 23.0032 10.0268 23.049 10.6624 23.0833C11.0509 23.1062 11.4392 23.1233 11.8277 23.1462C14.694 23.3006 17.5602 23.4551 20.4264 23.4608C20.3382 23.1977 20.2499 22.9288 20.1557 22.6657C20.0732 22.4312 19.9556 22.1566 19.6731 22.0994C19.5789 22.0823 19.4847 22.0994 19.3905 22.1052C19.2257 22.1052 19.0552 22.0937 18.8903 22.088C18.1899 22.0651 17.4837 22.0366 16.7834 22.0137C16.389 22.0023 15.9947 21.9851 15.6003 21.9737Z" fill="#6B00FA" stroke="#362745" stroke-width="0.5" stroke-miterlimit="10"/>
<path d="M22.1142 21.4935C22.2025 21.4478 22.3025 21.402 22.3555 21.3219C22.4084 21.2418 22.4144 21.1446 22.4203 21.0531C22.4438 20.6756 22.4673 20.3038 22.4909 19.9263C22.5203 19.503 22.5438 19.0797 22.5379 18.6565C22.5321 18.2561 22.4909 17.8557 22.5144 17.461C22.5379 17.095 22.6145 16.7346 22.6557 16.3685C22.8028 15.0759 22.4909 13.7717 22.5497 12.4733C22.5733 11.9928 22.6498 11.5124 22.6792 11.0262C22.7675 9.71634 22.5321 8.38364 22.0024 7.17672C21.9553 7.07376 21.9082 6.9708 21.8199 6.90216C21.7022 6.81064 21.5433 6.7992 21.4138 6.72484C21.2314 6.61616 21.1607 6.39887 21.0607 6.21011C20.8135 5.74107 20.3426 5.42075 19.8306 5.24343C19.3186 5.06611 18.7771 5.01463 18.2415 4.96315C17.8649 4.92883 17.4882 4.89451 17.1115 4.85447C16.9291 4.83731 16.6642 4.8945 16.6937 5.07182C17.2351 5.4665 17.859 5.75251 18.4298 6.10715C19.0008 6.46179 19.5422 6.9136 19.8129 7.51992C19.9307 7.77732 19.9895 8.0576 20.0484 8.33788C20.225 9.13862 20.3956 9.93942 20.4368 10.7574C20.4662 11.3522 20.4251 11.9528 20.3839 12.5534C20.3309 13.337 20.2956 14.1263 20.2602 14.91C20.225 15.6936 20.2014 16.4829 20.1897 17.2666C20.172 18.0559 20.1661 18.8395 20.172 19.6231C20.172 20.0178 20.1778 20.4125 20.1837 20.8014C20.1837 20.9959 20.1897 21.1961 20.1955 21.3906C20.2014 21.5736 20.1837 21.7738 20.2073 21.9626C20.2485 22.2428 20.5722 22.2028 20.7723 22.117C21.1372 21.9626 21.4904 21.7795 21.8552 21.6079C21.92 21.585 22.0495 21.4935 22.1142 21.4935Z" fill="#4300BF" stroke="#362745" stroke-width="0.5" stroke-miterlimit="10"/>
<path d="M20.5772 23.3929C20.6007 23.4329 20.6302 23.4787 20.6773 23.4787C20.7067 23.4787 20.7361 23.4615 20.7597 23.4501C21.0304 23.2728 21.2541 23.0325 21.5483 22.901C21.7485 22.8094 21.9662 22.7751 22.1722 22.7065C22.4665 22.6092 22.7314 22.4434 22.9962 22.2832C23.0903 22.226 23.1963 22.1402 23.1786 22.0315C23.1727 21.9915 23.1492 21.9572 23.1257 21.9286C22.9785 21.7341 22.8019 21.5682 22.6019 21.4309C22.5606 21.4023 22.5195 21.3795 22.4724 21.3738C22.4135 21.3681 22.3547 21.3966 22.3017 21.4195C21.872 21.6254 21.4483 21.8313 21.0245 22.043C20.8126 22.1459 20.6007 22.2546 20.3889 22.3576C20.2124 22.4434 20.0652 22.5063 20.1829 22.7122C20.3183 22.941 20.4595 23.1641 20.5772 23.3929Z" fill="#100342" stroke="#362745" stroke-width="0.5" stroke-miterlimit="10"/>
<path d="M20.7675 25.8516C20.7734 25.8916 20.7792 25.9374 20.8028 25.966C20.8675 26.0346 20.9794 25.9946 21.0618 25.9488C21.7739 25.5598 22.4861 25.1709 23.1982 24.7819C23.2688 24.7419 23.3453 24.7018 23.3924 24.6332C23.4395 24.5588 23.4454 24.4674 23.4513 24.3816C23.4748 23.9183 23.4925 23.4549 23.516 22.9859C23.5219 22.8543 23.5219 22.7113 23.4454 22.6084C23.363 22.494 23.2041 22.4597 23.0628 22.4768C22.9216 22.494 22.7921 22.5626 22.6685 22.6313C22.0976 22.9401 21.5267 23.2433 20.9558 23.5465C20.7675 23.6494 20.538 23.7181 20.5556 23.9583C20.5733 24.2386 20.6203 24.5188 20.6498 24.7934C20.6674 24.9707 20.691 25.1423 20.7086 25.3196C20.7263 25.4969 20.7675 25.68 20.7675 25.8516Z" fill="#100342" stroke="#362745" stroke-width="0.5" stroke-miterlimit="10"/>
<path d="M17.5395 7.90397C17.6513 7.99549 17.6395 8.18425 17.5218 8.27005C17.4041 8.35585 17.2158 8.29864 17.1628 8.16708C17.1099 8.03552 17.2099 7.86964 17.3512 7.84676C17.4159 7.84104 17.4865 7.85821 17.5395 7.90397Z" fill="#4300BF"/>
<path d="M18.4923 8.70925C18.4864 8.73785 18.4805 8.76073 18.4805 8.78933C18.4864 8.84081 18.5217 8.88085 18.5688 8.89801C18.6924 8.96093 18.8748 8.86941 18.8925 8.73213C18.9042 8.59491 18.7512 8.46335 18.6159 8.50339C18.6041 8.49767 18.5864 8.50911 18.5806 8.52055C18.5276 8.58347 18.5158 8.64061 18.4923 8.70925Z" fill="#4300BF"/>
<path d="M17.9102 9.51513C17.822 9.51513 17.7337 9.51513 17.6513 9.51513C17.6277 9.51513 17.6042 9.51513 17.5866 9.53229C17.5748 9.54373 17.5748 9.56089 17.5689 9.57805C17.5571 9.64669 17.5513 9.70961 17.5453 9.77825C17.5395 9.85833 17.5395 9.96129 17.6101 10.0013C17.6572 10.0242 17.7102 10.0185 17.7572 10.0299C17.7984 10.0414 17.8337 10.0642 17.875 10.0585C17.9573 10.0585 18.0103 9.97273 18.028 9.89265C18.0456 9.80685 18.0515 9.72105 18.0103 9.64097C17.9691 9.56089 17.8867 9.50369 17.7984 9.51513" fill="#4300BF"/>
<path d="M21.8829 12.0039C21.824 11.9467 21.7534 11.9525 21.6768 11.9753C21.6063 11.9982 21.565 12.0669 21.5709 12.1355C21.5709 12.1927 21.6121 12.2499 21.6533 12.2899C21.7181 12.3529 21.8358 12.2957 21.8829 12.2385C21.9417 12.1813 21.9417 12.0726 21.8829 12.0039Z" fill="#6B00FA"/>
<path d="M21.4705 12.9642C21.4646 12.9298 21.441 12.8726 21.4116 12.844C21.3763 12.8097 21.3057 12.8269 21.2644 12.844C21.2292 12.8612 21.1938 12.8841 21.1644 12.9127C21.1526 12.9241 21.1409 12.9298 21.135 12.947C21.1173 12.9756 21.1114 13.0042 21.1055 13.0385C21.1055 13.0557 21.0879 13.1358 21.1055 13.1472C21.1762 13.193 21.2703 13.2044 21.3527 13.1701C21.4234 13.13 21.4822 13.0442 21.4705 12.9642Z" fill="#6B00FA"/>
<path d="M11.3282 20.1953C11.2164 20.1953 11.1105 20.2468 11.0575 20.3383C11.0045 20.4298 11.0222 20.5614 11.1046 20.63C11.1929 20.7044 11.4813 20.6987 11.5637 20.6243C11.6461 20.55 11.5342 20.4184 11.4872 20.3097C11.4165 20.2697 11.34 20.2296 11.2635 20.1953" fill="#4300BF"/>
<path d="M10.8207 18.3008C10.7854 18.3923 10.7559 18.4839 10.7383 18.5811C10.7324 18.5983 10.7324 18.6211 10.7442 18.6383C10.7618 18.6669 10.797 18.6726 10.8324 18.6783C10.9206 18.6841 11.0208 18.6841 11.0738 18.6211C11.0914 18.604 11.1031 18.5754 11.109 18.5525C11.1384 18.461 11.1208 18.3523 11.0384 18.3008C10.9561 18.2493 10.8266 18.2779 10.8089 18.3695" fill="#4300BF"/>
<path d="M12.1324 19.2407C12.1206 19.2121 12.0971 19.1663 12.0677 19.1549C12.05 19.1492 12.0206 19.1549 11.997 19.1549C11.9735 19.1549 11.9558 19.1549 11.9323 19.1549C11.9146 19.1549 11.897 19.1549 11.8852 19.1606C11.8617 19.172 11.8381 19.2064 11.8205 19.2235C11.8087 19.2292 11.8028 19.235 11.7969 19.2464C11.7793 19.275 11.7734 19.315 11.7734 19.3494C11.7734 19.3608 11.7734 19.4523 11.7852 19.4523C11.844 19.4638 12.05 19.4809 12.1089 19.4924C12.1442 19.4981 12.0441 19.5095 12.0735 19.4866C12.0853 19.4752 12.0971 19.4638 12.1089 19.4466C12.1383 19.378 12.1559 19.3036 12.1324 19.2407Z" fill="#4300BF"/>
<path d="M17.8988 25.3829C18.0107 25.4629 18.1931 25.4401 18.2696 25.3257C18.3285 25.2399 18.3167 25.1312 18.2991 25.0282C18.2932 24.9996 18.2873 24.971 18.2696 24.9539C18.252 24.9367 18.2226 24.931 18.1931 24.931C18.1107 24.9195 18.0401 24.9253 17.9577 24.9253C17.9459 24.9253 17.9342 24.9253 17.9224 24.9253C17.893 24.9367 17.8635 24.9596 17.84 24.9825C17.7812 25.0397 17.7576 25.1083 17.7753 25.1884C17.7929 25.2627 17.8341 25.3371 17.8988 25.3829Z" fill="#6B00FA"/>
<path d="M17.1544 24.268C17.072 24.3023 17.0308 24.3995 17.0602 24.4796C17.1073 24.5196 17.1661 24.554 17.2309 24.5597C17.2956 24.5654 17.3663 24.5254 17.378 24.4624C17.3898 24.411 17.3604 24.3652 17.3309 24.3194C17.3015 24.2737 17.2662 24.2279 17.2132 24.2108C17.1603 24.1993 17.0896 24.2451 17.1132 24.2966" fill="#6B00FA"/>
<path d="M21.2771 20.2983C21.1829 20.2697 21.077 20.3097 21.0123 20.3783C20.9475 20.4527 20.9181 20.5499 20.9122 20.6415C20.9063 20.6929 20.9122 20.7444 20.9416 20.7845C20.9828 20.8359 21.0593 20.8417 21.1241 20.8245C21.2536 20.8016 21.3713 20.7101 21.4066 20.59C21.4419 20.4699 21.3595 20.3154 21.23 20.2983C21.3242 20.2868 21.2123 20.2353 21.2771 20.2983Z" fill="#6B00FA"/>
<path d="M21.6952 18.8516C21.5716 18.8744 21.4539 18.9602 21.4421 19.0804C21.4303 19.2005 21.5716 19.3149 21.6834 19.2577C21.7952 19.1547 21.7834 18.9545 21.6657 18.8573" fill="#6B00FA"/>
<path d="M17.828 7.20451C17.7574 7.22167 17.728 7.31319 17.7574 7.37611C17.7868 7.43903 17.8633 7.47335 17.9398 7.47335C17.9752 7.47335 18.0164 7.46191 18.0341 7.43331C18.0399 7.41615 18.0458 7.39899 18.0458 7.38183C18.0458 7.31891 18.0458 7.25027 18.0281 7.18735C17.9634 7.18163 17.8987 7.18163 17.8339 7.19307" fill="#100342"/>
<path d="M17.1794 8.21805C17.1264 8.22377 17.0676 8.22949 17.0205 8.25237C16.9734 8.27525 16.9322 8.32673 16.9381 8.37821C16.944 8.44679 17.0205 8.49255 17.0853 8.52115C17.1382 8.54403 17.2088 8.56691 17.2559 8.52687C17.303 8.48683 17.2853 8.41819 17.3207 8.36677C17.3324 8.34961 17.3501 8.33245 17.356 8.30957C17.3618 8.26953 17.3148 8.24093 17.2736 8.23521C17.2324 8.22949 17.1853 8.22377 17.1677 8.18945" fill="#100342"/>
<path d="M16.3035 6.98242C16.2505 7.01102 16.1917 7.05106 16.1622 7.10254C16.1034 7.19978 16.1504 7.35422 16.2623 7.3771C16.3741 7.39998 16.4742 7.30274 16.533 7.2055C16.5389 7.19406 16.5447 7.18262 16.5447 7.17118C16.5447 7.15974 16.533 7.1483 16.5212 7.14258C16.4565 7.09682 16.3917 7.05106 16.327 7.01102C16.3093 6.99958 16.2799 6.98814 16.2682 7.01102" fill="#100342"/>
<path d="M11.7673 7.98911C11.7378 8.05775 11.7261 8.13783 11.7319 8.21791C11.7849 8.24651 11.8497 8.24079 11.9026 8.21791C11.9556 8.18931 11.9968 8.14927 12.0321 8.09779C12.038 8.08635 12.0498 8.07491 12.0498 8.05775C12.0498 8.03487 12.038 8.01199 12.0203 7.99483C11.985 7.95479 11.9379 7.92619 11.885 7.92047C11.832 7.91475 11.7731 7.95479 11.7673 8.00055" fill="#100342"/>
<path d="M11.5025 8.92028C11.4554 8.94316 11.4495 9.01752 11.4789 9.05756C11.5142 9.0976 11.5731 9.11476 11.6261 9.10904C11.6614 9.10332 11.7026 9.09188 11.7143 9.06328C11.7379 9.01752 11.7026 8.96604 11.6673 8.93172C11.6319 8.89168 11.579 8.84592 11.5201 8.86308" fill="#100342"/>
<path d="M13.8857 5.98115C13.8621 6.03835 13.8621 6.10699 13.8798 6.16991C13.9092 6.21567 13.9798 6.22711 14.0269 6.19851C14.074 6.16991 14.0976 6.11271 14.0917 6.05551C14.0799 5.99259 14.0093 5.92967 13.9504 5.95827" fill="#100342"/>
<path d="M19.053 11.5756C19.0118 11.6443 19.0294 11.7472 19.1001 11.793C19.1707 11.8388 19.2766 11.8159 19.3178 11.7472C19.3414 11.7129 19.3414 11.6614 19.3296 11.6214C19.3061 11.5642 19.2413 11.5242 19.1766 11.5242C19.1118 11.5184 19.0471 11.547 19 11.5871C19.0236 11.5928 19.0412 11.6042 19.0647 11.61" fill="#100342"/>
<path d="M18.6682 19.9769C18.6623 20.0627 18.6211 20.1427 18.6211 20.2285C18.6211 20.3143 18.68 20.4116 18.7683 20.4116C18.8448 20.4116 18.8978 20.3429 18.933 20.28C18.9625 20.24 18.986 20.1942 19.0096 20.1542C19.0273 20.1313 19.039 20.1027 19.0273 20.0741C19.0214 20.0627 19.0096 20.0512 18.9978 20.0455C18.8978 19.9826 18.7741 19.954 18.6506 19.9597" fill="#100342"/>
<path d="M18.6682 19.9769C18.6623 20.0627 18.6211 20.1427 18.6211 20.2285C18.6211 20.3143 18.68 20.4116 18.7683 20.4116C18.8448 20.4116 18.8978 20.3429 18.933 20.28C18.9625 20.24 18.986 20.1942 19.0096 20.1542C19.0273 20.1313 19.039 20.1027 19.0273 20.0741C19.0214 20.0627 19.0096 20.0512 18.9978 20.0455C18.8978 19.9826 18.7741 19.954 18.6506 19.9597" stroke="#362745" stroke-width="0.5" stroke-miterlimit="10"/>
<path d="M18.1523 18.9881C18.1818 19.0511 18.2288 19.114 18.2936 19.1311C18.4054 19.1655 18.5349 19.0339 18.4878 18.9309C18.4407 18.828 18.2523 18.8223 18.2053 18.9309" fill="#100641"/>
<path d="M15.7486 20.5211C15.7075 20.624 15.7957 20.7499 15.9076 20.767C16.0194 20.7842 16.1312 20.6927 16.1607 20.584C16.1665 20.5668 16.1665 20.5439 16.1548 20.5268C16.143 20.5096 16.1253 20.5039 16.1018 20.4982C16.0076 20.4753 15.9076 20.4524 15.8134 20.4238C15.8016 20.4524 15.7899 20.4867 15.784 20.5153" fill="#100641"/>
<path d="M11.3574 16.3919C11.3457 16.4434 11.328 16.4948 11.3398 16.5463C11.3457 16.5978 11.381 16.6492 11.4339 16.6607C11.4928 16.6778 11.5575 16.6321 11.5811 16.5749C11.6046 16.5177 11.6046 16.4548 11.5987 16.3976C11.5281 16.3862 11.4575 16.3747 11.3927 16.3633" fill="#100342"/>
<path d="M10.7948 24.096C10.7713 24.1703 10.7536 24.2676 10.8184 24.3191C10.889 24.3763 10.989 24.3248 11.0773 24.3419C11.095 24.2733 11.1009 24.1989 11.0832 24.1303C11.0655 24.0617 11.0126 23.993 10.9419 23.9816C10.8713 23.9644 10.7889 24.0216 10.7948 24.096C10.8066 24.096 10.8301 24.096 10.8478 24.096H10.7948Z" fill="#100641"/>
<path d="M12.1367 24.5932C12.1367 24.6847 12.1367 24.7705 12.1426 24.862C12.2073 24.8735 12.278 24.8792 12.3486 24.8906C12.3663 24.8906 12.3898 24.8963 12.4075 24.8849C12.4251 24.8735 12.431 24.8506 12.4369 24.8277C12.4604 24.7305 12.4604 24.6218 12.3898 24.5474C12.3192 24.4788 12.1661 24.4959 12.1544 24.5932" fill="#100641"/>
<path d="M18.2155 24.7539C18.1507 24.8053 18.1154 24.8969 18.1507 24.9712C18.1861 25.0456 18.292 25.0856 18.3626 25.0341C18.3921 24.9712 18.4215 24.9026 18.4097 24.8339C18.398 24.7653 18.3038 24.7138 18.2449 24.7596" fill="#100641"/>
<path d="M21.4408 24.7651C21.429 24.8108 21.4231 24.8623 21.4408 24.9081C21.4585 24.9538 21.5232 24.9824 21.5644 24.9538C21.582 24.9424 21.5879 24.9252 21.5938 24.9081C21.6174 24.8566 21.6291 24.8051 21.6233 24.7536C21.6174 24.7022 21.5762 24.6507 21.5232 24.645C21.4702 24.6392 21.4114 24.6907 21.429 24.7365" fill="#100641"/>
<path d="M21.1232 17.8844C21.1113 17.9359 21.0937 17.9874 21.1055 18.0388C21.1172 18.0903 21.1584 18.1418 21.2114 18.1361C21.2938 18.1361 21.3291 18.0388 21.3409 17.9588C21.3527 17.8901 21.3526 17.7986 21.2879 17.77C21.2173 17.7414 21.1526 17.8158 21.1113 17.873" fill="#100641"/>
<path d="M21.7174 9.25802C21.7056 9.3095 21.6997 9.3667 21.7233 9.41246C21.7468 9.45822 21.8116 9.48682 21.8586 9.45822C21.8822 9.44678 21.894 9.4239 21.9057 9.40102C21.9234 9.35526 21.9411 9.3095 21.9292 9.26374C21.9175 9.21798 21.8822 9.17222 21.8351 9.1665C21.788 9.16078 21.7351 9.20654 21.7468 9.2523" fill="#100342"/>
<path d="M21.3945 10.0261C21.3945 10.089 21.3945 10.1462 21.4004 10.2091C21.4888 10.2206 21.577 10.1577 21.5888 10.0719C21.6006 9.98605 21.5299 9.90025 21.4417 9.89453C21.4475 9.93457 21.4358 9.97461 21.4181 10.0089" fill="#100342"/>
<path d="M22.1737 10.1688C22.1502 10.2317 22.1326 10.3004 22.1443 10.369C22.1561 10.4377 22.2267 10.4948 22.2915 10.4834C22.3797 10.4662 22.3974 10.3461 22.3915 10.2546C22.3856 10.1917 22.3797 10.1173 22.3268 10.083C22.2738 10.0487 22.1737 10.0887 22.1973 10.1459" fill="#100342"/>
<path d="M13.0562 16.678C13.1563 16.3349 12.9679 16.026 12.6972 15.7171C12.2793 15.2424 11.8968 14.7447 11.8085 14.0813C11.6143 12.5826 12.4736 11.1184 13.892 10.5864C15.381 10.0259 17.0289 10.5292 17.9176 11.8105C18.312 12.3767 18.5121 13.0002 18.5121 13.6866C18.5121 14.3157 18.3061 14.8591 17.8529 15.311C17.6352 15.5226 17.4527 15.7686 17.2231 15.9688C16.9818 16.1747 16.8936 16.4092 16.9112 16.7066C16.923 16.9411 16.8936 17.1757 16.8995 17.4102C16.8995 17.4273 16.8995 17.4445 16.8995 17.4559C16.8995 17.4788 16.8936 17.496 16.8936 17.5131C16.8936 17.5246 16.8936 17.6333 16.8995 17.6333C16.8583 17.6333 16.8171 17.6333 16.7818 17.639C16.7347 17.639 16.6876 17.6447 16.6405 17.639C16.5522 17.6275 16.4698 17.6275 16.3815 17.6218C16.3639 17.6218 16.3462 17.6218 16.3227 17.6161C16.2874 17.6161 16.258 17.6104 16.2226 17.6104C16.2108 17.6104 16.1991 17.6047 16.1814 17.6047C16.1637 17.6047 16.1461 17.6047 16.1285 17.6047C16.0637 17.6047 15.9931 17.6047 15.9224 17.6047C15.9224 17.5703 15.9166 17.536 15.9166 17.5017C15.9107 17.4331 15.9107 17.3644 15.9107 17.2958C15.9107 17.1642 15.9048 17.0327 15.9048 16.9011C15.9048 16.8954 15.9048 16.8897 15.8989 16.8839C15.893 16.8782 15.8872 16.8782 15.8813 16.8782C15.74 16.8668 15.5988 16.8782 15.4575 16.8954C15.4575 16.9755 15.4575 17.0555 15.4516 17.1413C15.4516 17.1642 15.4516 17.1871 15.4516 17.21C15.4516 17.2443 15.4516 17.2729 15.4457 17.3072C15.4457 17.3187 15.4399 17.3244 15.4399 17.3301C15.434 17.3415 15.434 17.3587 15.434 17.3701C15.4281 17.4331 15.4281 17.5017 15.4399 17.5646C15.3986 17.5646 15.3575 17.5646 15.3104 17.5646C15.2574 17.5646 15.1986 17.5646 15.1456 17.5532C15.0808 17.5417 15.0102 17.5475 14.9454 17.5417C14.9219 17.5417 14.8925 17.5417 14.869 17.536C14.8042 17.536 14.7395 17.5246 14.6747 17.5246C14.6395 17.5246 14.61 17.5246 14.5747 17.5246C14.5688 17.5246 14.4805 17.5303 14.4746 17.536C14.4746 17.4788 14.4805 17.4159 14.4805 17.3587C14.4805 17.3301 14.4805 17.3015 14.4864 17.2672C14.4864 17.2386 14.4923 17.21 14.4923 17.1814C14.4923 17.067 14.4923 16.9526 14.4864 16.8325C14.3334 16.8039 14.1745 16.7924 14.0155 16.7924C14.0097 16.924 14.0038 17.0555 13.992 17.1871C13.9861 17.25 13.9861 17.3187 13.9803 17.3873C13.9803 17.4045 13.9803 17.4216 13.9803 17.4388C13.9803 17.4502 13.9803 17.4617 13.9744 17.4674C13.9685 17.4788 13.939 17.4788 13.9273 17.4788C13.8449 17.4845 13.7566 17.4788 13.6742 17.4731C13.6389 17.4731 13.5977 17.4674 13.5624 17.4674C13.4682 17.4617 13.374 17.4617 13.2799 17.4559C13.2504 17.4559 13.2151 17.4502 13.1857 17.4502C13.1681 17.4445 13.1504 17.4388 13.1269 17.4388C13.121 17.4388 13.0268 17.4331 13.0268 17.4331C13.0268 17.4273 13.0268 17.4216 13.0268 17.4159C13.0268 17.353 13.0268 17.2843 13.0268 17.2157C13.0268 17.1871 13.0209 17.1585 13.0327 17.1299C13.0386 17.1185 13.0327 17.107 13.0327 17.0956C13.0327 17.067 13.0327 17.0384 13.0327 17.0098C13.0327 16.9354 13.0386 16.8668 13.0386 16.7924C13.0503 16.7924 13.0503 16.7695 13.0562 16.678ZM14.9631 15.6256C15.0161 15.6313 15.0691 15.6313 15.122 15.637C15.2044 15.6428 15.2927 15.6485 15.3751 15.6599C15.3457 15.5741 15.3162 15.4883 15.2809 15.4083C15.2692 15.3739 15.2515 15.3453 15.2397 15.3167C15.228 15.2881 15.2103 15.2652 15.1986 15.2366C15.1927 15.2309 15.1927 15.2195 15.1927 15.2138C15.1868 15.1852 15.175 15.1623 15.1691 15.1337C15.1397 15.065 15.1162 14.9907 15.0868 14.9163C15.0749 14.882 15.0632 14.8534 15.0455 14.8191C15.0455 14.8248 15.0338 14.842 15.0338 14.842C15.0279 14.8534 15.0161 14.8648 15.0102 14.8763C14.9337 14.9792 14.8631 15.0822 14.7984 15.1909C14.763 15.2424 14.7336 15.2996 14.6983 15.3568C14.6806 15.3854 14.6689 15.414 14.6512 15.4368C14.6453 15.4483 14.6395 15.4597 14.6336 15.4712C14.6276 15.494 14.6041 15.5169 14.5865 15.5398C14.5629 15.5684 14.5394 15.597 14.5217 15.6313C14.5217 15.6313 14.5394 15.6313 14.5452 15.6313C14.5511 15.6313 14.5629 15.6313 14.5688 15.6313C14.5865 15.6313 14.6041 15.6313 14.6218 15.6313C14.6571 15.6313 14.6865 15.6313 14.7218 15.6256C14.7336 15.6256 14.7513 15.6199 14.763 15.6199C14.7807 15.6199 14.7984 15.6199 14.816 15.6256C14.8513 15.6256 14.8807 15.6313 14.916 15.6313C14.9337 15.6199 14.9514 15.6199 14.9631 15.6256Z" fill="#362745" stroke="#362745" stroke-width="0.5" stroke-miterlimit="10"/>
<path d="M12.9184 16.5165C13.0126 16.179 12.8301 15.8759 12.5653 15.5727C12.1533 15.1037 11.7766 14.6175 11.6942 13.9711C11.5059 12.5011 12.3475 11.0712 13.7365 10.5507C15.1961 10.0016 16.8087 10.4935 17.6857 11.7518C18.0682 12.3067 18.2683 12.9187 18.2742 13.5879C18.2742 14.2056 18.0741 14.7376 17.6268 15.178C17.4149 15.3897 17.2384 15.6299 17.0088 15.8187C16.7734 16.0189 16.6851 16.2476 16.7028 16.5451C16.7146 16.7739 16.6851 17.0027 16.691 17.2315C16.691 17.2486 16.691 17.2601 16.691 17.2772C16.691 17.2944 16.6851 17.3173 16.6851 17.3344C16.6851 17.3459 16.6851 17.4488 16.691 17.4488C16.6498 17.4488 16.6145 17.4488 16.5733 17.4488C16.5262 17.4488 16.4791 17.4545 16.432 17.4488C16.3496 17.4374 16.2614 17.4374 16.179 17.4317C16.1613 17.4317 16.1437 17.4317 16.126 17.4259C16.0907 17.4259 16.0612 17.4202 16.026 17.4202C16.0142 17.4202 16.0024 17.4145 15.9907 17.4145C15.973 17.4145 15.9553 17.4145 15.9377 17.4145C15.8729 17.4145 15.8023 17.4145 15.7376 17.4145C15.7376 17.3802 15.7317 17.3516 15.7317 17.3173C15.7258 17.2486 15.7258 17.1857 15.7258 17.1171C15.7258 16.9855 15.7199 16.8597 15.7199 16.7281C15.7199 16.7224 15.7199 16.7167 15.714 16.7109C15.7081 16.7052 15.7023 16.7052 15.6964 16.7052C15.561 16.6938 15.4197 16.7052 15.2844 16.7224C15.2844 16.8025 15.2844 16.8825 15.2785 16.9626C15.2785 16.9855 15.2785 17.0084 15.2785 17.0313C15.2785 17.0599 15.2785 17.0942 15.2726 17.1285C15.2726 17.1399 15.2667 17.1457 15.2667 17.1514C15.2608 17.1628 15.2608 17.18 15.2608 17.1914C15.255 17.2543 15.255 17.3173 15.2667 17.3802C15.2255 17.3802 15.1843 17.3802 15.1432 17.3802C15.0902 17.3802 15.0372 17.3802 14.9843 17.3687C14.9195 17.3573 14.8548 17.363 14.7841 17.3573C14.7605 17.3573 14.7311 17.3573 14.7076 17.3516C14.6429 17.3516 14.584 17.3401 14.5193 17.3401C14.484 17.3401 14.4546 17.3401 14.4192 17.3401C14.4133 17.3401 14.3251 17.3459 14.3251 17.3516C14.3251 17.2944 14.3309 17.2372 14.3309 17.1743C14.3309 17.1457 14.3309 17.1171 14.3368 17.0885C14.3368 17.0599 14.3427 17.0313 14.3427 17.0027C14.3427 16.8883 14.3427 16.7739 14.3368 16.6595C14.1838 16.6366 14.0308 16.6194 13.8778 16.6194C13.8719 16.751 13.866 16.8768 13.8601 17.0084C13.8542 17.0713 13.8542 17.1399 13.8483 17.2029C13.8483 17.22 13.8483 17.2372 13.8483 17.2543C13.8483 17.2658 13.8483 17.2772 13.8425 17.2829C13.8365 17.2944 13.8071 17.2944 13.7954 17.2944C13.713 17.3001 13.6306 17.2944 13.5482 17.2887C13.5128 17.2887 13.4717 17.2829 13.4363 17.2829C13.3422 17.2772 13.248 17.2772 13.1597 17.2715C13.1303 17.2715 13.1009 17.2658 13.0655 17.2658C13.0479 17.2658 13.0302 17.2543 13.0067 17.2543C13.0008 17.2543 12.9125 17.2486 12.9125 17.2486C12.9125 17.2429 12.9125 17.2372 12.9125 17.2315C12.9125 17.1685 12.9125 17.0999 12.9125 17.037C12.9125 17.0084 12.9066 16.9798 12.9184 16.9569C12.9243 16.9455 12.9184 16.934 12.9184 16.9226C12.9184 16.894 12.9184 16.8654 12.9184 16.8368C12.9184 16.7681 12.9243 16.6938 12.9243 16.6251C12.9125 16.6251 12.9125 16.608 12.9184 16.5165ZM14.79 15.4812C14.8429 15.4869 14.8959 15.4869 14.943 15.4926C15.0254 15.4984 15.1078 15.5041 15.1902 15.5155C15.1608 15.4354 15.1372 15.3496 15.1019 15.2638C15.0902 15.2295 15.0725 15.2009 15.0607 15.1723C15.049 15.1437 15.0313 15.1208 15.0195 15.0922C15.0137 15.0865 15.0137 15.0751 15.0137 15.0694C15.0078 15.0408 14.996 15.0179 14.9901 14.9893C14.9607 14.9206 14.9371 14.8463 14.9077 14.7776C14.8959 14.7433 14.8842 14.7147 14.8665 14.6804C14.8665 14.6861 14.8548 14.6976 14.8548 14.7033C14.8489 14.7147 14.8371 14.7262 14.8312 14.7376C14.7605 14.8406 14.69 14.9435 14.6252 15.0465C14.5899 15.098 14.5605 15.1552 14.5311 15.2066C14.5134 15.2352 14.5016 15.2581 14.484 15.2867C14.4781 15.2982 14.4722 15.3096 14.4663 15.321C14.4604 15.3439 14.4369 15.3668 14.4192 15.384C14.3957 15.4126 14.378 15.4412 14.3545 15.4698C14.3545 15.4698 14.3721 15.4698 14.378 15.4698C14.3839 15.4698 14.3957 15.4698 14.4016 15.4698C14.4192 15.4698 14.4369 15.4698 14.4546 15.4698C14.4898 15.4698 14.5193 15.4698 14.5546 15.464C14.5664 15.464 14.584 15.4583 14.5958 15.4583C14.6135 15.4583 14.6311 15.4583 14.6487 15.464C14.684 15.464 14.7135 15.4698 14.7488 15.4698C14.7605 15.4812 14.7782 15.4812 14.79 15.4812Z" fill="#E0E3BD" stroke="#362745" stroke-width="0.5" stroke-miterlimit="10"/>
<path d="M17.0705 10.8828C15.9934 10.0478 14.7751 9.91049 13.5156 10.4596C11.4969 11.3404 10.9554 13.9487 12.1678 15.2471C12.3385 15.4301 12.468 15.6418 12.6446 15.8248C12.8035 15.9907 12.8565 16.168 12.8447 16.3911C12.827 16.7 12.7976 17.0146 12.8447 17.352L13.8806 17.3977L13.8982 16.6828L14.2984 16.6942V16.7C14.2984 16.7057 14.2984 16.7114 14.2984 16.7171C14.2984 16.7228 14.2984 16.7343 14.2984 16.74C14.2984 16.7514 14.2984 16.7629 14.2984 16.7686C14.2984 16.78 14.2984 16.7915 14.2984 16.8029C14.2984 16.8144 14.2984 16.8315 14.2984 16.843C14.2984 16.8601 14.2984 16.8716 14.2984 16.8887C14.2984 16.9059 14.2984 16.923 14.2984 16.9402C14.2984 16.9574 14.2984 16.9745 14.2984 16.9917C14.2984 17.0088 14.2984 17.026 14.2984 17.0432C14.2984 17.0603 14.2984 17.0775 14.2984 17.0946C14.2984 17.1118 14.2984 17.129 14.2984 17.1461C14.2984 17.1633 14.2984 17.1747 14.2984 17.1919C14.2984 17.2033 14.2984 17.2205 14.2984 17.2376C14.2984 17.2491 14.2984 17.2662 14.2984 17.2777C14.2984 17.2891 14.2984 17.3006 14.2984 17.312C14.2984 17.3177 14.2984 17.3292 14.2984 17.3405C14.2984 17.3463 14.2984 17.352 14.2984 17.3577C14.2984 17.3749 14.2925 17.392 14.2925 17.4149C14.2984 17.4149 14.2984 17.4149 14.3043 17.4149H14.3102H14.316C14.3219 17.4149 14.3337 17.4149 14.3396 17.4149C14.3573 17.4149 14.3749 17.4149 14.3926 17.4149C14.4632 17.4149 14.5279 17.4206 14.5986 17.4206C14.681 17.4263 14.7692 17.4263 14.8575 17.4321C14.934 17.4378 15.0164 17.4378 15.0929 17.4435C15.14 17.4435 15.1871 17.4492 15.2401 17.4492C15.2459 17.4492 15.2518 17.4492 15.2578 17.4492C15.2695 17.4492 15.2754 17.4492 15.2872 17.4435C15.2872 17.4263 15.293 17.4035 15.293 17.3863V17.3806C15.293 17.3749 15.293 17.3634 15.2989 17.3577C15.2989 17.3406 15.3048 17.3234 15.3048 17.312C15.3048 17.3006 15.3048 17.2891 15.3048 17.2777C15.3048 17.2662 15.3048 17.2548 15.3048 17.2491C15.3048 17.2376 15.3048 17.2319 15.3048 17.2205C15.3048 17.209 15.3048 17.1976 15.3048 17.1862C15.3048 17.1747 15.3048 17.1576 15.3048 17.1404C15.3048 17.1232 15.3048 17.1061 15.3048 17.0946C15.3048 17.0775 15.3048 17.0603 15.3048 17.0432C15.3048 17.026 15.3048 17.0088 15.3048 16.9917C15.3048 16.9745 15.3048 16.9574 15.3048 16.9402C15.3048 16.923 15.3048 16.9059 15.3048 16.8887C15.3048 16.8773 15.3048 16.8601 15.3048 16.843C15.3048 16.8315 15.3048 16.8201 15.3048 16.8086C15.3048 16.7972 15.3048 16.7915 15.3048 16.78C15.3048 16.7743 15.3048 16.7686 15.3048 16.7629V16.7572L15.705 16.7686L15.6874 17.4778C15.7521 17.4778 16.7762 17.5236 16.7762 17.5236C16.7762 17.3177 16.7762 17.1118 16.7762 16.9002C16.7762 16.8029 16.7762 16.7057 16.7762 16.6084C16.7762 16.5798 16.7762 16.5512 16.7703 16.5284C16.7703 16.4597 16.7703 16.3911 16.7821 16.3282C16.7939 16.2595 16.8174 16.1852 16.8645 16.128C16.8763 16.1165 16.888 16.0994 16.8998 16.0879C16.9174 16.0708 16.9292 16.0593 16.9469 16.0422C16.9763 16.0136 17.0058 15.9792 17.0352 15.9506C17.094 15.8877 17.1528 15.8305 17.2117 15.7676C17.2706 15.7047 17.3236 15.6475 17.3824 15.5846C17.4412 15.5216 17.4942 15.4644 17.5472 15.4015C17.6002 15.3386 17.659 15.2814 17.712 15.2185C17.7649 15.1556 17.8179 15.0984 17.8709 15.0354C17.9003 15.0068 17.9238 14.9726 17.9533 14.944C18.1534 14.7037 18.2946 14.4349 18.3417 14.126C18.5536 12.8047 18.1357 11.7065 17.0705 10.8828ZM13.7334 16.494C13.7216 16.494 13.7098 16.494 13.6922 16.494C13.6863 16.494 13.6804 16.494 13.6745 16.494C13.6745 16.5226 13.6745 16.5512 13.6745 16.5798C13.6745 16.637 13.6687 16.7 13.6687 16.7572C13.6628 16.8773 13.6569 17.0031 13.6569 17.1232L13.1331 17.1004C13.1331 17.0489 13.1389 16.9974 13.1389 16.9459C13.1448 16.8315 13.1507 16.7171 13.1507 16.597C13.1566 16.4769 13.1625 16.351 13.1625 16.2309C13.1625 16.1852 13.1684 16.1394 13.1684 16.0936C13.1684 16.0708 13.1625 16.0479 13.1625 16.0307C13.1625 16.0078 13.1566 15.985 13.1566 15.9621C13.1566 15.9506 13.1507 15.9449 13.1507 15.9335C13.1448 15.9278 13.1448 15.9163 13.1389 15.9106C13.1331 15.8934 13.1272 15.8763 13.1154 15.8591C13.0978 15.8248 13.0801 15.7905 13.0624 15.7562C13.0448 15.7218 13.0212 15.6932 12.9977 15.6589C12.9859 15.6418 12.9683 15.6189 12.9506 15.6017C12.7034 15.31 12.468 15.0068 12.2326 14.7037C11.8971 14.2576 11.8383 13.7371 11.903 13.2108C12.0501 12.0268 12.6858 11.1688 13.8217 10.7284C14.9458 10.2937 16.0111 10.4767 16.9057 11.2604C17.8179 12.0554 18.1534 13.0678 17.8591 14.2519C17.7885 14.555 17.5884 14.7724 17.3883 14.9897C17.1411 15.2585 16.888 15.5216 16.635 15.7848C16.6231 15.7962 16.6114 15.8019 16.6055 15.8134C16.6055 15.8191 16.6055 15.8191 16.5996 15.8248C16.5937 15.8305 16.5937 15.8362 16.5879 15.842C16.582 15.8534 16.5702 15.8648 16.5643 15.8763C16.5585 15.882 16.5585 15.8877 16.5526 15.8934C16.5466 15.8992 16.5466 15.8992 16.5466 15.9049C16.5349 15.9278 16.5231 15.9506 16.5113 15.9735C16.4878 16.025 16.4761 16.0822 16.4642 16.1394C16.4584 16.168 16.4584 16.1966 16.4584 16.2252C16.4584 16.2366 16.4584 16.2538 16.4584 16.2652C16.4584 16.271 16.4584 16.2767 16.4584 16.2881C16.4584 16.2996 16.4584 16.311 16.4584 16.3224C16.4584 16.3396 16.4584 16.3625 16.4584 16.3796C16.4584 16.414 16.4584 16.4426 16.4584 16.4769C16.4584 16.5398 16.4584 16.6084 16.4584 16.6714C16.4584 16.7343 16.4584 16.8029 16.4584 16.8658C16.4584 16.9288 16.4584 16.9974 16.4584 17.0603C16.4584 17.0946 16.4584 17.1232 16.4584 17.1576C16.4584 17.1747 16.4584 17.1919 16.4584 17.209C16.4584 17.2148 16.4584 17.2205 16.4584 17.2262V17.2319C16.4525 17.2376 16.4466 17.2319 16.4466 17.2319C16.4407 17.2319 16.429 17.2319 16.4231 17.2319C16.3937 17.2319 16.3583 17.2319 16.3289 17.2262C16.1994 17.2205 16.0699 17.2148 15.9404 17.209C15.9464 17.1004 15.9464 16.9917 15.9522 16.8887C15.9522 16.8544 15.9581 16.8144 15.9581 16.78C15.9581 16.7343 15.9581 16.6942 15.9581 16.6485C15.9581 16.6313 15.9581 16.6199 15.9581 16.6027L15.8816 16.5913C15.8522 16.5856 15.8227 16.5798 15.7933 16.5798C15.7286 16.5741 15.6697 16.5684 15.605 16.5627C15.5402 16.557 15.4755 16.557 15.4108 16.557C15.346 16.557 15.2813 16.557 15.2165 16.557C15.1636 16.557 15.1047 16.557 15.0517 16.557L15.0282 17.2148L14.5044 17.1919L14.5279 16.5455C14.4985 16.5398 14.4632 16.5341 14.4338 16.5284C14.369 16.5169 14.3102 16.5112 14.2454 16.5055C14.1807 16.4998 14.116 16.4998 14.0512 16.494C13.9865 16.494 13.9217 16.494 13.857 16.4883C13.8276 16.4883 13.7922 16.4883 13.7628 16.4883" fill="#362745"/>
<path d="M15.0377 14.5837C15.0318 14.578 15.0318 14.5666 15.0259 14.5608C15.0142 14.5437 15.0083 14.5208 14.9965 14.5036C14.9906 14.4922 14.9847 14.4808 14.9788 14.4693C14.9729 14.4579 14.967 14.4522 14.9612 14.4407C14.9376 14.4064 14.9199 14.3664 14.8964 14.332C14.8847 14.3149 14.8788 14.2977 14.867 14.2748C14.867 14.2691 14.8611 14.2634 14.8611 14.2634C14.8611 14.2577 14.8552 14.252 14.8552 14.252C14.8494 14.252 14.8494 14.252 14.8494 14.2577C14.8494 14.2634 14.8434 14.2634 14.8434 14.2691C14.8434 14.2748 14.8376 14.2806 14.8376 14.2863C14.8317 14.2977 14.8258 14.3092 14.8199 14.3149C14.7964 14.3492 14.7729 14.3892 14.7552 14.4236C14.7316 14.4579 14.7081 14.4979 14.6905 14.5322C14.661 14.578 14.6375 14.6238 14.608 14.6752C14.5963 14.6924 14.5904 14.7096 14.5786 14.721C14.5668 14.7382 14.5551 14.7553 14.5492 14.7725C14.5374 14.7896 14.5256 14.8068 14.5139 14.8297C14.5021 14.8468 14.4903 14.8697 14.4786 14.8869C14.4668 14.9098 14.455 14.9269 14.4432 14.9498C14.4315 14.9727 14.4197 14.9898 14.4079 15.0127C14.3962 15.0356 14.3844 15.0585 14.3726 15.0756C14.3608 15.0985 14.3491 15.1214 14.3373 15.1386C14.3255 15.1614 14.3137 15.1786 14.302 15.2015C14.2902 15.2244 14.2784 15.2415 14.2667 15.2644C14.2549 15.2873 14.2432 15.3044 14.2313 15.3273C14.2196 15.3445 14.2078 15.3674 14.1961 15.3845C14.1843 15.4017 14.1725 15.4188 14.1666 15.436C14.1548 15.4532 14.149 15.4703 14.1372 15.4875C14.1313 15.5046 14.1195 15.5161 14.1137 15.5332C14.1078 15.5447 14.096 15.5561 14.0901 15.5733C14.0843 15.5847 14.0783 15.5962 14.0724 15.6076C14.0666 15.6133 14.0607 15.6248 14.0607 15.6305C14.0548 15.6362 14.0548 15.6419 14.0489 15.6476L14.043 15.6534H14.0489C14.0843 15.6534 14.1137 15.6534 14.149 15.6591C14.1548 15.6591 14.1608 15.6591 14.1725 15.6591C14.1784 15.6591 14.1902 15.6591 14.1961 15.6591C14.2019 15.6591 14.2019 15.6591 14.2078 15.6591C14.2137 15.6591 14.2196 15.6591 14.2255 15.6591C14.2313 15.6591 14.2373 15.6591 14.249 15.6591C14.2549 15.6591 14.2667 15.6591 14.2726 15.6591C14.2843 15.6591 14.2961 15.6591 14.302 15.6591C14.3137 15.6591 14.3255 15.6591 14.3373 15.6591C14.3491 15.6591 14.3608 15.6591 14.3726 15.6591C14.3844 15.6591 14.4021 15.6591 14.4138 15.6591C14.4256 15.6591 14.4432 15.6591 14.455 15.6591C14.4727 15.6591 14.4845 15.6591 14.5021 15.6591C14.5197 15.6591 14.5315 15.6591 14.5492 15.6591C14.5668 15.6591 14.5845 15.6591 14.5963 15.6591C14.614 15.6591 14.6316 15.6591 14.6492 15.6591C14.6669 15.6591 14.6845 15.6591 14.7022 15.6591C14.7199 15.6591 14.7375 15.6591 14.7552 15.6591C14.7729 15.6591 14.7905 15.6591 14.8081 15.6591C14.8258 15.6591 14.8434 15.6591 14.8611 15.6591C14.8788 15.6591 14.8964 15.6591 14.9141 15.6591C14.9318 15.6591 14.9494 15.6591 14.967 15.6591C14.9847 15.6591 15.0023 15.6591 15.02 15.6591C15.0377 15.6591 15.0553 15.6591 15.0671 15.6591C15.0848 15.6591 15.0965 15.6591 15.1142 15.6591C15.1318 15.6591 15.1436 15.6591 15.1613 15.6591C15.1731 15.6591 15.1907 15.6591 15.2025 15.6591C15.2142 15.6591 15.2319 15.6591 15.2437 15.6591C15.2554 15.6591 15.2672 15.6591 15.279 15.6591C15.2907 15.6591 15.3026 15.6591 15.3143 15.6591C15.3261 15.6591 15.332 15.6591 15.3437 15.6591L15.5556 15.6648C15.5615 15.6648 15.5615 15.6648 15.5615 15.6648C15.5497 15.6305 15.532 15.6019 15.5203 15.5676C15.485 15.4875 15.0436 14.5952 15.0377 14.5837C15.0377 14.5894 15.0377 14.5894 15.0377 14.5837ZM14.4315 15.4474C14.5727 15.2129 14.7022 15.0013 14.8494 14.7553C14.9494 15.0184 15.0318 15.2244 15.1318 15.476C14.8905 15.4646 14.6905 15.4532 14.4315 15.4474Z" fill="#362745"/>
<path d="M11.0938 11.0371C11.0938 11.0657 11.0996 11.0886 11.0996 11.1115L11.0938 11.0371ZM11.0938 11.0371C11.0938 11.0657 11.0996 11.0886 11.0996 11.1115L11.0938 11.0371Z" fill="#E0E3BD"/>
<path d="M11.0938 11.0371C11.0938 11.0657 11.0996 11.0886 11.0996 11.1115ZM11.0938 11.0371C11.0938 11.0657 11.0996 11.0886 11.0996 11.1115L11.0938 11.0371Z" stroke="#362745" stroke-width="2" stroke-miterlimit="10"/>
<path d="M23.5554 21.9625C23.2552 21.728 23.0316 21.4248 22.7491 21.1617C22.7667 20.87 22.802 20.6068 22.802 20.3437C22.7961 19.6231 22.8432 18.9024 22.7844 18.1816C22.7491 17.7413 22.8726 17.318 22.9963 16.8947C23.2376 16.0882 23.1022 15.2588 22.9786 14.4638C22.8903 13.8975 22.8785 13.3484 22.9198 12.7879C22.9609 12.2959 22.9669 11.804 23.008 11.3121C23.061 10.6143 23.1258 9.92792 22.9433 9.22436C22.7844 8.62948 22.7491 8.00606 22.5019 7.43406C22.3077 6.9879 22.3077 6.9879 21.7073 6.2157C21.1718 5.66664 21.0894 5.66092 20.6303 5.39208C20.2771 5.18616 19.9299 4.99168 19.5003 4.95164C18.9529 4.90016 18.4468 4.66564 17.9053 4.57984C16.9636 4.43112 16.0337 4.5112 15.1038 4.64848C13.8561 4.83724 12.626 5.07176 11.6667 5.9984C11.2135 6.43878 10.7485 6.85634 10.5543 7.46838C10.5013 7.63998 10.3836 7.7887 10.2953 7.94314C9.88925 8.61232 9.98341 8.91548 9.92456 9.78492C9.95987 9.84784 9.84216 10.2254 9.80096 10.3283C9.748 10.9117 9.74211 10.54 9.748 10.7916C9.76565 11.5523 9.77153 12.3131 9.77742 13.0681C9.78331 13.7545 9.81274 14.4409 9.68325 15.1158C9.542 15.8308 9.55377 16.5515 9.54789 17.2722C9.54789 17.4324 9.55377 17.5983 9.51258 17.7527C9.38898 18.2903 9.4184 18.828 9.44783 19.3657C9.48903 20.0978 9.45372 20.8242 9.542 21.5735C9.10647 21.9053 8.67683 22.237 8.24131 22.5573C8.08828 22.666 8 22.7861 8 22.9806C8.01177 23.7871 8.01177 24.5936 8.01766 25.4001C8.01766 25.6174 8.1236 25.7376 8.35313 25.7547C9.4184 25.8176 10.4778 25.8806 11.5372 25.9492C12.9144 26.035 14.2857 26.1151 15.6629 26.2009C17.2226 26.2981 18.7823 26.4011 20.3419 26.4983C20.5538 26.5098 20.748 26.464 20.9305 26.3553C21.7486 25.8748 22.5725 25.3944 23.3965 24.9253C23.5966 24.811 23.6731 24.6623 23.6731 24.4392C23.679 23.7356 23.6966 23.0321 23.7143 22.3343C23.7143 22.1913 23.6849 22.0597 23.5554 21.9625ZM10.0128 18.3475C10.0835 17.867 10.1482 17.3923 10.1364 16.9061C10.1188 16.2769 10.1953 15.6592 10.2895 15.0415C10.4189 14.1835 10.3719 13.3198 10.3542 12.4561C10.3483 12.1415 10.3424 11.8269 10.3483 11.518C10.3483 11.4379 10.3542 11.3579 10.3601 11.2778C10.366 11.232 10.3719 11.1863 10.3719 11.1348C10.3719 11.1119 10.3895 11.0947 10.4072 11.0776C10.4307 11.049 10.4601 11.0204 10.4837 10.9918C10.4896 10.9861 10.4955 10.9803 10.5072 10.9746C10.5131 10.9746 10.5249 10.9746 10.5308 10.9803C10.6367 11.0261 10.8192 11.192 10.825 11.2034C10.825 11.2091 11.0369 11.3636 11.0369 11.3693C11.0428 11.375 10.9074 11.661 10.9074 11.6725C11.1605 11.6725 11.0958 11.5924 11.3018 11.232C11.3135 11.2091 11.0958 11.0661 11.0958 11.0375C11.0605 11.0032 11.0487 10.9575 11.031 10.9174C11.0134 10.8659 10.9839 10.8202 10.9545 10.7802C10.9369 10.7573 10.9192 10.7402 10.9015 10.7173C10.8839 10.7001 10.8662 10.683 10.8486 10.6658C10.8368 10.6544 10.8309 10.6429 10.8309 10.6258C10.825 10.6029 10.8133 10.5857 10.8074 10.5628C10.7838 10.5114 10.7603 10.4542 10.7426 10.397C10.7014 10.2883 10.6661 10.1739 10.6308 10.0595C10.5955 9.94508 10.5602 9.83068 10.519 9.71628C10.4955 9.65336 10.4719 9.59616 10.4484 9.53324C10.4896 8.99556 10.5955 8.48082 10.9604 8.0461C11.0428 7.94314 11.0958 7.81158 11.137 7.69146C11.3018 7.16522 11.6667 6.7877 12.0845 6.45022C12.3435 6.23858 12.5789 5.98696 12.8791 5.84396C12.885 5.83824 12.9085 5.8554 12.9144 5.8554C12.9262 5.86112 12.9379 5.86684 12.9497 5.87256C12.9732 5.88972 12.9909 5.90688 13.0027 5.92976C13.0262 5.95836 13.0321 5.9984 13.0498 6.027C13.0615 6.0556 13.0733 6.08992 13.0851 6.11852C13.1086 6.18138 13.1322 6.23858 13.1498 6.3015C13.1557 6.31294 13.1557 6.31866 13.1616 6.32438C13.1616 6.3301 13.1675 6.33582 13.1675 6.33582C13.1675 6.33582 13.1792 6.34154 13.1851 6.34154C13.2087 6.34726 13.2322 6.3587 13.2558 6.36442C13.2616 6.36442 13.2322 6.51886 13.2322 6.5303V6.5589C13.2322 6.58178 13.2263 6.61038 13.2263 6.63326C13.2204 6.68474 13.2204 6.73622 13.2146 6.7877C13.2146 6.80486 13.2087 6.82774 13.2146 6.8449C13.2204 6.86206 13.2263 6.8735 13.2322 6.89066C13.2793 6.98218 13.3028 7.32538 13.3028 7.32538C13.3028 7.32538 13.3793 7.1309 13.3735 7.11946C13.3676 7.1023 13.3676 7.09086 13.3617 7.0737C13.3558 7.0451 13.3499 7.01078 13.344 6.98218C13.3382 6.94214 13.3323 6.9021 13.3264 6.85634C13.3264 6.83918 13.3205 6.82774 13.3205 6.81058C13.3205 6.79914 13.3146 6.79342 13.3205 6.78198C13.3264 6.76482 13.3323 6.74766 13.344 6.73622C13.3499 6.71906 13.3617 6.7019 13.3676 6.68474C13.3676 6.68474 13.4029 6.69046 13.4088 6.69618C13.4206 6.7019 13.4323 6.70762 13.4441 6.70762C13.4794 6.71334 13.5088 6.72478 13.5383 6.74194C13.55 6.74766 13.5618 6.75338 13.5736 6.76482C13.5795 6.77626 13.5853 6.7877 13.5912 6.79914C13.6207 6.8735 13.6501 6.95358 13.6854 7.02794C13.6913 7.03938 13.6972 7.05654 13.7089 7.06798C13.7207 7.07942 13.7325 7.08514 13.7443 7.09086C13.8208 7.13662 13.9032 7.18238 13.9797 7.22814C13.9443 7.17094 13.8914 7.12518 13.8443 7.06798C13.7737 6.98218 13.7266 6.87922 13.7089 6.77054C13.703 6.74766 13.703 6.72478 13.703 6.7019C13.6442 6.66186 13.5853 6.62754 13.5265 6.5875C13.5029 6.57034 13.4735 6.5589 13.4559 6.54174C13.45 6.53602 13.4441 6.52458 13.4441 6.51314C13.4382 6.49598 13.4323 6.48454 13.4264 6.46738C13.4029 6.40446 13.3852 6.34154 13.3617 6.28434C13.3558 6.26718 13.3499 6.2443 13.3323 6.23858C13.3264 6.23286 13.3146 6.23286 13.3028 6.22714C13.2852 6.2157 13.2793 6.19282 13.2734 6.17566C13.2675 6.15278 13.2616 6.12424 13.2558 6.10136C13.2499 6.0842 13.244 6.06132 13.244 6.03844V6.01556C13.2381 5.97552 13.2263 5.93548 13.2263 5.89544C13.2204 5.79248 13.244 5.68952 13.3028 5.598C15.0979 5.3406 16.9106 5.12896 18.488 6.4731V7.2739C18.488 7.29678 18.488 7.32538 18.4762 7.34826C18.4703 7.35398 18.4703 7.3597 18.4644 7.37114C18.4586 7.3883 18.4526 7.40546 18.4409 7.4169C18.4232 7.4455 18.4056 7.4741 18.3821 7.50842C18.3585 7.54274 18.3349 7.57706 18.3232 7.6171C18.3291 7.61138 18.3349 7.61138 18.3408 7.60566L18.3585 7.5885C18.3702 7.57706 18.3879 7.56562 18.3997 7.5599C18.4291 7.54274 18.4526 7.51986 18.4762 7.49698C18.488 7.48554 18.4939 7.4741 18.5056 7.45694C18.5174 7.43978 18.5291 7.41118 18.541 7.39402C18.5586 7.37686 18.5704 7.34826 18.5762 7.31966C18.5821 7.30822 18.588 7.3025 18.588 7.29106C18.5939 7.27962 18.5939 7.26818 18.5998 7.25102C18.6057 7.22242 18.6115 7.19954 18.6175 7.17094C18.641 7.05654 18.6469 6.94214 18.6645 6.82774C18.6704 6.78198 18.6822 6.74194 18.694 6.69618C19.1825 7.06798 19.6886 7.39402 19.7593 8.0461C19.8181 8.59516 19.9182 9.13284 20.0771 9.6648C20.1241 9.81924 20.1653 9.9794 20.1653 10.1396C20.1653 11.2091 20.2183 12.2731 20.0417 13.3369C19.9476 13.9032 19.9535 14.4924 19.9476 15.0701C19.9476 15.6878 19.9123 16.3055 19.8534 16.9176C19.7945 17.5182 19.7945 18.113 19.9476 18.6964C20.03 19.0053 19.977 19.3142 19.9417 19.6288C19.8711 20.2408 19.8417 20.8585 19.8004 21.4763C19.7887 21.625 19.7945 21.7794 19.7298 21.9396C16.5281 21.768 13.3323 21.5964 10.1188 21.4191C10.1188 21.4191 10.107 21.3218 10.107 21.3161C10.1011 21.2761 10.0952 21.236 10.0894 21.196C10.0776 21.1159 10.0717 21.0416 10.0658 20.9615C10.0599 20.8814 10.0658 20.807 10.0717 20.7327V20.7041C10.0717 20.6755 10.0776 20.6412 10.0835 20.6183C10.0894 20.5897 10.0952 20.5554 10.1011 20.5268C10.1188 20.4581 10.1364 20.3895 10.1659 20.3208C10.1718 20.3094 10.1718 20.3037 10.1776 20.2922C10.1835 20.2865 10.1953 20.2808 10.2071 20.2751C10.3601 20.2179 10.5072 20.1607 10.6602 20.1035C10.6779 20.0978 10.6838 20.0749 10.6956 20.0578C10.7073 20.0406 10.7191 20.0235 10.7368 20.0063C10.7485 19.9949 10.7662 19.9834 10.778 19.972C10.8015 19.9491 10.8133 19.9205 10.825 19.8919C10.8486 19.8461 10.8721 19.7947 10.8898 19.7489C10.9015 19.726 10.9133 19.7031 10.9192 19.686C10.9192 19.6803 10.9192 19.6745 10.9251 19.6688C10.9428 19.6402 10.9839 19.6173 11.0075 19.6002C11.0605 19.5601 11.1075 19.5144 11.1429 19.4629C11.0958 19.4858 11.0605 19.5144 11.0134 19.543C10.9957 19.5544 10.9722 19.5659 10.9486 19.5716C10.9428 19.5716 10.9369 19.5716 10.9251 19.5773C10.9192 19.5773 10.9192 19.583 10.9192 19.583C10.9074 19.5945 10.8957 19.6116 10.8839 19.6288C10.8604 19.6631 10.8368 19.6974 10.8133 19.7317C10.7838 19.7718 10.7544 19.8118 10.725 19.8576C10.6956 19.9033 10.6779 19.9491 10.6308 19.972C10.6191 19.9777 10.6014 19.9834 10.5837 19.9892C10.4366 20.0349 10.2836 20.0864 10.1364 20.1322C10.107 20.1435 10.0776 20.1493 10.0482 20.1721V20.115C10.054 20.0864 10.0482 20.0578 10.054 20.0349V19.9205C10.054 19.8404 10.0482 19.7661 10.0482 19.686C10.0423 19.5315 10.0305 19.3771 10.0246 19.2284C9.97753 18.9424 9.97164 18.645 10.0128 18.3475ZM9.88336 22.0597C9.96576 21.9968 10.0717 22.014 10.1659 22.0197C12.0551 22.1226 13.9443 22.2199 15.8336 22.3228C17.0695 22.3915 18.3055 22.4601 19.5474 22.523C19.6062 22.5287 19.6651 22.5401 19.7298 22.5459C19.8475 22.7747 19.9417 23.0092 20.0123 23.2952C16.4045 23.0664 12.8261 22.8433 9.18298 22.6145C9.43018 22.3743 9.6656 22.2256 9.88336 22.0597ZM20.2006 25.8863C19.9358 25.9263 19.6769 25.892 19.4355 25.8634C19.4238 25.8634 19.412 25.852 19.4061 25.8462C19.3943 25.8405 19.3885 25.8348 19.3767 25.8234C19.359 25.8119 19.3414 25.7948 19.3237 25.7776C19.2884 25.7433 19.2648 25.6975 19.2296 25.6632C19.2177 25.6518 19.2001 25.6403 19.1942 25.6289C19.1825 25.606 19.1766 25.5831 19.1707 25.5602C19.1707 25.5545 19.1707 25.5488 19.1648 25.5374C19.1589 25.5316 19.153 25.5259 19.153 25.5145C19.1236 25.4802 19.1001 25.4458 19.0824 25.4058C19.0765 25.3944 19.0765 25.3772 19.0765 25.3658C19.0824 25.3314 19.0647 25.2971 19.053 25.2685C19.0471 25.2399 19.0412 25.217 19.0353 25.1884C19.0353 25.1827 19.0294 25.1713 19.0236 25.1656C19.0118 25.1484 18.9941 25.137 18.9764 25.1255C18.9353 25.0798 18.8941 25.0397 18.8529 24.9997C18.8352 24.9825 18.8175 24.9711 18.7999 24.9596C18.8117 24.9654 18.8175 24.9825 18.8293 24.994C18.8352 25.0054 18.847 25.0168 18.8588 25.0283C18.8764 25.0512 18.8941 25.074 18.9058 25.1084C18.9058 25.1198 18.9176 25.137 18.9235 25.1484C18.9412 25.1827 18.9529 25.2113 18.9588 25.2456C18.9706 25.2914 18.9764 25.3372 18.9764 25.3829C18.9823 25.423 18.9823 25.4687 18.9883 25.5088C18.9883 25.5088 19.0177 25.5202 19.0236 25.5202C19.0294 25.5259 19.0294 25.5374 19.0294 25.5488C19.0412 25.5774 19.0588 25.606 19.0765 25.6346C19.0824 25.646 19.0883 25.6575 19.0942 25.6689V25.7662C19.0942 25.7776 19.0942 25.7948 19.0883 25.8062C19.0765 25.8234 19.053 25.8348 19.0588 25.8577C19.0353 25.8577 19 25.8634 18.9764 25.8577C18.9706 25.8577 18.9647 25.8577 18.9588 25.852C18.9176 25.8462 18.8823 25.8462 18.8411 25.8462C18.7646 25.8405 18.688 25.8348 18.6115 25.8348C17.9465 25.7948 17.2814 25.749 16.6164 25.709C15.9513 25.6689 15.2863 25.6232 14.6212 25.5831C13.9562 25.5431 13.2911 25.4973 12.626 25.4573C11.9609 25.4172 11.2959 25.3715 10.6308 25.3314C10.2953 25.3086 9.96576 25.2914 9.63028 25.2685C9.46549 25.2571 9.29481 25.2456 9.13001 25.2399C9.04762 25.2342 8.96522 25.2285 8.88282 25.2228C8.86517 25.2228 8.64152 25.2113 8.64152 25.2056V24.6565L8.6474 24.6508C8.65329 24.6451 8.65329 24.6451 8.65918 24.6394C8.66506 24.6279 8.67095 24.6222 8.67683 24.6108C8.69449 24.5879 8.70626 24.5707 8.72392 24.5479C8.74158 24.525 8.76512 24.5021 8.78277 24.4792C8.78866 24.4678 8.79454 24.4621 8.80043 24.4506C8.8122 24.4392 8.82985 24.4277 8.84163 24.422C8.85928 24.4106 8.87694 24.4049 8.8946 24.3934C8.92991 24.3763 8.96522 24.3591 9.00642 24.3477C9.03585 24.3362 9.06528 24.3305 9.0947 24.3362C9.11825 24.3419 9.14179 24.3534 9.15944 24.3705C9.22419 24.4163 9.29481 24.4621 9.37132 24.4792C9.38898 24.4849 9.39486 24.4678 9.40664 24.4621C9.43606 24.4335 9.47137 24.4106 9.5008 24.3934C9.50669 24.3877 9.51846 24.382 9.52434 24.382C9.542 24.3705 9.55966 24.3648 9.57731 24.3534C9.64794 24.3248 9.72445 24.3191 9.80096 24.3133C9.748 24.2962 9.68914 24.2847 9.6244 24.279C9.58909 24.279 9.55377 24.279 9.52434 24.2962C9.51846 24.3019 9.51258 24.3076 9.51258 24.3076C9.50669 24.3133 9.49492 24.3191 9.48903 24.3248L9.43606 24.3591C9.43018 24.3591 9.43018 24.3648 9.42429 24.3648C9.41252 24.3705 9.40075 24.3763 9.39486 24.3877C9.38898 24.3934 9.37132 24.4049 9.35955 24.4049C9.35367 24.4049 9.34189 24.3991 9.33012 24.3934C9.32424 24.3877 9.31247 24.3877 9.30658 24.382C9.28892 24.3705 9.27127 24.3591 9.2595 24.3534C9.21241 24.3191 9.16533 24.2733 9.11825 24.2333C9.11236 24.2275 9.10647 24.2275 9.10059 24.2218H9.07704C9.05939 24.2275 9.04173 24.2275 9.02408 24.2333C9.01231 24.2333 9.00642 24.239 8.99465 24.239H8.977C8.95934 24.239 8.94168 24.2447 8.92403 24.2447C8.90048 24.2504 8.87106 24.2561 8.84751 24.2619C8.771 24.279 8.70037 24.2962 8.62386 24.3191V23.1693C12.4848 23.4096 16.3339 23.6555 20.2006 23.8958V25.8863ZM19.1001 6.29578L18.9294 6.06132H18.8529C18.8411 6.06132 18.8352 6.04988 18.8234 6.04988L18.6469 5.9126C18.5291 5.82108 18.4056 5.73528 18.282 5.6552C18.0348 5.48932 17.7758 5.33488 17.4992 5.20904C17.3756 5.1976 17.2756 5.1404 17.1343 5.0546C17.2873 5.07748 17.3932 5.09464 17.4992 5.1118C17.8641 5.10608 18.2055 5.22048 18.5527 5.32344C18.8234 5.40352 19.0942 5.48932 19.3767 5.5122C19.8063 5.5408 20.1418 5.76388 20.4773 5.98696C20.7421 6.16422 20.8304 6.45594 20.9128 6.7305C20.9716 6.94214 20.7657 7.03366 20.6362 7.15378V7.17666C20.6362 7.1881 20.6421 7.19954 20.6421 7.21098C20.6479 7.23386 20.6597 7.25102 20.6656 7.2739C20.6892 7.31966 20.7127 7.3597 20.7303 7.40546C20.7421 7.42834 20.748 7.45122 20.7539 7.4741C20.7598 7.49698 20.7657 7.52558 20.7598 7.54846C20.7598 7.5599 20.7421 7.57134 20.7362 7.57706C20.7009 7.62282 20.6597 7.66858 20.6244 7.70862L20.8716 7.62854C20.8892 7.61138 20.901 7.59422 20.9187 7.58278C20.9363 7.57134 20.954 7.55418 20.9716 7.54274C20.954 7.5313 20.954 7.52558 20.954 7.50842C20.9481 7.48554 20.9422 7.45694 20.9363 7.43406C20.9305 7.41118 20.9246 7.3883 20.9187 7.36542C20.9187 7.35398 20.9128 7.34254 20.9128 7.3311C20.9128 7.32538 20.901 7.3025 20.9069 7.29678C20.9716 7.17094 21.1129 7.14806 21.1835 7.06798C21.6191 7.09658 21.8604 7.31966 21.984 7.7029C22.1429 8.1891 22.184 8.70384 22.3312 9.19004C22.5842 10.0595 22.4253 10.9174 22.3606 11.7811C22.3253 12.2788 22.3783 12.7879 22.2783 13.2797C22.237 13.4685 22.1899 13.6458 22.0369 13.7545C21.984 13.9661 22.031 14.1606 22.0193 14.3551C21.9957 14.4123 21.9427 14.458 21.8956 14.4981C21.8545 14.5381 21.8074 14.5724 21.7603 14.6068C21.7603 14.6068 21.7603 14.6068 21.7544 14.6125C21.7132 14.6411 21.6662 14.6697 21.6308 14.704C21.6132 14.7212 21.5955 14.7383 21.5778 14.7555C21.5602 14.7726 21.5367 14.7841 21.5131 14.8012C21.4719 14.8241 21.4307 14.8527 21.3895 14.8813C21.3778 14.8928 21.3601 14.8985 21.3542 14.9156L21.3307 14.9385C21.3248 14.9442 21.313 14.9557 21.3071 14.9614C21.3012 14.9671 21.2954 14.9728 21.2954 14.9786C21.2954 14.9843 21.3012 14.9843 21.3012 14.99C21.3307 15.0243 21.3424 15.0758 21.3659 15.1158C21.3719 15.1273 21.3836 15.1387 21.3895 15.1559C21.3954 15.1616 21.3954 15.1673 21.3954 15.1788C21.4072 15.2016 21.4131 15.2245 21.4131 15.2474V15.2817C21.4072 15.3046 21.4189 15.3275 21.4013 15.3446C21.3778 15.3675 21.3483 15.3904 21.3248 15.4133C21.313 15.4247 21.3012 15.4362 21.2895 15.4419C21.2659 15.4648 21.2365 15.4819 21.213 15.5047C21.207 15.5105 21.2012 15.5105 21.2012 15.5162C21.1953 15.522 21.1953 15.5333 21.2012 15.5448C21.2189 15.6706 21.2365 15.8022 21.2541 15.928C21.2541 15.9452 21.26 15.9681 21.26 15.9909C21.2541 16.0081 21.2541 16.0253 21.2541 16.0481C21.2541 16.0996 21.26 16.1511 21.2659 16.1969L21.3778 15.6649C21.4602 15.5162 21.6662 15.4876 21.7191 15.3389C21.7191 15.2074 21.5955 15.173 21.5543 15.0586C21.7721 14.9042 21.9957 14.744 22.2429 14.5667C22.2488 14.4523 22.2606 14.315 22.2664 14.172C22.3488 14.1892 22.3606 14.2521 22.3665 14.3036C22.4077 15.0758 22.6019 15.8479 22.4313 16.6259C22.3724 16.9061 22.2723 17.175 22.237 17.4553C22.1429 18.2445 22.2664 19.0282 22.2488 19.8118C22.237 20.2064 22.29 20.6068 22.1546 21.0187C21.5661 21.3161 20.9716 21.585 20.3301 21.8824C20.3595 21.5335 20.3713 21.2246 20.4066 20.9157C20.4596 20.4181 20.436 19.9091 20.5479 19.4171C20.595 19.2055 20.5773 18.9767 20.5244 18.7651C20.3419 18.0787 20.3478 17.3923 20.436 16.7002C20.5303 15.9452 20.5067 15.1845 20.5184 14.4237C20.5303 13.663 20.6479 12.9137 20.6892 12.1529C20.7303 11.3579 20.801 10.5571 20.6597 9.77348C20.5479 9.15 20.3655 8.53796 20.289 7.9031C20.2301 7.43406 19.9887 7.0451 19.6121 6.74194C19.4709 6.62754 19.3414 6.50742 19.2001 6.3873C19.1648 6.3587 19.1354 6.3301 19.1001 6.29578C19.0942 6.29006 19.0883 6.29006 19.0883 6.28434C19.0765 6.2729 19.0765 6.26146 19.0707 6.2443L19.1001 6.29578ZM22.1959 21.9282C22.1959 21.9282 22.2017 21.9339 22.2076 21.9339C22.2135 21.9339 22.2135 21.9339 22.2194 21.9396C22.2312 21.9396 22.237 21.9453 22.2429 21.951C22.2547 21.9625 22.2606 21.9739 22.2664 21.9854C22.2664 22.0025 22.2723 22.0197 22.2723 22.0426C22.2723 22.0826 22.2783 22.1284 22.2723 22.1684C22.2723 22.1913 22.2723 22.2084 22.2664 22.2313V22.2542C22.2664 22.2656 22.2783 22.2656 22.29 22.2714C22.3077 22.2771 22.3194 22.2942 22.3253 22.3057C22.3312 22.3171 22.3371 22.3286 22.3312 22.34C22.3312 22.3514 22.3253 22.3629 22.3194 22.3686C22.3077 22.3915 22.29 22.4029 22.2664 22.4144C22.2135 22.4372 22.1605 22.4658 22.1134 22.4944C21.6426 22.7346 21.1718 22.9806 20.6773 23.2323C20.5479 22.9977 20.4596 22.7632 20.3713 22.4944C21.0246 22.197 21.672 21.8996 22.3253 21.5964C22.5431 21.728 22.6785 21.9282 22.8374 22.0998C22.7491 22.197 22.6372 22.2256 22.5254 22.2771C22.5137 22.2714 22.5019 22.2656 22.4901 22.2599C22.4783 22.2542 22.4607 22.2428 22.4489 22.237C22.4372 22.2313 22.4253 22.2199 22.4077 22.2199C22.3901 22.2142 22.3665 22.2027 22.3548 22.1913C22.3488 22.1856 22.3488 22.1798 22.3488 22.1684C22.343 22.1455 22.3371 22.1284 22.3371 22.1055C22.3312 22.0769 22.3253 22.054 22.3135 22.0254C22.3077 22.0025 22.2959 21.9739 22.29 21.951L22.1959 21.9282ZM22.5961 23.4782V23.3924C22.5961 23.3753 22.5961 23.3524 22.6078 23.3352C22.6137 23.3238 22.6137 23.3181 22.6196 23.3123C22.6196 23.3066 22.6255 23.3066 22.6255 23.3009C22.6431 23.2723 22.6608 23.2437 22.6843 23.2151C22.7844 23.1007 22.8432 22.9691 22.8315 22.809C22.8962 22.7632 22.9609 22.7117 23.0728 22.7175C23.1139 23.278 23.0845 23.8615 23.0669 24.4563C22.3253 24.8853 21.5837 25.3143 20.8127 25.7547V23.8157C21.4131 23.5068 22.0075 23.2037 22.6078 22.9005C22.6255 22.9234 22.6372 22.952 22.6431 22.9806C22.649 22.9977 22.6431 23.0206 22.6431 23.0378C22.6431 23.0492 22.6372 23.0549 22.6314 23.0664C22.6314 23.0721 22.6255 23.0778 22.6196 23.0893C22.6137 23.095 22.6019 23.1064 22.5961 23.1121C22.5842 23.1179 22.5784 23.1293 22.5666 23.1407C22.5548 23.1522 22.5431 23.1693 22.5372 23.1808C22.5313 23.1865 22.5254 23.1922 22.5254 23.2037C22.5196 23.2094 22.5137 23.2208 22.5137 23.2323C22.496 23.2609 22.4783 23.2952 22.4548 23.3238C22.443 23.3352 22.4313 23.3524 22.4313 23.3695C22.4313 23.3753 22.4313 23.381 22.4372 23.3867V23.6098C22.4372 23.6498 22.443 23.6841 22.443 23.7242C22.443 23.7528 22.4372 23.7928 22.4195 23.8157L22.4018 23.8329C22.4018 23.8329 22.3959 23.8386 22.3959 23.8443C22.3959 23.85 22.3901 23.85 22.3842 23.8557C22.343 23.9015 22.29 23.9358 22.237 23.9701C22.2723 23.9644 22.3077 23.9587 22.3371 23.9415C22.3606 23.9301 22.3842 23.9129 22.4136 23.9015C22.4195 23.9015 22.4253 23.8901 22.4372 23.8901C22.4372 23.8901 22.4372 23.8901 22.443 23.8901C22.4548 23.8729 22.4607 23.8557 22.4724 23.8329C22.4783 23.8271 22.4783 23.8157 22.4842 23.8043C22.4901 23.7928 22.4901 23.7871 22.496 23.7757C22.496 23.7699 22.5019 23.7642 22.5019 23.7585C22.5077 23.7356 22.5137 23.7127 22.5254 23.6899C22.5313 23.6784 22.5313 23.667 22.5372 23.6555C22.5372 23.6498 22.5431 23.6441 22.5431 23.6327C22.5431 23.6212 22.5431 23.6098 22.549 23.6041C22.549 23.5926 22.5548 23.5812 22.5666 23.5755C22.5725 23.5755 22.5725 23.5755 22.5784 23.5755L22.5961 23.4782Z" fill="#E0E3BD"/>
<path d="M22.29 21.951L22.1664 21.9053M22.29 21.951C22.2959 21.9739 22.3077 22.0025 22.3135 22.0254C22.3253 22.054 22.3312 22.0769 22.3371 22.1055C22.3371 22.1284 22.343 22.1455 22.3488 22.1684C22.3488 22.1798 22.3488 22.1856 22.3548 22.1913C22.3665 22.2027 22.3901 22.2142 22.4077 22.2199C22.4253 22.2199 22.4372 22.2313 22.4489 22.237C22.4607 22.2428 22.4783 22.2542 22.4901 22.2599C22.5019 22.2656 22.5137 22.2714 22.5254 22.2771C22.6372 22.2256 22.7491 22.197 22.8374 22.0998C22.6785 21.9282 22.5431 21.728 22.3253 21.5964C21.672 21.8996 21.0246 22.197 20.3713 22.4944C20.4596 22.7632 20.5479 22.9977 20.6773 23.2323C21.1718 22.9806 21.6426 22.7346 22.1134 22.4944C22.1605 22.4658 22.2135 22.4372 22.2664 22.4144C22.29 22.4029 22.3077 22.3915 22.3194 22.3686C22.3253 22.3629 22.3312 22.3514 22.3312 22.34C22.3371 22.3286 22.3312 22.3171 22.3253 22.3057C22.3194 22.2942 22.3077 22.2771 22.29 22.2714C22.2783 22.2656 22.2664 22.2656 22.2664 22.2542V22.2313C22.2723 22.2084 22.2723 22.1913 22.2723 22.1684C22.2783 22.1284 22.2723 22.0826 22.2723 22.0426C22.2723 22.0197 22.2664 22.0025 22.2664 21.9854C22.2606 21.9739 22.2547 21.9625 22.2429 21.951C22.237 21.9453 22.2312 21.9396 22.2194 21.9396C22.2135 21.9339 22.2135 21.9339 22.2076 21.9339C22.2017 21.9339 22.1959 21.9282 22.1959 21.9282L22.29 21.951ZM19.1001 6.29578L18.9294 6.06132H18.8529C18.8411 6.06132 18.8352 6.04988 18.8234 6.04988L18.6469 5.9126C18.5291 5.82108 18.4056 5.73528 18.282 5.6552C18.0348 5.48932 17.7758 5.33488 17.4992 5.20904C17.3756 5.1976 17.2756 5.1404 17.1343 5.0546C17.2873 5.07748 17.3932 5.09464 17.4992 5.1118C17.8641 5.10608 18.2055 5.22048 18.5527 5.32344C18.8234 5.40352 19.0942 5.48932 19.3767 5.5122C19.8063 5.5408 20.1418 5.76388 20.4773 5.98696C20.7421 6.16422 20.8304 6.45594 20.9128 6.7305C20.9716 6.94214 20.7657 7.03366 20.6362 7.15378V7.17666C20.6362 7.1881 20.6421 7.19954 20.6421 7.21098C20.6479 7.23386 20.6597 7.25102 20.6656 7.2739C20.6892 7.31966 20.7127 7.3597 20.7303 7.40546C20.7421 7.42834 20.748 7.45122 20.7539 7.4741C20.7598 7.49698 20.7657 7.52558 20.7598 7.54846C20.7598 7.5599 20.7421 7.57134 20.7362 7.57706C20.7009 7.62282 20.6597 7.66858 20.6244 7.70862L20.8716 7.62854C20.8892 7.61138 20.901 7.59422 20.9187 7.58278C20.9363 7.57134 20.954 7.55418 20.9716 7.54274C20.954 7.5313 20.954 7.52558 20.954 7.50842C20.9481 7.48554 20.9422 7.45694 20.9363 7.43406C20.9305 7.41118 20.9246 7.3883 20.9187 7.36542C20.9187 7.35398 20.9128 7.34254 20.9128 7.3311C20.9128 7.32538 20.901 7.3025 20.9069 7.29678C20.9716 7.17094 21.1129 7.14806 21.1835 7.06798C21.6191 7.09658 21.8604 7.31966 21.984 7.7029C22.1429 8.1891 22.184 8.70384 22.3312 9.19004C22.5842 10.0595 22.4253 10.9174 22.3606 11.7811C22.3253 12.2788 22.3783 12.7879 22.2783 13.2797C22.237 13.4685 22.1899 13.6458 22.0369 13.7545C21.984 13.9661 22.031 14.1606 22.0193 14.3551C21.9957 14.4123 21.9427 14.458 21.8956 14.4981C21.8545 14.5381 21.8074 14.5724 21.7603 14.6068C21.7603 14.6068 21.7603 14.6068 21.7544 14.6125C21.7132 14.6411 21.6662 14.6697 21.6308 14.704C21.6132 14.7212 21.5955 14.7383 21.5778 14.7555C21.5602 14.7726 21.5367 14.7841 21.5131 14.8012C21.4719 14.8241 21.4307 14.8527 21.3895 14.8813C21.3778 14.8928 21.3601 14.8985 21.3542 14.9156L21.3307 14.9385C21.3248 14.9442 21.313 14.9557 21.3071 14.9614C21.3012 14.9671 21.2954 14.9728 21.2954 14.9786C21.2954 14.9843 21.3012 14.9843 21.3012 14.99C21.3307 15.0243 21.3424 15.0758 21.3659 15.1158C21.3719 15.1273 21.3836 15.1387 21.3895 15.1559C21.3954 15.1616 21.3954 15.1673 21.3954 15.1788C21.4072 15.2016 21.4131 15.2245 21.4131 15.2474V15.2817C21.4072 15.3046 21.4189 15.3275 21.4013 15.3446C21.3778 15.3675 21.3483 15.3904 21.3248 15.4133C21.313 15.4247 21.3012 15.4362 21.2895 15.4419C21.2659 15.4648 21.2365 15.4819 21.213 15.5047C21.207 15.5105 21.2012 15.5105 21.2012 15.5162C21.1953 15.522 21.1953 15.5333 21.2012 15.5448C21.2189 15.6706 21.2365 15.8022 21.2541 15.928C21.2541 15.9452 21.26 15.968 21.26 15.9909C21.2541 16.0081 21.2541 16.0253 21.2541 16.0481C21.2541 16.0996 21.26 16.1511 21.2659 16.1969L21.3778 15.6649C21.4602 15.5162 21.6662 15.4876 21.7191 15.3389C21.7191 15.2074 21.5955 15.173 21.5543 15.0586C21.7721 14.9042 21.9957 14.744 22.2429 14.5667C22.2488 14.4523 22.2606 14.315 22.2664 14.172C22.3488 14.1892 22.3606 14.2521 22.3665 14.3036C22.4077 15.0758 22.6019 15.8479 22.4313 16.6259C22.3724 16.9061 22.2723 17.175 22.237 17.4553C22.1429 18.2445 22.2664 19.0282 22.2488 19.8118C22.237 20.2064 22.29 20.6068 22.1546 21.0187C21.5661 21.3161 20.9716 21.585 20.3301 21.8824C20.3595 21.5335 20.3713 21.2246 20.4066 20.9157C20.4596 20.4181 20.436 19.9091 20.5479 19.4171C20.595 19.2055 20.5773 18.9767 20.5244 18.7651C20.3419 18.0787 20.3478 17.3923 20.436 16.7002C20.5303 15.9452 20.5067 15.1845 20.5184 14.4237C20.5303 13.663 20.6479 12.9137 20.6892 12.1529C20.7303 11.3579 20.801 10.5571 20.6597 9.77348C20.5479 9.15 20.3655 8.53796 20.289 7.9031C20.2301 7.43406 19.9887 7.0451 19.6121 6.74194C19.4709 6.62754 19.3414 6.50742 19.2001 6.3873C19.1648 6.3587 19.1354 6.3301 19.1001 6.29578ZM19.1001 6.29578C19.0942 6.29006 19.0883 6.29006 19.0883 6.28434C19.0765 6.2729 19.0765 6.26146 19.0707 6.2443L19.1001 6.29578ZM23.5554 21.9625C23.2552 21.728 23.0316 21.4248 22.7491 21.1617C22.7667 20.87 22.802 20.6068 22.802 20.3437C22.7961 19.6231 22.8432 18.9024 22.7844 18.1816C22.7491 17.7413 22.8726 17.318 22.9963 16.8947C23.2376 16.0882 23.1022 15.2588 22.9786 14.4638C22.8903 13.8975 22.8785 13.3484 22.9198 12.7879C22.9609 12.2959 22.9669 11.804 23.008 11.3121C23.061 10.6143 23.1258 9.92792 22.9433 9.22436C22.7844 8.62948 22.7491 8.00606 22.5019 7.43406C22.3077 6.9879 22.3077 6.9879 21.7073 6.2157C21.1718 5.66664 21.0894 5.66092 20.6303 5.39208C20.2771 5.18616 19.9299 4.99168 19.5003 4.95164C18.9529 4.90016 18.4468 4.66564 17.9053 4.57984C16.9636 4.43112 16.0337 4.5112 15.1038 4.64848C13.8561 4.83724 12.626 5.07176 11.6667 5.9984C11.2135 6.43878 10.7485 6.85634 10.5543 7.46838C10.5013 7.63998 10.3836 7.7887 10.2953 7.94314C9.88925 8.61232 9.98341 8.91548 9.92456 9.78492C9.95987 9.84784 9.84216 10.2254 9.80096 10.3283C9.748 10.9117 9.74211 10.54 9.748 10.7916C9.76565 11.5523 9.77153 12.3131 9.77742 13.0681C9.78331 13.7545 9.81274 14.4409 9.68325 15.1158C9.542 15.8308 9.55377 16.5515 9.54789 17.2722C9.54789 17.4324 9.55377 17.5983 9.51258 17.7527C9.38898 18.2903 9.4184 18.828 9.44783 19.3657C9.48903 20.0978 9.45372 20.8242 9.542 21.5735C9.10647 21.9053 8.67683 22.237 8.24131 22.5573C8.08828 22.666 8 22.7861 8 22.9806C8.01177 23.7871 8.01177 24.5936 8.01766 25.4001C8.01766 25.6174 8.1236 25.7376 8.35313 25.7547C9.4184 25.8176 10.4778 25.8806 11.5372 25.9492C12.9144 26.035 14.2857 26.1151 15.6629 26.2009C17.2226 26.2981 18.7823 26.4011 20.3419 26.4983C20.5538 26.5098 20.748 26.464 20.9305 26.3553C21.7486 25.8748 22.5725 25.3944 23.3965 24.9253C23.5966 24.811 23.6731 24.6623 23.6731 24.4392C23.679 23.7356 23.6966 23.0321 23.7143 22.3343C23.7143 22.1913 23.6849 22.0597 23.5554 21.9625ZM10.0128 18.3475C10.0835 17.867 10.1482 17.3923 10.1364 16.9061C10.1188 16.2769 10.1953 15.6592 10.2895 15.0415C10.4189 14.1835 10.3719 13.3198 10.3542 12.4561C10.3483 12.1415 10.3424 11.8269 10.3483 11.518C10.3483 11.4379 10.3542 11.3579 10.3601 11.2778C10.366 11.232 10.3719 11.1863 10.3719 11.1348C10.3719 11.1119 10.3895 11.0947 10.4072 11.0776C10.4307 11.049 10.4601 11.0204 10.4837 10.9918C10.4896 10.9861 10.4955 10.9803 10.5072 10.9746C10.5131 10.9746 10.5249 10.9746 10.5308 10.9803C10.6367 11.0261 10.8192 11.192 10.825 11.2034C10.825 11.2091 11.0369 11.3636 11.0369 11.3693C11.0428 11.375 10.9074 11.661 10.9074 11.6725C11.1605 11.6725 11.0958 11.5924 11.3018 11.232C11.3135 11.2091 11.0958 11.0661 11.0958 11.0375C11.0605 11.0032 11.0487 10.9575 11.031 10.9174C11.0134 10.8659 10.9839 10.8202 10.9545 10.7802C10.9369 10.7573 10.9192 10.7402 10.9015 10.7173C10.8839 10.7001 10.8662 10.683 10.8486 10.6658C10.8368 10.6544 10.8309 10.6429 10.8309 10.6258C10.825 10.6029 10.8133 10.5857 10.8074 10.5628C10.7838 10.5114 10.7603 10.4542 10.7426 10.397C10.7014 10.2883 10.6661 10.1739 10.6308 10.0595C10.5955 9.94508 10.5602 9.83068 10.519 9.71628C10.4955 9.65336 10.4719 9.59616 10.4484 9.53324C10.4896 8.99556 10.5955 8.48082 10.9604 8.0461C11.0428 7.94314 11.0958 7.81158 11.137 7.69146C11.3018 7.16522 11.6667 6.7877 12.0845 6.45022C12.3435 6.23858 12.5789 5.98696 12.8791 5.84396C12.885 5.83824 12.9085 5.8554 12.9144 5.8554C12.9262 5.86112 12.9379 5.86684 12.9497 5.87256C12.9732 5.88972 12.9909 5.90688 13.0027 5.92976C13.0262 5.95836 13.0321 5.9984 13.0498 6.027C13.0615 6.0556 13.0733 6.08992 13.0851 6.11852C13.1086 6.18138 13.1322 6.23858 13.1498 6.3015C13.1557 6.31294 13.1557 6.31866 13.1616 6.32438C13.1616 6.3301 13.1675 6.33582 13.1675 6.33582C13.1675 6.33582 13.1792 6.34154 13.1851 6.34154C13.2087 6.34726 13.2322 6.3587 13.2558 6.36442C13.2616 6.36442 13.2322 6.51886 13.2322 6.5303V6.5589C13.2322 6.58178 13.2263 6.61038 13.2263 6.63326C13.2204 6.68474 13.2204 6.73622 13.2146 6.7877C13.2146 6.80486 13.2087 6.82774 13.2146 6.8449C13.2204 6.86206 13.2263 6.8735 13.2322 6.89066C13.2793 6.98218 13.3028 7.32538 13.3028 7.32538C13.3028 7.32538 13.3793 7.1309 13.3735 7.11946C13.3676 7.1023 13.3676 7.09086 13.3617 7.0737C13.3558 7.0451 13.3499 7.01078 13.344 6.98218C13.3382 6.94214 13.3323 6.9021 13.3264 6.85634C13.3264 6.83918 13.3205 6.82774 13.3205 6.81058C13.3205 6.79914 13.3146 6.79342 13.3205 6.78198C13.3264 6.76482 13.3323 6.74766 13.344 6.73622C13.3499 6.71906 13.3617 6.7019 13.3676 6.68474C13.3676 6.68474 13.4029 6.69046 13.4088 6.69618C13.4206 6.7019 13.4323 6.70762 13.4441 6.70762C13.4794 6.71334 13.5088 6.72478 13.5383 6.74194C13.55 6.74766 13.5618 6.75338 13.5736 6.76482C13.5795 6.77626 13.5853 6.7877 13.5912 6.79914C13.6207 6.8735 13.6501 6.95358 13.6854 7.02794C13.6913 7.03938 13.6972 7.05654 13.7089 7.06798C13.7207 7.07942 13.7325 7.08514 13.7443 7.09086C13.8208 7.13662 13.9032 7.18238 13.9797 7.22814C13.9443 7.17094 13.8914 7.12518 13.8443 7.06798C13.7737 6.98218 13.7266 6.87922 13.7089 6.77054C13.703 6.74766 13.703 6.72478 13.703 6.7019C13.6442 6.66186 13.5853 6.62754 13.5265 6.5875C13.5029 6.57034 13.4735 6.5589 13.4559 6.54174C13.45 6.53602 13.4441 6.52458 13.4441 6.51314C13.4382 6.49598 13.4323 6.48454 13.4264 6.46738C13.4029 6.40446 13.3852 6.34154 13.3617 6.28434C13.3558 6.26718 13.3499 6.2443 13.3323 6.23858C13.3264 6.23286 13.3146 6.23286 13.3028 6.22714C13.2852 6.2157 13.2793 6.19282 13.2734 6.17566C13.2675 6.15278 13.2616 6.12424 13.2558 6.10136C13.2499 6.0842 13.244 6.06132 13.244 6.03844V6.01556C13.2381 5.97552 13.2263 5.93548 13.2263 5.89544C13.2204 5.79248 13.244 5.68952 13.3028 5.598C15.0979 5.3406 16.9106 5.12896 18.488 6.4731V7.2739C18.488 7.29678 18.488 7.32538 18.4762 7.34826C18.4703 7.35398 18.4703 7.3597 18.4644 7.37114C18.4586 7.3883 18.4526 7.40546 18.4409 7.4169C18.4232 7.4455 18.4056 7.4741 18.3821 7.50842C18.3585 7.54274 18.3349 7.57706 18.3232 7.6171C18.3291 7.61138 18.3349 7.61138 18.3408 7.60566L18.3585 7.5885C18.3702 7.57706 18.3879 7.56562 18.3997 7.5599C18.4291 7.54274 18.4526 7.51986 18.4762 7.49698C18.488 7.48554 18.4939 7.4741 18.5056 7.45694C18.5174 7.43978 18.5291 7.41118 18.541 7.39402C18.5586 7.37686 18.5704 7.34826 18.5762 7.31966C18.5821 7.30822 18.588 7.3025 18.588 7.29106C18.5939 7.27962 18.5939 7.26818 18.5998 7.25102C18.6057 7.22242 18.6115 7.19954 18.6175 7.17094C18.641 7.05654 18.6469 6.94214 18.6645 6.82774C18.6704 6.78198 18.6822 6.74194 18.694 6.69618C19.1825 7.06798 19.6886 7.39402 19.7593 8.0461C19.8181 8.59516 19.9182 9.13284 20.0771 9.6648C20.1241 9.81924 20.1653 9.9794 20.1653 10.1396C20.1653 11.2091 20.2183 12.2731 20.0417 13.3369C19.9476 13.9032 19.9535 14.4924 19.9476 15.0701C19.9476 15.6878 19.9123 16.3055 19.8534 16.9176C19.7945 17.5182 19.7945 18.113 19.9476 18.6964C20.03 19.0053 19.977 19.3142 19.9417 19.6288C19.8711 20.2408 19.8417 20.8585 19.8004 21.4763C19.7887 21.625 19.7945 21.7794 19.7298 21.9396C16.5281 21.768 13.3323 21.5964 10.1188 21.4191C10.1188 21.4191 10.107 21.3218 10.107 21.3161C10.1011 21.2761 10.0952 21.236 10.0894 21.196C10.0776 21.1159 10.0717 21.0416 10.0658 20.9615C10.0599 20.8814 10.0658 20.807 10.0717 20.7327V20.7041C10.0717 20.6755 10.0776 20.6412 10.0835 20.6183C10.0894 20.5897 10.0952 20.5554 10.1011 20.5268C10.1188 20.4581 10.1364 20.3895 10.1659 20.3208C10.1718 20.3094 10.1718 20.3037 10.1776 20.2922C10.1835 20.2865 10.1953 20.2808 10.2071 20.2751C10.3601 20.2179 10.5072 20.1607 10.6602 20.1035C10.6779 20.0978 10.6838 20.0749 10.6956 20.0578C10.7073 20.0406 10.7191 20.0235 10.7368 20.0063C10.7485 19.9949 10.7662 19.9834 10.778 19.972C10.8015 19.9491 10.8133 19.9205 10.825 19.8919C10.8486 19.8461 10.8721 19.7947 10.8898 19.7489C10.9015 19.726 10.9133 19.7031 10.9192 19.686C10.9192 19.6803 10.9192 19.6745 10.9251 19.6688C10.9428 19.6402 10.9839 19.6173 11.0075 19.6002C11.0605 19.5601 11.1075 19.5144 11.1429 19.4629C11.0958 19.4858 11.0605 19.5144 11.0134 19.543C10.9957 19.5544 10.9722 19.5659 10.9486 19.5716C10.9428 19.5716 10.9369 19.5716 10.9251 19.5773C10.9192 19.5773 10.9192 19.583 10.9192 19.583C10.9074 19.5945 10.8957 19.6116 10.8839 19.6288C10.8604 19.6631 10.8368 19.6974 10.8133 19.7317C10.7838 19.7718 10.7544 19.8118 10.725 19.8576C10.6956 19.9033 10.6779 19.9491 10.6308 19.972C10.6191 19.9777 10.6014 19.9834 10.5837 19.9891C10.4366 20.0349 10.2836 20.0864 10.1364 20.1322C10.107 20.1435 10.0776 20.1493 10.0482 20.1721V20.115C10.054 20.0864 10.0482 20.0578 10.054 20.0349V19.9205C10.054 19.8404 10.0482 19.7661 10.0482 19.686C10.0423 19.5315 10.0305 19.3771 10.0246 19.2284C9.97753 18.9424 9.97164 18.645 10.0128 18.3475ZM9.88336 22.0597C9.96576 21.9968 10.0717 22.014 10.1659 22.0197C12.0551 22.1226 13.9443 22.2199 15.8336 22.3228C17.0695 22.3915 18.3055 22.4601 19.5474 22.523C19.6062 22.5287 19.6651 22.5401 19.7298 22.5459C19.8475 22.7747 19.9417 23.0092 20.0123 23.2952C16.4045 23.0664 12.8261 22.8433 9.18298 22.6145C9.43018 22.3743 9.6656 22.2256 9.88336 22.0597ZM20.2006 25.8863C19.9358 25.9263 19.6769 25.892 19.4355 25.8634C19.4238 25.8634 19.412 25.852 19.4061 25.8462C19.3943 25.8405 19.3885 25.8348 19.3767 25.8234C19.359 25.8119 19.3414 25.7948 19.3237 25.7776C19.2884 25.7433 19.2648 25.6975 19.2296 25.6632C19.2177 25.6518 19.2001 25.6403 19.1942 25.6289C19.1825 25.606 19.1766 25.5831 19.1707 25.5602C19.1707 25.5545 19.1707 25.5488 19.1648 25.5374C19.1589 25.5316 19.153 25.5259 19.153 25.5145C19.1236 25.4802 19.1001 25.4458 19.0824 25.4058C19.0765 25.3944 19.0765 25.3772 19.0765 25.3658C19.0824 25.3314 19.0647 25.2971 19.053 25.2685C19.0471 25.2399 19.0412 25.217 19.0353 25.1884C19.0353 25.1827 19.0294 25.1713 19.0236 25.1656C19.0118 25.1484 18.9941 25.137 18.9764 25.1255C18.9353 25.0798 18.8941 25.0397 18.8529 24.9997C18.8352 24.9825 18.8175 24.9711 18.7999 24.9596C18.8117 24.9654 18.8175 24.9825 18.8293 24.994C18.8352 25.0054 18.847 25.0168 18.8588 25.0283C18.8764 25.0512 18.8941 25.074 18.9058 25.1084C18.9058 25.1198 18.9176 25.137 18.9235 25.1484C18.9412 25.1827 18.9529 25.2113 18.9588 25.2456C18.9706 25.2914 18.9764 25.3372 18.9764 25.3829C18.9823 25.423 18.9823 25.4687 18.9883 25.5088C18.9883 25.5088 19.0177 25.5202 19.0236 25.5202C19.0294 25.5259 19.0294 25.5374 19.0294 25.5488C19.0412 25.5774 19.0588 25.606 19.0765 25.6346C19.0824 25.646 19.0883 25.6575 19.0942 25.6689V25.7662C19.0942 25.7776 19.0942 25.7948 19.0883 25.8062C19.0765 25.8234 19.053 25.8348 19.0588 25.8577C19.0353 25.8577 19 25.8634 18.9764 25.8577C18.9706 25.8577 18.9647 25.8577 18.9588 25.852C18.9176 25.8462 18.8823 25.8462 18.8411 25.8462C18.7646 25.8405 18.688 25.8348 18.6115 25.8348C17.9465 25.7948 17.2814 25.749 16.6164 25.709C15.9513 25.6689 15.2863 25.6232 14.6212 25.5831C13.9562 25.5431 13.2911 25.4973 12.626 25.4573C11.9609 25.4172 11.2959 25.3715 10.6308 25.3314C10.2953 25.3086 9.96576 25.2914 9.63028 25.2685C9.46549 25.2571 9.29481 25.2456 9.13001 25.2399C9.04762 25.2342 8.96522 25.2285 8.88282 25.2228C8.86517 25.2228 8.64152 25.2113 8.64152 25.2056V24.6565L8.6474 24.6508C8.65329 24.6451 8.65329 24.6451 8.65918 24.6394C8.66506 24.6279 8.67095 24.6222 8.67683 24.6108C8.69449 24.5879 8.70626 24.5707 8.72392 24.5479C8.74158 24.525 8.76512 24.5021 8.78277 24.4792C8.78866 24.4678 8.79454 24.4621 8.80043 24.4506C8.8122 24.4392 8.82985 24.4277 8.84163 24.422C8.85928 24.4106 8.87694 24.4049 8.8946 24.3934C8.92991 24.3763 8.96522 24.3591 9.00642 24.3477C9.03585 24.3362 9.06528 24.3305 9.0947 24.3362C9.11825 24.3419 9.14179 24.3534 9.15944 24.3705C9.22419 24.4163 9.29481 24.4621 9.37132 24.4792C9.38898 24.4849 9.39486 24.4678 9.40664 24.4621C9.43606 24.4335 9.47137 24.4106 9.5008 24.3934C9.50669 24.3877 9.51846 24.382 9.52434 24.382C9.542 24.3705 9.55966 24.3648 9.57731 24.3534C9.64794 24.3248 9.72446 24.3191 9.80096 24.3133C9.748 24.2962 9.68914 24.2847 9.6244 24.279C9.58909 24.279 9.55377 24.279 9.52434 24.2962C9.51846 24.3019 9.51258 24.3076 9.51258 24.3076C9.50669 24.3133 9.49492 24.3191 9.48903 24.3248L9.43606 24.3591C9.43018 24.3591 9.43018 24.3648 9.42429 24.3648C9.41252 24.3705 9.40075 24.3763 9.39486 24.3877C9.38898 24.3934 9.37132 24.4049 9.35955 24.4049C9.35367 24.4049 9.34189 24.3991 9.33012 24.3934C9.32424 24.3877 9.31247 24.3877 9.30658 24.382C9.28892 24.3705 9.27127 24.3591 9.2595 24.3534C9.21241 24.3191 9.16533 24.2733 9.11825 24.2333C9.11236 24.2275 9.10647 24.2275 9.10059 24.2218H9.07705C9.05939 24.2275 9.04173 24.2275 9.02408 24.2333C9.01231 24.2333 9.00642 24.239 8.99465 24.239H8.977C8.95934 24.239 8.94168 24.2447 8.92403 24.2447C8.90048 24.2504 8.87106 24.2561 8.84751 24.2619C8.771 24.279 8.70037 24.2962 8.62386 24.3191V23.1693C12.4848 23.4096 16.3339 23.6555 20.2006 23.8958V25.8863ZM22.5961 23.4782V23.3924C22.5961 23.3753 22.5961 23.3524 22.6078 23.3352C22.6137 23.3238 22.6137 23.3181 22.6196 23.3123C22.6196 23.3066 22.6255 23.3066 22.6255 23.3009C22.6431 23.2723 22.6608 23.2437 22.6843 23.2151C22.7844 23.1007 22.8432 22.9691 22.8315 22.809C22.8962 22.7632 22.9609 22.7117 23.0728 22.7175C23.1139 23.278 23.0845 23.8615 23.0669 24.4563C22.3253 24.8853 21.5837 25.3143 20.8127 25.7547V23.8157C21.4131 23.5068 22.0075 23.2037 22.6078 22.9005C22.6255 22.9234 22.6372 22.952 22.6431 22.9806C22.649 22.9977 22.6431 23.0206 22.6431 23.0378C22.6431 23.0492 22.6372 23.0549 22.6314 23.0664C22.6314 23.0721 22.6255 23.0778 22.6196 23.0893C22.6137 23.095 22.6019 23.1064 22.5961 23.1121C22.5842 23.1179 22.5784 23.1293 22.5666 23.1407C22.5548 23.1522 22.5431 23.1693 22.5372 23.1808C22.5313 23.1865 22.5254 23.1922 22.5254 23.2037C22.5196 23.2094 22.5137 23.2208 22.5137 23.2323C22.496 23.2609 22.4783 23.2952 22.4548 23.3238C22.443 23.3352 22.4313 23.3524 22.4313 23.3695C22.4313 23.3753 22.4313 23.381 22.4372 23.3867V23.6098C22.4372 23.6498 22.443 23.6841 22.443 23.7242C22.443 23.7528 22.4372 23.7928 22.4195 23.8157L22.4018 23.8329C22.4018 23.8329 22.3959 23.8386 22.3959 23.8443C22.3959 23.85 22.3901 23.85 22.3842 23.8557C22.343 23.9015 22.29 23.9358 22.237 23.9701C22.2723 23.9644 22.3077 23.9587 22.3371 23.9415C22.3606 23.9301 22.3842 23.9129 22.4136 23.9015C22.4195 23.9015 22.4253 23.8901 22.4372 23.8901C22.4372 23.8901 22.4372 23.8901 22.443 23.8901C22.4548 23.8729 22.4607 23.8557 22.4724 23.8329C22.4783 23.8271 22.4783 23.8157 22.4842 23.8043C22.4901 23.7928 22.4901 23.7871 22.496 23.7757C22.496 23.7699 22.5019 23.7642 22.5019 23.7585C22.5077 23.7356 22.5137 23.7127 22.5254 23.6899C22.5313 23.6784 22.5313 23.667 22.5372 23.6555C22.5372 23.6498 22.5431 23.6441 22.5431 23.6327C22.5431 23.6212 22.5431 23.6098 22.549 23.6041C22.549 23.5926 22.5548 23.5812 22.5666 23.5755C22.5725 23.5755 22.5725 23.5755 22.5784 23.5755L22.5961 23.4782Z" stroke="#362745" stroke-width="0.5" stroke-miterlimit="10"/>
<path d="M15.8726 13.4854C15.7313 13.6913 15.7195 13.9716 15.8196 14.2004C15.849 14.269 15.8902 14.3319 15.9549 14.372C16.0844 14.4463 16.2492 14.3777 16.3846 14.309C16.5612 14.2175 16.7436 14.1088 16.8143 13.9259C16.8672 13.7943 16.8437 13.6399 16.7789 13.514C16.7436 13.4339 16.6906 13.3653 16.6318 13.3024C16.5906 13.2623 16.5553 13.2109 16.4906 13.2051C16.3434 13.1823 16.1845 13.228 16.0609 13.3024C15.9844 13.3539 15.9197 13.4168 15.8726 13.4854Z" fill="#6B00FA" stroke="#362745" stroke-width="0.5" stroke-miterlimit="10"/>
<path d="M13.195 13.5252C13.1479 13.6053 13.1126 13.6911 13.1067 13.7826C13.095 13.937 13.1715 14.08 13.2421 14.2173C13.2539 14.2459 13.2715 14.2745 13.2951 14.2917C13.3186 14.3088 13.348 14.3146 13.3775 14.3203C13.6717 14.3603 13.9778 14.2459 14.1661 14.0228C14.2014 13.9771 14.2309 13.9313 14.2485 13.8798C14.2721 13.7998 14.2721 13.7197 14.2662 13.6396C14.2603 13.5252 14.2485 13.3936 14.1602 13.3136C14.119 13.2735 14.066 13.2449 14.0131 13.222C13.9484 13.1877 13.8718 13.1477 13.8012 13.1248C13.7482 13.1134 13.6835 13.1305 13.6364 13.1477C13.5128 13.1877 13.4069 13.2678 13.3186 13.3593C13.2951 13.3879 13.2715 13.4108 13.248 13.4394C13.2362 13.4566 13.2244 13.468 13.2186 13.4852C13.2127 13.4909 13.2068 13.5138 13.195 13.5252Z" fill="#6B00FA" stroke="#362745" stroke-width="0.5" stroke-miterlimit="10"/>
<path d="M13.5739 14.4811C13.1266 14.4811 12.7617 14.1264 12.7617 13.6917C12.7617 13.257 13.1266 12.9023 13.5739 12.9023C14.0212 12.9023 14.3861 13.257 14.3861 13.6917C14.3861 14.1264 14.0212 14.4811 13.5739 14.4811ZM13.5739 13.1311C13.2561 13.1311 12.9971 13.3828 12.9971 13.6917C12.9971 14.0006 13.2561 14.2523 13.5739 14.2523C13.8918 14.2523 14.1507 14.0006 14.1507 13.6917C14.1507 13.3828 13.8918 13.1311 13.5739 13.1311Z" fill="#362745"/>
<path d="M16.1872 14.5377C15.7399 14.5377 15.375 14.1831 15.375 13.7483C15.375 13.3136 15.7399 12.959 16.1872 12.959C16.6345 12.959 16.9994 13.3136 16.9994 13.7483C16.9994 14.1831 16.6345 14.5377 16.1872 14.5377ZM16.1872 13.1878C15.8694 13.1878 15.6105 13.4395 15.6105 13.7483C15.6105 14.0572 15.8694 14.3089 16.1872 14.3089C16.505 14.3089 16.764 14.0572 16.764 13.7483C16.764 13.4395 16.505 13.1878 16.1872 13.1878Z" fill="#362745"/>
<path d="M13.1966 14.2011C13.1142 14.0809 12.9141 13.9437 12.9141 13.8064C12.9141 13.4003 13.1142 13.0742 13.532 13.0742C13.5379 13.0742 13.8441 13.0742 13.8499 13.0742C13.897 13.12 13.9441 13.16 13.9794 13.2058C13.9265 13.1943 13.8794 13.1886 13.8264 13.1886C13.4791 13.1886 13.1908 13.4632 13.1908 13.8064C13.1908 13.9723 13.2555 14.121 13.3673 14.2354L13.1966 14.2011Z" fill="#362745"/>
<path d="M15.9957 14.3038C15.9368 14.2981 15.6189 14.1783 15.5601 14.1668C15.4777 14.0467 15.5601 13.6005 15.5601 13.4518C15.5601 13.0629 16.0427 13.103 16.4371 13.0801L16.5548 13.2514C16.5195 13.2456 16.4783 13.2399 16.4371 13.2399C16.0899 13.2399 15.8015 13.5145 15.8015 13.8577C15.8073 14.035 15.878 14.1894 15.9957 14.3038Z" fill="#362745"/>
</g>
<defs>
<clipPath id="clip0_1501_2989">
<rect width="32" height="32" fill="white"/>
</clipPath>
</defs>
</svg>
