<?xml version="1.0" standalone="no"?>
<!DOCTYPE svg PUBLIC "-//W3C//DTD SVG 20010904//EN"
 "http://www.w3.org/TR/2001/REC-SVG-20010904/DTD/svg10.dtd">
<svg version="1.0" xmlns="http://www.w3.org/2000/svg"
 width="716.000000pt" height="716.000000pt" viewBox="0 0 716.000000 716.000000"
 preserveAspectRatio="xMidYMid meet">

<g transform="translate(0.000000,716.000000) scale(0.100000,-0.100000)"
fill="#3375bb" stroke="none">
<path d="M3513 6970 c-62 -13 -117 -44 -217 -125 -320 -256 -726 -456 -1135
-560 -309 -78 -518 -105 -906 -114 -331 -9 -347 -12 -435 -76 -47 -35 -92 -92
-111 -143 -25 -64 -27 -136 -19 -517 64 -2785 294 -3668 1108 -4252 113 -81
324 -206 655 -387 353 -193 503 -283 729 -435 104 -69 215 -140 247 -157 77
-41 155 -50 236 -29 65 17 63 16 317 186 207 140 354 228 628 379 453 250 550
305 660 377 271 178 449 348 601 577 363 546 522 1378 589 3096 18 460 28
1044 19 1093 -16 86 -67 168 -135 217 -82 59 -102 62 -434 71 -401 10 -625 39
-925 119 -417 111 -815 312 -1145 579 -109 88 -221 123 -327 101z m141 -829
c550 -378 1271 -614 2011 -659 l120 -7 -3 -150 c-23 -1167 -103 -2073 -232
-2600 -121 -498 -286 -769 -600 -986 -120 -84 -199 -130 -545 -319 -278 -152
-631 -359 -755 -443 l-65 -44 -85 55 c-168 110 -411 252 -665 392 -554 304
-669 377 -811 517 -316 311 -472 844 -563 1923 -34 397 -64 1016 -73 1495 l-3
160 120 7 c571 35 1125 181 1600 423 151 76 392 220 446 264 13 11 26 20 28
21 3 0 36 -22 75 -49z"/>
</g>
</svg>
