<svg width="32" height="32" viewBox="0 0 32 32" fill="none" xmlns="http://www.w3.org/2000/svg">
<g clip-path="url(#clip0_1501_3171)">
<path d="M32 16C32 7.16344 24.8366 0 16 0C7.16344 0 0 7.16344 0 16C0 24.8366 7.16344 32 16 32C24.8366 32 32 24.8366 32 16Z" fill="white"/>
<path d="M16.0024 2.56055C8.58063 2.56055 2.5625 8.57868 2.5625 16.0005C2.5625 16.804 2.63716 17.5894 2.77156 18.3525H5.75599C6.13753 18.3525 6.36601 18.2286 6.51385 17.9897L7.56217 16.2529L8.90319 20.4171C9.03535 20.8359 9.34671 21.054 9.76633 21.057C10.1965 21.0592 10.5511 20.7956 10.6348 20.3655L11.6076 15.7803L12.6664 23.0916C12.7313 23.5725 12.9651 23.8144 13.4489 23.8144H13.4542C13.9358 23.8144 14.1665 23.5538 14.2337 23.0752L16.3923 8.84524C16.4215 8.6332 16.3654 8.41826 16.2363 8.24751C16.1073 8.07675 15.9157 7.96412 15.7038 7.9343C15.4921 7.90594 15.2776 7.96223 15.107 8.09098C14.9366 8.21972 14.8237 8.41052 14.7929 8.62198L13.4623 17.7448L12.567 11.6564C12.508 11.189 12.1535 10.8986 11.766 10.8904C11.3284 10.8799 11.0028 11.1539 10.9117 11.6191L9.62596 17.576L8.59929 14.3803C8.55693 14.2118 8.46471 14.06 8.33469 13.9448C8.20467 13.8295 8.04291 13.7562 7.87055 13.7344C7.40313 13.6784 7.13657 13.9203 6.9402 14.2399L5.35279 16.7397H4.40378C4.38672 16.4937 4.37775 16.2472 4.3769 16.0005C4.3769 9.57921 9.58116 4.37495 16.0024 4.37495C21.1798 4.37495 25.5665 7.76182 27.0688 12.4389H28.9616C27.3995 6.74561 22.1924 2.56055 16.0024 2.56055Z" fill="url(#paint0_linear_1501_3171)"/>
<path d="M29.233 13.6494H26.2433C25.8618 13.6494 25.6334 13.7733 25.4855 14.0122L24.4371 15.749L23.0954 11.5848C22.9641 11.166 22.6519 10.9479 22.233 10.9449C21.8029 10.9427 21.4482 11.2063 21.3646 11.6364L20.3917 16.2216L19.3322 8.91027C19.268 8.42942 19.0335 8.1875 18.5504 8.1875H18.5452C18.0637 8.1875 17.8329 8.44809 17.7657 8.9267L15.6063 23.1567C15.5443 23.5972 15.8535 24.0064 16.2941 24.0676C16.5058 24.096 16.7203 24.0397 16.8909 23.9109C17.0613 23.7822 17.1742 23.5914 17.2049 23.3799L18.5362 14.2571L19.4315 20.3455C19.4905 20.8129 19.8451 21.1033 20.2319 21.1115C20.6702 21.122 20.9958 20.848 21.0868 20.3828L22.372 14.4259L23.3986 17.6216C23.4792 17.9688 23.7883 18.2264 24.1273 18.2675C24.5947 18.3235 24.8612 18.0816 25.0569 17.762L26.6458 15.2622H27.6C27.6164 15.5071 27.6269 15.7542 27.6269 16.0014C27.6269 22.4227 22.4226 27.627 16.0013 27.627C10.8239 27.627 6.43731 24.2401 4.93502 19.563H3.04297C4.60499 25.2563 9.81448 29.4414 16.0021 29.4414C23.424 29.4414 29.442 23.4232 29.442 16.0014C29.442 15.1979 29.3674 14.4125 29.233 13.6494Z" fill="url(#paint1_linear_1501_3171)"/>
</g>
<defs>
<linearGradient id="paint0_linear_1501_3171" x1="2.5625" y1="2.56055" x2="29.4424" y2="29.4405" gradientUnits="userSpaceOnUse">
<stop stop-color="#FC829F"/>
<stop offset="0.337" stop-color="#FF1C53"/>
<stop offset="0.436" stop-color="#EA49F8"/>
<stop offset="0.53" stop-color="#B250FF"/>
<stop offset="0.634" stop-color="#5E5FF5"/>
<stop offset="1" stop-color="#323CFF"/>
</linearGradient>
<linearGradient id="paint1_linear_1501_3171" x1="2.56211" y1="2.56137" x2="29.442" y2="29.4414" gradientUnits="userSpaceOnUse">
<stop stop-color="#FC829F"/>
<stop offset="0.337" stop-color="#FF1C53"/>
<stop offset="0.436" stop-color="#EA49F8"/>
<stop offset="0.53" stop-color="#B250FF"/>
<stop offset="0.634" stop-color="#5E5FF5"/>
<stop offset="1" stop-color="#323CFF"/>
</linearGradient>
<clipPath id="clip0_1501_3171">
<rect width="32" height="32" fill="white"/>
</clipPath>
</defs>
</svg>
